<?xml version="1.0" encoding="UTF-8"?>
<!DOCTYPE svg PUBLIC "-//W3C//DTD SVG 1.1//EN" "http://www.w3.org/Graphics/SVG/1.1/DTD/svg11.dtd">
<!-- Creator: CorelDRAW -->
<svg xmlns="http://www.w3.org/2000/svg" xml:space="preserve" width="0.260417in" height="0.222122in" version="1.1" style="shape-rendering:geometricPrecision; text-rendering:geometricPrecision; image-rendering:optimizeQuality; fill-rule:evenodd; clip-rule:evenodd"
viewBox="0 0 2.13 1.82"
 xmlns:xlink="http://www.w3.org/1999/xlink"
 xmlns:xodm="http://www.corel.com/coreldraw/odm/2003">
 <defs>
  <style type="text/css">
   <![CDATA[
    .fil0 {fill:black}
   ]]>
  </style>
 </defs>
 <g id="Layer_x0020_1">
  <metadata id="CorelCorpID_0Corel-Layer"/>
  <g id="_2087208589664">
   <path class="fil0" d="M0.67 0.92c-0.07,0 -0.13,-0.06 -0.13,-0.13 0,-0.01 0.01,-0.02 0.02,-0.02 0.01,0 0.02,0.01 0.02,0.02 0,0.05 0.04,0.09 0.09,0.09 0.05,0 0.09,-0.04 0.09,-0.09 0,-0.05 -0.04,-0.09 -0.09,-0.09 -0.07,0 -0.13,-0.06 -0.13,-0.13 0,-0.07 0.06,-0.13 0.13,-0.13 0.07,0 0.13,0.06 0.13,0.13 0,0.01 -0.01,0.02 -0.02,0.02 -0.01,0 -0.02,-0.01 -0.02,-0.02 0,-0.05 -0.04,-0.09 -0.09,-0.09 -0.05,0 -0.09,0.04 -0.09,0.09 0,0.05 0.04,0.09 0.09,0.09 0.07,0 0.13,0.06 0.13,0.13 0,0.07 -0.06,0.13 -0.13,0.13z"/>
   <path class="fil0" d="M0.67 0.47c-0.01,0 -0.02,-0.01 -0.02,-0.02l0 -0.04c0,-0.01 0.01,-0.02 0.02,-0.02 0.01,0 0.02,0.01 0.02,0.02l0 0.04c0,0.01 -0.01,0.02 -0.02,0.02z"/>
   <path class="fil0" d="M0.67 0.96c-0.01,0 -0.02,-0.01 -0.02,-0.02l0 -0.04c0,-0.01 0.01,-0.02 0.02,-0.02 0.01,0 0.02,0.01 0.02,0.02l0 0.04c0,0.01 -0.01,0.02 -0.02,0.02z"/>
   <path class="fil0" d="M0.32 1.24c-0,0 -0.01,-0 -0.01,-0 -0.19,-0.12 -0.3,-0.34 -0.3,-0.56 0,-0.37 0.3,-0.67 0.67,-0.67 0.37,0 0.67,0.3 0.67,0.67 0,0.05 -0,0.09 -0.01,0.13 -0,0.01 -0.01,0.02 -0.02,0.02 -0.01,-0 -0.02,-0.01 -0.02,-0.02 0.01,-0.04 0.01,-0.08 0.01,-0.13 0,-0.35 -0.28,-0.63 -0.63,-0.63 -0.35,0 -0.63,0.28 -0.63,0.63 0,0.21 0.11,0.41 0.29,0.53 0.01,0.01 0.01,0.02 0,0.03 -0,0.01 -0.01,0.01 -0.02,0.01z"/>
   <path class="fil0" d="M0.39 1.09c-0,0 -0.01,-0 -0.01,-0 -0.14,-0.09 -0.22,-0.25 -0.22,-0.42 0,-0.28 0.23,-0.51 0.51,-0.51 0.01,0 0.02,0.01 0.02,0.02 0,0.01 -0.01,0.02 -0.02,0.02 -0.26,0 -0.47,0.21 -0.47,0.47 0,0.15 0.07,0.3 0.2,0.38 0.01,0.01 0.01,0.02 0,0.03 -0,0.01 -0.01,0.01 -0.02,0.01zm0.75 -0.28c-0,0 -0,0 -0,0 -0.01,-0 -0.02,-0.01 -0.01,-0.03 0.01,-0.04 0.01,-0.08 0.01,-0.12 0,-0.14 -0.06,-0.27 -0.17,-0.36 -0.01,-0.01 -0.01,-0.02 -0,-0.03 0.01,-0.01 0.02,-0.01 0.03,-0 0.12,0.1 0.18,0.24 0.18,0.39 0,0.04 -0,0.09 -0.02,0.13 -0,0.01 -0.01,0.01 -0.02,0.01z"/>
   <path class="fil0" d="M2.11 1.82l-0.58 0c-0.01,0 -0.02,-0.01 -0.02,-0.02 0,-0.01 0.01,-0.02 0.02,-0.02l0.56 0c-0.01,-0.16 -0.14,-0.28 -0.3,-0.28 -0.08,0 -0.15,0.03 -0.21,0.08 -0.01,0.01 -0.02,0.01 -0.03,-0 -0.01,-0.01 -0.01,-0.02 0,-0.03 0.06,-0.06 0.15,-0.09 0.23,-0.09 0.19,0 0.34,0.15 0.34,0.34 0,0.01 -0.01,0.02 -0.02,0.02z"/>
   <path class="fil0" d="M1.78 1.49c-0.12,0 -0.21,-0.09 -0.21,-0.21 0,-0.11 0.09,-0.21 0.21,-0.21 0.11,0 0.21,0.09 0.21,0.21 0,0.12 -0.09,0.21 -0.21,0.21zm0 -0.38c-0.09,0 -0.17,0.07 -0.17,0.17 0,0.09 0.08,0.17 0.17,0.17 0.09,0 0.17,-0.08 0.17,-0.17 0,-0.09 -0.07,-0.17 -0.17,-0.17z"/>
   <path class="fil0" d="M0.87 1.82l-0.58 0c-0.01,0 -0.02,-0.01 -0.02,-0.02 0,-0.19 0.15,-0.34 0.34,-0.34 0.09,0 0.17,0.03 0.23,0.09 0.01,0.01 0.01,0.02 0,0.03 -0.01,0.01 -0.02,0.01 -0.03,0 -0.06,-0.05 -0.13,-0.08 -0.21,-0.08 -0.16,0 -0.29,0.12 -0.3,0.28l0.56 0c0.01,0 0.02,0.01 0.02,0.02 0,0.01 -0.01,0.02 -0.02,0.02z"/>
   <path class="fil0" d="M0.61 1.49c-0.12,0 -0.21,-0.09 -0.21,-0.21 0,-0.11 0.09,-0.21 0.21,-0.21 0.11,0 0.21,0.09 0.21,0.21 0,0.12 -0.09,0.21 -0.21,0.21zm0 -0.38c-0.09,0 -0.17,0.07 -0.17,0.17 0,0.09 0.08,0.17 0.17,0.17 0.09,0 0.17,-0.08 0.17,-0.17 0,-0.09 -0.07,-0.17 -0.17,-0.17z"/>
   <path class="fil0" d="M1.53 1.82l-0.66 0c-0.03,0 -0.06,-0.02 -0.06,-0.05l0 -0.21c0,-0.07 0.06,-0.13 0.15,-0.15l0.08 -0.01c0.01,-0 0.02,0.01 0.02,0.02 0,0.01 -0,0.02 -0.02,0.02l-0.08 0.01c-0.05,0.01 -0.11,0.04 -0.11,0.11l0 0.21c0,0.01 0.01,0.01 0.01,0.01l0.66 0c0.01,0 0.01,-0.01 0.01,-0.01l0 -0.21c0,-0.07 -0.06,-0.1 -0.11,-0.11l-0.08 -0.01c-0.01,-0 -0.02,-0.01 -0.02,-0.02 0,-0.01 0.01,-0.02 0.02,-0.02l0.08 0.01c0.09,0.01 0.15,0.07 0.15,0.15l0 0.21c0,0.03 -0.02,0.05 -0.06,0.05zm-0.23 -0.39c-0.01,0 -0.02,-0.01 -0.02,-0.02l0 -0.05c0,-0.01 0.01,-0.02 0.02,-0.02 0.01,0 0.02,0.01 0.02,0.02l0 0.05c0,0.01 -0.01,0.02 -0.02,0.02zm-0.21 0c-0.01,0 -0.02,-0.01 -0.02,-0.02l0 -0.05c0,-0.01 0.01,-0.02 0.02,-0.02 0.01,0 0.02,0.01 0.02,0.02l0 0.05c0,0.01 -0.01,0.02 -0.02,0.02z"/>
   <path class="fil0" d="M1.2 1.4c-0.11,0 -0.2,-0.09 -0.2,-0.2l0 -0.14 0.02 0 0.02 0 0 0.14c0,0.09 0.07,0.16 0.16,0.16 0.09,0 0.16,-0.07 0.16,-0.16l0 -0.14c0,-0.01 0.01,-0.02 0.02,-0.02 0.01,0 0.02,0.01 0.02,0.02l0 0.14c0,0.11 -0.09,0.2 -0.2,0.2z"/>
   <path class="fil0" d="M1.37 1.08l-0.34 0c-0.08,0 -0.14,-0.05 -0.14,-0.11l0 -0.04c0,-0.02 0.02,-0.05 0.05,-0.05l0.31 0c0.08,0 0.14,0.05 0.14,0.11l0 0.06c0,0.01 -0.01,0.02 -0.02,0.02zm-0.43 -0.15c-0.01,0 -0.01,0 -0.01,0l0 0.04c0,0.04 0.05,0.07 0.1,0.07l0.32 0 0 -0.04c0,-0.04 -0.05,-0.07 -0.1,-0.07l-0.31 0z"/>
   <path class="fil0" d="M1.14 1.55c-0,0 -0.01,-0 -0.01,-0.01l-0.1 -0.12c-0,-0 -0.01,-0.01 -0,-0.02 0,-0.01 0.01,-0.01 0.02,-0.01l0.05 -0.01c0,-0 0.01,0 0.01,0l0.1 0.05c0.01,0 0.01,0.01 0.01,0.01 0,0.01 0,0.01 -0,0.02l-0.06 0.08c-0,0 -0.01,0.01 -0.02,0.01 0,0 0,0 -0,0zm-0.06 -0.13l0.06 0.07 0.03 -0.03 -0.07 -0.04 -0.01 0z"/>
   <path class="fil0" d="M1.26 1.55c-0.01,0 -0.01,-0 -0.02,-0.01l-0.06 -0.08c-0,-0 -0,-0.01 -0,-0.02 0,-0.01 0.01,-0.01 0.01,-0.01l0.1 -0.05c0,-0 0.01,-0 0.01,-0l0.05 0.01c0.01,0 0.01,0.01 0.02,0.01 0,0.01 0,0.01 -0,0.02l-0.1 0.12c-0,0 -0.01,0.01 -0.02,0.01zm-0.03 -0.09l0.03 0.03 0.06 -0.07 -0.01 -0 -0.07 0.04z"/>
   <path class="fil0" d="M0.97 1.82c-0.01,0 -0.02,-0.01 -0.02,-0.02l0 -0.13c0,-0.01 0.01,-0.02 0.02,-0.02 0.01,0 0.02,0.01 0.02,0.02l0 0.13c0,0.01 -0.01,0.02 -0.02,0.02z"/>
   <path class="fil0" d="M1.42 1.82c-0.01,0 -0.02,-0.01 -0.02,-0.02l0 -0.13c0,-0.01 0.01,-0.02 0.02,-0.02 0.01,0 0.02,0.01 0.02,0.02l0 0.13c0,0.01 -0.01,0.02 -0.02,0.02z"/>
   <path class="fil0" d="M0.48 1.82c-0.01,0 -0.02,-0.01 -0.02,-0.02l0 -0.1c0,-0.01 0.01,-0.02 0.02,-0.02 0.01,0 0.02,0.01 0.02,0.02l0 0.1c0,0.01 -0.01,0.02 -0.02,0.02z"/>
   <path class="fil0" d="M1.92 1.82c-0.01,0 -0.02,-0.01 -0.02,-0.02l0 -0.1c0,-0.01 0.01,-0.02 0.02,-0.02 0.01,0 0.02,0.01 0.02,0.02l0 0.1c0,0.01 -0.01,0.02 -0.02,0.02z"/>
  </g>
 </g>
</svg>
