<?xml version="1.0" encoding="UTF-8"?>
<!DOCTYPE svg PUBLIC "-//W3C//DTD SVG 1.1//EN" "http://www.w3.org/Graphics/SVG/1.1/DTD/svg11.dtd">
<!-- Creator: CorelDRAW -->
<svg xmlns="http://www.w3.org/2000/svg" xml:space="preserve" width="24in" height="18in" version="1.1" style="shape-rendering:geometricPrecision; text-rendering:geometricPrecision; image-rendering:optimizeQuality; fill-rule:evenodd; clip-rule:evenodd"
viewBox="0 0 24000 18000"
 xmlns:xlink="http://www.w3.org/1999/xlink"
 xmlns:xodm="http://www.corel.com/coreldraw/odm/2003">
 <defs>
  <style type="text/css">
   <![CDATA[
    .fil0 {fill:white;fill-rule:nonzero}
   ]]>
  </style>
 </defs>
 <g id="Layer_x0020_1">
  <metadata id="CorelCorpID_0Corel-Layer"/>
  <g id="_2417561375984">
   <g id="_2417561351408">
    <path class="fil0" d="M12441.24 8972.52c1.26,-1.26 2.52,-2.94 2.94,-4.63 0.84,-1.68 1.26,-3.78 1.26,-5.46 0,-2.1 -0.42,-3.78 -1.26,-5.46 -0.84,-1.68 -1.68,-3.36 -2.94,-4.63l-32.8 -32.8c-2.52,-2.52 -5.89,-4.2 -9.67,-4.2 -3.78,0 -7.15,0.84 -10.09,3.36l-94.18 78.62 -25.65 0c2.94,-2.52 5.46,-5.04 7.99,-7.99 2.52,-2.94 4.63,-5.89 6.31,-9.67 1.68,-3.36 3.36,-6.73 4.2,-10.51 0.84,-3.78 1.68,-7.57 2.1,-11.35 0.42,-3.78 0,-7.57 -0.42,-11.35 -0.42,-3.78 -1.26,-7.57 -2.52,-10.93 -1.26,-3.78 -2.94,-7.15 -5.04,-10.09 -2.1,-3.36 -4.2,-6.31 -6.73,-9.25 -2.52,-2.94 -5.46,-5.46 -8.41,-7.57 -2.94,-2.1 -6.31,-4.2 -10.09,-5.46 -3.36,-1.68 -7.15,-2.52 -10.93,-3.36 -3.78,-0.84 -7.57,-1.26 -11.35,-1.26 -3.78,0 -7.57,0.42 -11.35,1.26 -3.78,0.84 -7.15,2.1 -10.93,3.36 -3.36,1.68 -6.73,3.36 -10.09,5.46 -2.94,2.1 -5.89,4.63 -8.41,7.57 -2.52,2.94 -5.04,5.89 -6.73,9.25 -2.1,3.36 -3.78,6.73 -5.04,10.09 -1.26,3.78 -2.1,7.15 -2.52,10.93 -0.42,3.78 -0.42,7.57 -0.42,11.35 0.42,3.78 0.84,7.57 2.1,11.35 0.84,3.78 2.52,7.15 4.2,10.51 1.68,3.36 3.78,6.73 6.31,9.67 2.52,2.94 5.04,5.46 7.99,7.99l-25.65 0 -94.18 -78.62c-2.94,-2.52 -6.31,-3.36 -10.09,-3.36 -3.78,0 -6.73,1.68 -9.67,4.2l-32.8 32.8c-1.26,1.26 -2.52,2.94 -2.94,4.63 -0.84,1.68 -1.26,3.78 -1.26,5.46 0,2.1 0.42,3.78 1.26,5.46 0.84,1.68 1.68,3.36 2.94,4.63l126.97 126.97 0 107.63 -16.4 196.76c0,2.1 0,3.78 0.84,5.89 0.84,2.1 1.68,3.78 2.94,5.04 1.26,1.68 2.94,2.52 5.04,3.36 1.68,0.84 3.78,1.26 5.89,1.26l-76.94 0 0 29.01 318.27 0 0 -29.01 -76.94 0c2.1,0 3.78,-0.42 5.89,-1.26 1.68,-0.84 3.36,-2.1 5.04,-3.36 1.26,-1.68 2.52,-3.36 2.94,-5.04 0.84,-2.1 0.84,-3.78 0.84,-5.89l-16.4 -195.5 0 -108.89 126.97 -126.97 -0.42 0zm-206.85 -44.99c3.36,0 6.73,0.84 10.09,2.1 3.36,1.26 6.31,3.36 8.41,5.89 2.52,2.52 4.2,5.46 5.89,8.41 1.26,3.36 2.1,6.73 2.1,10.09 0,3.36 -0.84,6.73 -2.1,10.09 -1.26,3.36 -3.36,6.31 -5.89,8.41 -2.52,2.52 -5.46,4.2 -8.41,5.89 -3.36,1.26 -6.73,2.1 -10.09,2.1 -3.36,0 -6.73,-0.84 -10.09,-2.1 -3.36,-1.26 -6.31,-3.36 -8.41,-5.89 -2.52,-2.52 -4.2,-5.46 -5.89,-8.41 -1.26,-3.36 -2.1,-6.73 -2.1,-10.09 0,-3.36 0.84,-6.73 2.1,-10.09 1.26,-3.36 3.36,-6.31 5.89,-8.41 2.52,-2.52 5.46,-4.2 8.41,-5.89 3.36,-1.26 6.73,-2.1 10.09,-2.1zm-32.8 491.48c3.36,0 6.73,-1.26 9.25,-3.36 2.52,-2.1 4.2,-5.04 5.04,-8.41l18.5 -102.17 18.5 102.17c0.42,3.36 2.1,6.31 5.04,8.41 2.52,2.1 5.89,3.36 9.25,3.36l-65.59 0 0 0zm83.67 -209.8l15.13 180.79 -21.44 0 -30.69 -168.17c-0.84,-3.36 -2.1,-6.31 -5.04,-8.41 -2.52,-2.1 -5.89,-3.36 -9.25,-3.36 -3.36,0 -6.73,1.26 -9.25,3.36 -2.52,2.1 -4.2,5.04 -5.04,8.41l-30.69 168.17 -21.44 0 15.13 -182.05 0 -114.78c0,-3.78 -1.26,-7.57 -4.2,-10.09l-120.67 -120.66 13.03 -13.03 88.29 73.57c2.52,2.1 5.89,3.36 9.25,3.36l131.17 0c3.36,0 6.73,-1.26 9.25,-3.36l88.29 -73.57 13.03 13.03 -120.67 120.66c-2.94,2.94 -4.2,6.31 -4.2,10.09l0 116.04 0.01 0z"/>
    <path class="fil0" d="M11808.07 9255.47c5.46,-2.1 10.09,-5.04 14.72,-8.41 4.63,-3.78 8.41,-7.99 11.77,-12.61 3.36,-4.63 5.46,-10.09 7.15,-15.56 1.68,-5.46 2.52,-10.93 2.52,-16.82l0 -108.47c0,-6.31 -1.26,-13.03 -3.36,-18.92 -2.1,-6.31 -5.46,-11.77 -9.25,-16.82 -4.2,-5.04 -8.83,-9.25 -14.3,-13.03 -5.46,-3.36 -11.35,-5.89 -17.66,-7.57 -1.68,-8.41 -4.2,-15.98 -8.41,-23.54 -4.2,-7.15 -9.67,-13.87 -15.98,-19.33 -6.31,-5.46 -13.87,-9.67 -21.86,-12.61 -7.99,-2.94 -15.98,-4.2 -24.81,-4.2 -8.41,0 -16.82,1.26 -24.81,4.2 -7.99,2.94 -15.13,7.15 -21.86,12.61 -6.31,5.46 -11.77,11.77 -15.98,19.33 -4.2,7.15 -7.15,15.13 -8.41,23.54 -6.31,1.68 -12.19,3.78 -17.66,7.57 -5.46,3.36 -10.09,7.57 -14.3,13.03 -4.2,5.04 -7.15,10.51 -9.25,16.82 -2.1,6.31 -3.36,12.61 -3.36,18.92l0 108.47c0,5.89 0.84,11.35 2.52,16.82 1.68,5.46 4.2,10.51 7.15,15.56 3.36,4.63 7.15,8.83 11.35,12.61 4.63,3.78 9.25,6.31 14.72,8.41l0 4.63 -94.18 0 0 29.01 94.18 0 0 25.22c0,9.25 2.52,18.08 7.57,26.07 5.04,7.99 12.19,13.45 20.6,17.24 8.83,3.78 17.66,4.63 26.91,2.94 9.25,-1.68 17.24,-5.89 23.96,-12.61 6.73,6.73 14.72,10.51 23.96,12.61 9.25,1.68 18.08,0.84 26.91,-2.94 8.83,-3.78 15.56,-9.67 20.6,-17.24 5.04,-7.99 7.57,-16.4 7.57,-26.07l0 -25.22 94.18 0 0 -29.01 -94.18 0 0 -4.63 1.26 0zm-79.46 -248.48c5.89,0 11.35,1.26 16.4,3.36 5.46,2.1 10.09,5.46 13.87,9.25 4.2,4.2 7.15,8.83 9.25,13.87 2.1,5.46 3.36,10.93 3.36,16.4 0,5.89 -1.26,11.35 -3.36,16.4 -2.1,5.46 -5.46,10.09 -9.25,13.87 -4.2,4.2 -8.83,7.15 -13.87,9.25 -5.46,2.1 -10.93,3.36 -16.4,3.36 -5.89,0 -11.35,-1.26 -16.4,-3.36 -5.46,-2.1 -10.09,-5.46 -13.87,-9.25 -4.2,-4.2 -7.15,-8.83 -9.25,-13.87 -2.1,-5.46 -3.36,-10.93 -3.36,-16.4 0,-5.89 1.26,-11.35 3.36,-16.4 2.1,-5.46 5.46,-10.09 9.25,-13.87 4.2,-4.2 8.83,-7.15 13.87,-9.25 5.46,-2.1 10.93,-3.36 16.4,-3.36zm-14.3 307.34c0,2.52 -0.42,4.63 -1.26,6.73 -0.84,2.1 -2.1,4.2 -3.78,5.89 -1.68,1.68 -3.78,2.94 -5.89,3.78 -2.1,0.84 -4.63,1.26 -6.73,1.26 -2.52,0 -4.63,-0.42 -6.73,-1.26 -2.1,-0.84 -4.2,-2.1 -5.89,-3.78 -1.68,-1.68 -2.94,-3.78 -3.78,-5.89 -0.84,-2.1 -1.26,-4.63 -1.26,-6.73l0 -94.18c0,-2.52 0.42,-4.63 1.26,-6.73 0.84,-2.1 2.1,-4.2 3.78,-5.89 1.68,-1.68 3.78,-2.94 5.89,-3.78 2.1,-0.84 4.63,-1.26 6.73,-1.26 2.52,0 4.63,0.42 6.73,1.26 2.1,0.84 4.2,2.1 5.89,3.78 1.68,1.68 2.94,3.78 3.78,5.89 0.84,2.1 1.26,4.63 1.26,6.73l0 94.18zm65.17 0c0,2.52 -0.42,4.63 -1.26,6.73 -0.84,2.1 -2.1,4.2 -3.78,5.89 -1.68,1.68 -3.78,2.94 -5.89,3.78 -2.1,0.84 -4.63,1.26 -6.73,1.26 -2.52,0 -4.63,-0.42 -6.73,-1.26 -2.1,-0.84 -4.2,-2.1 -5.89,-3.78 -1.68,-1.68 -2.94,-3.78 -3.78,-5.89 -0.84,-2.1 -1.26,-4.63 -1.26,-6.73l0 -94.18c0,-2.52 0.42,-4.63 1.26,-6.73 0.84,-2.1 2.1,-4.2 3.78,-5.89 1.68,-1.68 3.78,-2.94 5.89,-3.78 2.1,-0.84 4.63,-1.26 6.73,-1.26 2.52,0 4.63,0.42 6.73,1.26 2.1,0.84 4.2,2.1 5.89,3.78 1.68,1.68 2.94,3.78 3.78,5.89 0.84,2.1 1.26,4.63 1.26,6.73l0 94.18zm7.15 -133.28l0 -50.87 -29.01 0 0 43.72c-11.35,0.84 -21.02,5.04 -29.01,13.03 -7.99,-7.57 -17.66,-12.19 -29.01,-13.03l0 -43.72 -29.01 0 0 50.87c-6.73,4.2 -12.19,10.09 -15.98,16.82 -3.78,7.15 -5.89,14.72 -5.89,22.7l0 0.84c-4.63,-5.46 -7.15,-11.77 -7.15,-18.92l0 -108.47c0,-5.46 1.68,-10.93 4.63,-15.56 2.94,-4.63 7.15,-8.41 12.19,-10.51 2.1,7.99 5.04,15.13 9.25,21.86 4.2,6.73 9.67,12.61 15.98,17.66 6.31,5.04 13.45,8.83 21.02,11.35 7.57,2.52 15.56,3.78 23.54,3.78 7.99,0 15.98,-1.26 23.54,-3.78 7.57,-2.52 14.72,-6.31 21.02,-11.35 6.31,-5.04 11.77,-10.93 15.98,-17.66 4.2,-6.73 7.57,-14.3 9.25,-21.86 5.04,2.52 9.25,5.89 12.19,10.51 2.94,4.63 4.63,10.09 4.63,15.56l0 108.47c0,7.15 -2.52,13.45 -7.15,18.92l0 -0.84c0,-7.99 -2.1,-15.56 -5.89,-22.7 -3.78,-7.15 -9.25,-12.61 -15.98,-16.82l0.83 0z"/>
    <polygon class="fil0" points="12220.09,8797.2 12249.1,8797.2 12249.1,8855.22 12220.09,8855.22 "/>
    <polygon class="fil0" points="12295.35,8863.21 12321.41,8811.5 12347.06,8824.53 12321.41,8876.24 "/>
    <polygon class="fil0" points="12121.71,8824.53 12147.78,8811.5 12173.42,8863.21 12147.78,8876.24 "/>
    <path class="fil0" d="M11839.6 8590.77c63.06,-28.17 148.83,1.68 254.36,88.29l-20.18 19.76c-3.78,3.78 -5.04,8.83 -3.78,13.87 1.68,5.46 5.04,8.83 10.51,10.09l81.98 20.6c2.52,0.42 5.04,0.42 7.57,0 2.52,-0.84 4.63,-2.1 6.31,-3.78 1.68,-1.68 2.94,-3.78 3.78,-6.31 0.84,-2.52 0.84,-5.04 0,-7.57l-20.6 -81.56c-1.26,-5.46 -4.63,-8.83 -10.09,-10.51 -5.46,-1.68 -10.09,-0.42 -13.87,3.78l-21.02 21.02c-116.04,-95.44 -212.31,-127.39 -286.73,-94.18 -134.54,60.12 -142.53,308.18 -142.53,318.69l29.01 0.84c0,-2.52 7.99,-240.49 125.71,-293.04l-0.42 0zm298.08 85.35l8.41 33.63 -33.63 -8.41 25.22 -25.22z"/>
   </g>
  </g>
  <g id="_2417561377472">
   <path class="fil0" d="M30019.37 2248.36c1.35,-1.35 2.4,-2.92 3.13,-4.69 0.73,-1.77 1.1,-3.61 1.1,-5.53 0,-1.92 -0.37,-3.76 -1.1,-5.53 -0.74,-1.77 -1.78,-3.33 -3.13,-4.69l-32.78 -32.76c-2.64,-2.65 -5.83,-4.06 -9.57,-4.23 -3.74,-0.17 -7.04,0.94 -9.92,3.33l-94.28 78.58 -25.61 0c2.97,-2.39 5.67,-5.05 8.08,-7.99 2.42,-2.94 4.52,-6.09 6.29,-9.47 1.77,-3.37 3.18,-6.89 4.22,-10.55 1.05,-3.67 1.71,-7.39 1.98,-11.19 0.28,-3.8 0.16,-7.58 -0.34,-11.36 -0.51,-3.78 -1.39,-7.46 -2.65,-11.05 -1.26,-3.59 -2.88,-7.02 -4.85,-10.28 -1.97,-3.26 -4.25,-6.28 -6.85,-9.07 -2.59,-2.79 -5.44,-5.28 -8.55,-7.48 -3.11,-2.2 -6.41,-4.06 -9.9,-5.58 -3.49,-1.52 -7.1,-2.67 -10.83,-3.44 -3.73,-0.78 -7.5,-1.17 -11.3,-1.17 -3.81,0 -7.57,0.39 -11.3,1.17 -3.73,0.78 -7.34,1.93 -10.83,3.44 -3.49,1.52 -6.79,3.38 -9.9,5.58 -3.11,2.2 -5.96,4.7 -8.55,7.48 -2.59,2.79 -4.87,5.81 -6.84,9.07 -1.97,3.26 -3.59,6.69 -4.85,10.28 -1.26,3.59 -2.15,7.28 -2.65,11.05 -0.5,3.78 -0.62,7.56 -0.34,11.36 0.28,3.8 0.93,7.53 1.98,11.19 1.04,3.66 2.45,7.18 4.22,10.55 1.77,3.37 3.87,6.53 6.29,9.47 2.42,2.94 5.11,5.6 8.08,7.99l-25.61 0 -94.28 -78.58c-2.87,-2.39 -6.18,-3.51 -9.92,-3.33 -3.74,0.17 -6.93,1.58 -9.57,4.23l-32.78 32.76c-1.35,1.36 -2.4,2.92 -3.13,4.69 -0.74,1.77 -1.1,3.61 -1.1,5.53 0,1.92 0.37,3.76 1.1,5.53 0.73,1.77 1.78,3.33 3.13,4.69l126.86 126.86 0 107.52 -16.39 196.63c-0.17,2.02 0.08,3.99 0.74,5.9 0.66,1.92 1.67,3.62 3.05,5.11 1.37,1.49 2.99,2.64 4.85,3.45 1.86,0.81 3.8,1.21 5.82,1.2l-77.11 0 0 28.92 318.09 0 0 -28.92 -77.11 0c2.02,0.01 3.97,-0.39 5.82,-1.2 1.86,-0.81 3.48,-1.96 4.85,-3.45 1.37,-1.49 2.39,-3.19 3.05,-5.11 0.66,-1.91 0.91,-3.88 0.74,-5.9l-16.39 -195.44 0 -108.71 126.86 -126.86zm-206.86 -44.92c3.52,-0 6.9,0.67 10.15,2.01 3.25,1.35 6.12,3.26 8.61,5.75 2.49,2.48 4.41,5.35 5.75,8.6 1.35,3.25 2.02,6.63 2.02,10.15 0,3.52 -0.67,6.9 -2.02,10.15 -1.35,3.25 -3.26,6.12 -5.75,8.61 -2.48,2.48 -5.35,4.4 -8.6,5.75 -3.25,1.35 -6.63,2.02 -10.15,2.02 -3.52,-0 -6.9,-0.68 -10.15,-2.02 -3.25,-1.35 -6.12,-3.26 -8.6,-5.75 -2.49,-2.49 -4.4,-5.36 -5.75,-8.61 -1.34,-3.25 -2.02,-6.63 -2.01,-10.15 0,-3.52 0.68,-6.89 2.02,-10.14 1.35,-3.25 3.26,-6.11 5.74,-8.59 2.48,-2.48 5.35,-4.4 8.59,-5.75 3.24,-1.35 6.63,-2.02 10.14,-2.02zm-32.78 491.59c3.49,0 6.58,-1.12 9.26,-3.35 2.68,-2.24 4.34,-5.08 4.96,-8.52l18.55 -102 18.55 102c0.63,3.44 2.28,6.28 4.96,8.52 2.69,2.24 5.77,3.35 9.27,3.35l-65.56 0zm83.86 -209.89l15.14 180.98 -21.4 0 -30.61 -168.38c-0.64,-3.42 -2.3,-6.24 -4.98,-8.47 -2.68,-2.22 -5.76,-3.33 -9.24,-3.33 -3.48,0 -6.56,1.11 -9.24,3.33 -2.68,2.22 -4.34,5.05 -4.98,8.47l-30.61 168.38 -21.4 0 15.14 -182.18 0 -114.7c0,-3.99 -1.41,-7.4 -4.24,-10.22l-120.87 -120.87 13.23 -13.22 88.2 73.48c2.69,2.24 5.77,3.35 9.27,3.35l131.08 0c3.5,0 6.59,-1.12 9.27,-3.35l88.2 -73.48 13.23 13.22 -120.87 120.87c-2.82,2.82 -4.24,6.23 -4.24,10.22l-0.09 115.9z"/>
   <path class="fil0" d="M29385.99 2531.56c5.35,-2.12 10.26,-4.98 14.74,-8.59 4.48,-3.6 8.34,-7.78 11.56,-12.55 3.22,-4.76 5.67,-9.89 7.35,-15.4 1.68,-5.5 2.51,-11.13 2.49,-16.88l0 -108.44c-0.02,-6.52 -1.1,-12.85 -3.25,-18.99 -2.16,-6.15 -5.26,-11.77 -9.31,-16.87 -4.06,-5.1 -8.83,-9.39 -14.34,-12.87 -5.5,-3.48 -11.43,-5.97 -17.77,-7.45 -1.48,-8.33 -4.34,-16.17 -8.59,-23.5 -4.24,-7.33 -9.61,-13.71 -16.09,-19.15 -6.49,-5.44 -13.72,-9.6 -21.67,-12.5 -7.96,-2.89 -16.17,-4.34 -24.64,-4.34 -8.46,0 -16.68,1.45 -24.63,4.34 -7.96,2.89 -15.18,7.06 -21.67,12.5 -6.49,5.44 -11.85,11.82 -16.1,19.15 -4.24,7.33 -7.1,15.16 -8.58,23.5 -6.35,1.48 -12.27,3.96 -17.77,7.45 -5.51,3.48 -10.29,7.78 -14.34,12.87 -4.06,5.1 -7.16,10.72 -9.31,16.87 -2.15,6.15 -3.24,12.48 -3.25,18.99l0 108.44c-0.02,5.75 0.81,11.38 2.49,16.88 1.67,5.5 4.13,10.63 7.35,15.4 3.22,4.76 7.07,8.94 11.56,12.55 4.48,3.6 9.4,6.46 14.75,8.59l0 4.42 -93.98 0 0 28.92 93.98 0 0 25.3c-0.02,9.43 2.56,18.07 7.76,25.94 5.19,7.87 12.13,13.64 20.8,17.33 8.67,3.69 17.65,4.66 26.91,2.94 9.27,-1.72 17.28,-5.87 24.05,-12.43 6.77,6.56 14.79,10.7 24.05,12.43 9.27,1.72 18.24,0.75 26.91,-2.94 8.67,-3.69 15.61,-9.46 20.8,-17.33 5.19,-7.87 7.78,-16.51 7.76,-25.94l0 -25.3 93.98 0 0 -28.92 -93.98 0 0 -4.42zm-79.52 -248.6c5.75,0 11.29,1.1 16.6,3.3 5.31,2.2 10,5.33 14.07,9.4 4.07,4.07 7.2,8.76 9.4,14.07 2.2,5.31 3.3,10.85 3.3,16.6 0,5.75 -1.1,11.28 -3.3,16.6 -2.2,5.31 -5.33,10 -9.4,14.07 -4.07,4.07 -8.76,7.2 -14.07,9.4 -5.31,2.2 -10.85,3.3 -16.6,3.3 -5.75,0 -11.28,-1.1 -16.6,-3.3 -5.31,-2.2 -10,-5.33 -14.07,-9.4 -4.07,-4.07 -7.2,-8.76 -9.4,-14.07 -2.2,-5.31 -3.3,-10.85 -3.3,-16.6 0,-5.75 1.1,-11.29 3.3,-16.6 2.2,-5.31 5.33,-10.01 9.4,-14.07 4.07,-4.07 8.76,-7.2 14.07,-9.4 5.31,-2.2 10.85,-3.3 16.6,-3.3zm-14.46 307.24c0,2.4 -0.46,4.7 -1.38,6.92 -0.91,2.21 -2.22,4.17 -3.92,5.86 -1.69,1.69 -3.65,3 -5.86,3.92 -2.21,0.92 -4.52,1.38 -6.92,1.38 -2.39,0 -4.7,-0.46 -6.91,-1.38 -2.22,-0.92 -4.17,-2.22 -5.87,-3.92 -1.69,-1.69 -3,-3.65 -3.92,-5.86 -0.92,-2.22 -1.37,-4.52 -1.37,-6.92l0 -93.98c0,-2.4 0.46,-4.7 1.37,-6.92 0.92,-2.21 2.22,-4.17 3.92,-5.86 1.7,-1.69 3.65,-3 5.87,-3.92 2.21,-0.92 4.52,-1.38 6.91,-1.38 2.4,0 4.7,0.46 6.92,1.38 2.22,0.92 4.17,2.22 5.86,3.92 1.7,1.69 3,3.65 3.92,5.86 0.92,2.22 1.38,4.52 1.38,6.92l0 93.98zm65.06 0c0,2.4 -0.46,4.7 -1.37,6.92 -0.92,2.21 -2.22,4.17 -3.92,5.86 -1.69,1.69 -3.65,3 -5.86,3.92 -2.21,0.92 -4.52,1.38 -6.92,1.38 -2.39,0 -4.7,-0.46 -6.91,-1.38 -2.22,-0.92 -4.17,-2.22 -5.87,-3.92 -1.69,-1.69 -3,-3.65 -3.92,-5.86 -0.92,-2.22 -1.37,-4.52 -1.37,-6.92l0 -93.98c0,-2.4 0.46,-4.7 1.37,-6.92 0.92,-2.21 2.22,-4.17 3.92,-5.86 1.7,-1.69 3.65,-3 5.87,-3.92 2.21,-0.92 4.52,-1.38 6.91,-1.38 2.4,0 4.7,0.46 6.92,1.38 2.22,0.92 4.17,2.22 5.86,3.92 1.7,1.69 3,3.65 3.92,5.86 0.91,2.22 1.37,4.52 1.37,6.92l0 93.98zm7.23 -133.45l0 -50.89 -28.92 0 0 43.74c-11.18,0.81 -20.82,5.1 -28.92,12.85 -8.09,-7.76 -17.73,-12.04 -28.92,-12.85l0 -43.74 -28.91 0 0 50.89c-6.74,4.3 -12.04,9.96 -15.89,16.96 -3.85,7.01 -5.78,14.51 -5.8,22.51l0 1.03c-4.83,-5.45 -7.24,-11.81 -7.23,-19.1l0 -108.44c0.02,-5.61 1.54,-10.78 4.57,-15.51 3.03,-4.72 7.09,-8.27 12.19,-10.63 1.9,7.85 5.04,15.17 9.4,21.97 4.37,6.79 9.72,12.69 16.07,17.68 6.35,4.99 13.34,8.81 20.97,11.45 7.63,2.64 15.48,3.96 23.56,3.96 8.08,0 15.93,-1.32 23.56,-3.96 7.63,-2.64 14.62,-6.46 20.97,-11.45 6.35,-4.99 11.7,-10.89 16.07,-17.68 4.36,-6.8 7.5,-14.12 9.4,-21.97 5.09,2.36 9.15,5.91 12.19,10.63 3.03,4.73 4.55,9.9 4.57,15.51l0 108.44c0.02,7.29 -2.39,13.65 -7.23,19.1l0 -1.03c-0.02,-8 -1.95,-15.5 -5.8,-22.51 -3.85,-7.01 -9.15,-12.66 -15.89,-16.96z"/>
   <polygon class="fil0" points="29798.06,2073.31 29826.97,2073.31 29826.97,2131.15 29798.06,2131.15 "/>
   <polygon class="fil0" points="29873.41,2139.13 29899.28,2087.4 29925.14,2100.33 29899.28,2152.06 "/>
   <polygon class="fil0" points="29699.9,2100.34 29725.76,2087.41 29751.63,2139.14 29725.76,2152.07 "/>
   <path class="fil0" d="M29417.61 1866.72c63.16,-28.24 148.71,1.67 254.47,88.4l-19.98 19.88c-3.97,3.98 -5.2,8.67 -3.7,14.08 1.5,5.41 4.98,8.8 10.43,10.17l81.79 20.44c2.46,0.61 4.91,0.58 7.36,-0.1 2.44,-0.68 4.57,-1.91 6.36,-3.71 1.8,-1.8 3.03,-3.91 3.71,-6.36 0.68,-2.44 0.71,-4.9 0.1,-7.36l-20.44 -81.75c-1.36,-5.45 -4.75,-8.93 -10.16,-10.43 -5.42,-1.5 -10.11,-0.27 -14.08,3.7l-20.94 20.82c-115.87,-95.57 -212.37,-127.41 -286.73,-94.18 -134.39,60.03 -142.4,308.04 -142.69,318.56l28.92 0.77c0,-2.4 7.79,-240.36 125.6,-292.94zm298.22 85.48l8.43 33.63 -33.66 -8.41 25.23 -25.22z"/>
  </g>
  <path class="fil0" d="M28778.52 4054.96c1.39,9.57 2.44,19.29 2.85,29.15l-19.39 0c-4.79,7.97 -9.89,15.94 -15.17,23.94l34.54 0c-2.7,65.42 -27.15,125.3 -66.61,172.36 -19.27,-11.11 -41.15,-20.63 -64.84,-28.53 3.66,-10.91 6.92,-22.26 9.79,-33.94 -6.92,7.4 -13.83,14.77 -21.09,22.02 -8.78,8.79 -17.74,17.31 -26.74,25.59 2.49,0.6 5.07,1.1 7.49,1.72 -26.16,64.7 -66.57,108.39 -112.67,114.92l0 -34.04c-8,5.29 -15.97,10.39 -23.94,15.18l0 18.86c-7.4,-1.05 -14.56,-3.37 -21.61,-6.27 -14.6,8.04 -29.08,14.96 -43.4,21.28 24.65,6.32 50.34,10.06 77,10.06 88.54,0 168.22,-37.15 224.88,-96.49 5.36,-5.6 10.68,-11.27 15.61,-17.26 44.19,-53.74 70.71,-122.48 70.71,-197.43 0,-26.74 -3.52,-52.66 -9.86,-77.43 -5.27,11.99 -11.04,24.1 -17.55,36.31zm-199.48 315.67c25.11,-23.27 46.6,-56.56 62.83,-96.78 20.78,6.75 40,14.77 56.94,24.06 -32.94,33.32 -73.91,58.62 -119.78,72.72z"/>
  <path class="fil0" d="M28254.24 4293.5c4.93,5.98 10.27,11.63 15.61,17.26 15.15,15.85 32.03,29.99 50.2,42.39 10.43,-1.72 21.35,-4.21 32.91,-7.83 -22.81,-13.05 -43.9,-28.8 -62.28,-47.37 16.94,-9.29 36.17,-17.31 56.94,-24.06 9.26,22.98 20.44,43.37 32.81,61.25 7.11,-2.94 14.24,-5.98 21.47,-9.43 -12.02,-16.61 -22.78,-36.17 -31.78,-58.4 34.35,-9 72.41,-14.39 112.67,-15.3l0 25.92c8,-5.58 15.96,-11.44 23.94,-17.5l0 -8.43c3.37,0.07 6.61,0.38 9.96,0.52 9,-7.13 17.93,-14.55 26.81,-22.24 -12.06,-1.1 -24.3,-1.91 -36.76,-2.2l0 -120.06 143.28 0c-0.09,4.17 -0.53,8.16 -0.69,12.28 9.57,-12.04 18.79,-24.11 27.29,-36.22l-2.66 0c-1.15,-52.28 -9.69,-101.2 -24.01,-143.83 23.7,-7.9 45.57,-17.43 64.84,-28.53 11.04,13.14 20.73,27.38 29.28,42.37 3.64,-11.68 6.15,-22.72 7.85,-33.18 -5.24,-7.66 -10.75,-15.13 -16.61,-22.28 -4.93,-5.98 -10.27,-11.63 -15.61,-17.26 -56.7,-59.36 -136.39,-96.49 -224.93,-96.49 -88.54,0 -168.22,37.15 -224.91,96.49 -5.33,5.6 -10.67,11.27 -15.61,17.26 -44.14,53.71 -70.66,122.48 -70.66,197.43 0,74.94 26.52,143.69 70.66,197.43zm444.57 -399.28c-16.95,9.29 -36.17,17.31 -56.94,24.06 -16.23,-40.21 -37.72,-73.5 -62.83,-96.77 45.86,14.12 86.84,39.4 119.78,72.72zm-192.09 -84.25c46.1,6.51 86.5,50.22 112.67,114.92 -34.37,9 -72.41,14.38 -112.67,15.29l0 -130.21 0 0zm0 154.1c43.08,-0.96 83.87,-6.94 120.78,-17.04 13.33,40.31 21.4,87.01 22.5,137.08l-143.28 0 0 -120.04zm-23.94 263.99c-43.09,0.96 -83.87,6.94 -120.78,17.04 -13.33,-40.31 -21.4,-87.01 -22.5,-137.08l143.28 0 0 120.04zm0 -143.95l-143.28 0c1.12,-50.07 9.19,-96.77 22.5,-137.08 36.91,10.1 77.69,16.09 120.78,17.04l0 120.04zm0 -274.14l0 130.19c-40.26,-0.91 -78.32,-6.3 -112.67,-15.3 26.16,-64.7 66.56,-108.38 112.67,-114.89zm-72.33 11.54c-25.09,23.27 -46.6,56.56 -62.83,96.77 -20.78,-6.75 -39.98,-14.77 -56.92,-24.06 32.94,-33.32 73.89,-58.59 119.75,-72.72zm-135.69 90.22c19.27,11.11 41.15,20.63 64.84,28.53 -14.31,42.61 -22.86,91.56 -24.01,143.83l-107.47 0c2.73,-65.42 27.14,-125.31 66.64,-172.36zm40.83 196.32c1.15,52.28 9.69,101.2 24.01,143.83 -23.7,7.9 -45.57,17.45 -64.84,28.53 -39.47,-47.06 -63.91,-106.94 -66.61,-172.36l107.45 0 0 0z"/>
  <path class="fil0" d="M28391.43 4382.47c75.02,-29.34 156.8,-86 230.29,-159.46 73.46,-73.48 130.12,-155.27 159.46,-230.29 28.03,-71.62 27.93,-129.78 0.74,-166.14l24.68 -6.54 17.78 -4.72 -31.71 -13.33 -26.55 -11.13 -60.34 -25.35 25.35 60.32 12.2 29.06 8.91 21.21 3.37 8.02 10.37 -39.09c18.52,29.92 16.25,79.37 -7.09,138.95 -28.17,72.02 -82.89,150.92 -154.1,222.11 -71.21,71.19 -150.11,125.93 -222.11,154.1 -33.22,13 -63.24,19.39 -88.52,19.37 -26.37,-0.05 -47.63,-7.04 -61.75,-21.14 -17.59,-17.59 -24.18,-46.22 -19.87,-82.13 -6.65,-10.41 -12.66,-21.2 -18.17,-32.36 -13.98,57.28 -7.11,103.21 21.11,131.38 18.91,18.91 45.65,28.39 78.49,28.39 0.02,0 0.05,0 0.07,0 28.34,0 61.16,-7.06 97.37,-21.23z"/>
  <path class="fil0" d="M37292.15 2645.33c2.66,13.29 -4.65,23.93 -17.28,23.93l-21.93 0 -2 25.26 -11.3 136.91c-1.33,13.29 -11.3,24.59 -22.59,24.59l-41.2 0c-11.3,0 -21.27,-11.3 -22.6,-24.59l-10.63 -136.91 -1.99 -24.59 -21.27 0c-11.96,0 -18.61,-10.63 -15.95,-23.93l21.93 -101.02c2.66,-13.29 16.61,-23.93 29.91,-23.93l17.94 0 49.18 0 17.94 0c13.29,0 27.25,10.63 29.91,23.93l21.93 100.35zm-45.19 -194.06c0,-27.25 -21.93,-49.18 -49.18,-49.18 -27.25,0 -49.18,21.93 -49.18,49.18 0,27.25 21.93,49.18 49.18,49.18 27.25,0 49.18,-21.93 49.18,-49.18z"/>
  <path class="fil0" d="M37480.89 2599.47c2.66,10.63 -3.99,19.28 -13.29,19.28l-17.94 0 -1.33 19.94 -8.64 110.99c-0.67,10.63 -9.3,19.94 -18.61,19.94l-33.23 0c-9.3,0 -17.28,-8.64 -18.61,-19.94l-9.3 -110.99 -2 -19.94 -17.28 0c-9.3,0 -15.28,-8.64 -13.29,-19.28l17.94 -81.74c2.66,-10.63 13.29,-19.28 23.93,-19.28l14.62 0 39.88 0 14.62 0c11.3,0 21.93,8.64 23.93,19.28l18.61 81.74zm-36.55 -157.51c0,-21.93 -17.94,-39.88 -39.88,-39.88 -21.93,0 -39.87,17.94 -39.87,39.88 0,21.93 17.94,39.87 39.87,39.87 21.93,0 39.88,-17.94 39.88,-39.87z"/>
  <path class="fil0" d="M37405.13 2856.01c-21.27,0 -41.87,0 -63.14,0 -14.62,0 -21.27,-3.99 -21.93,-14.62 -0.67,-15.29 -0.67,-31.24 0,-46.52 0,-9.97 7.31,-15.28 21.27,-15.28 41.87,0 84.41,0 126.28,0 15.29,0 21.27,5.31 21.93,15.95 0,15.29 0,30.57 0,45.19 0,10.63 -6.65,14.62 -21.27,14.62 -21.27,0.67 -42.54,0.67 -63.14,0.67z"/>
  <path class="fil0" d="M37673.63 2561.59c1.99,8.64 -3.32,15.95 -11.3,15.95l-14.62 0 -1.33 15.95 -7.31 89.72c-0.67,8.64 -7.31,15.95 -14.62,15.95l-27.25 0c-7.31,0 -13.96,-7.31 -14.62,-15.95l-7.31 -89.72 -1.33 -15.95 -13.96 0c-7.98,0 -12.63,-7.31 -10.63,-15.95l14.62 -66.46c2,-8.64 10.63,-15.95 19.94,-15.95l11.96 0 32.57 0 11.96 0c8.64,0 17.94,7.31 19.94,15.95l13.29 66.46zm-29.91 -127.6c0,-17.94 -14.62,-32.57 -32.57,-32.57 -17.94,0 -32.57,14.62 -32.57,32.57 0,17.94 14.62,32.56 32.57,32.56 17.94,0 32.57,-14.62 32.57,-32.56z"/>
  <path class="fil0" d="M37611.82 2856.01c-21.27,0 -41.87,0 -63.14,0 -14.62,0 -21.27,-7.98 -21.93,-27.91 -0.67,-29.24 -0.67,-59.15 0,-88.39 0,-19.27 7.31,-28.58 21.27,-29.24 41.87,-0.67 84.41,-0.67 126.28,0 15.28,0 21.27,9.3 21.93,30.57 0,28.58 0,57.82 0,86.4 0,19.94 -6.65,27.91 -21.27,28.58 -21.27,0 -41.87,0 -63.14,0z"/>
  <path class="fil0" d="M32684.83 4245.75c2.91,4.99 1.21,11.4 -3.78,14.3 -1.66,0.96 -3.47,1.43 -5.26,1.43 -3.6,0 -7.11,-1.86 -9.05,-5.2 -35.94,-61.74 -50.98,-132.02 -43.48,-203.25 9.36,-88.93 52.8,-168.9 122.3,-225.17 69.5,-56.26 156.76,-82.09 245.7,-72.73 59.64,6.28 115.71,28.07 163.48,63.35l-7.25 -25.42c-1.59,-5.56 1.63,-11.35 7.19,-12.93 5.55,-1.59 11.35,1.63 12.93,7.19l16.42 57.54c0.88,3.09 0.29,6.42 -1.6,9.02 -1.89,2.6 -4.87,4.19 -8.09,4.31l-59.8 2.15c-0.13,0.01 -0.26,0.01 -0.38,0.01 -5.61,0 -10.25,-4.44 -10.45,-10.09 -0.2,-5.78 4.31,-10.63 10.08,-10.83l32.44 -1.17c-45.62,-34.79 -99.61,-56.25 -157.17,-62.31 -83.36,-8.78 -165.18,15.44 -230.34,68.19 -65.16,52.75 -105.88,127.72 -114.66,211.09 -7.03,66.77 7.06,132.65 40.76,190.53zm273.45 177.15l-3.65 0c-11.11,-0.07 -22.27,-0.69 -33.46,-1.87 -59.61,-6.27 -115.71,-28.08 -163.48,-63.35l7.25 25.42c1.58,5.56 -1.64,11.35 -7.19,12.93 -0.96,0.28 -1.93,0.41 -2.87,0.41 -4.56,0 -8.74,-3 -10.06,-7.59l-16.41 -57.54c-0.88,-3.09 -0.29,-6.42 1.6,-9.02 1.89,-2.6 4.87,-4.19 8.09,-4.31l59.8 -2.15c5.83,-0.22 10.63,4.31 10.83,10.08 0.2,5.78 -4.31,10.63 -10.08,10.83l-32.43 1.17c45.61,34.78 99.64,56.26 157.16,62.31 172.12,18.12 326.88,-107.17 345,-279.28 7.03,-66.78 -7.06,-132.67 -40.76,-190.53 -2.91,-5 -1.21,-11.4 3.78,-14.31 5,-2.91 11.4,-1.22 14.3,3.78 35.95,61.73 50.98,132.02 43.48,203.25 -9.36,88.93 -52.8,168.9 -122.3,225.17 -59.8,48.41 -132.74,74.28 -208.58,74.61zm-189.85 -316.61c-5.42,-2.1 -61.98,-27.56 -62.85,-27.94 -5.31,-2.3 -8.13,-8.62 -5.54,-14.15l64.3 -136.81c2.44,-5.2 8.64,-7.45 13.85,-5.05l61.56 28.4c0.26,0.12 0.5,0.24 0.75,0.38 12.01,6.76 24.64,3.78 40.62,0 21.15,-4.99 47.15,-11.13 77.65,6.66 41.96,-25.73 74.16,-12.6 97.97,-2.87 17.51,7.16 27.92,10.94 38.31,5.54 0,0 47.02,-25.17 47.11,-25.22 5.41,-2.89 12.49,-0.25 14.69,5.44l55.83 144.01c2.04,5.26 -0.46,11.19 -5.65,13.41l-58.04 24.75c1.11,7.71 -0.15,15.79 -4.14,23.04 -4.84,8.8 -12.85,15.17 -22.56,17.93 -2.74,0.78 -5.52,1.22 -8.28,1.37 0.96,7.53 -0.34,15.39 -4.25,22.49 -6.78,12.32 -19.55,19.3 -32.71,19.3 -1.28,0 -2.57,-0.08 -3.87,-0.22 0.33,6.63 -1.1,13.41 -4.5,19.59 -6.2,11.27 -17.43,18.05 -29.37,19.13 1.22,7.85 -0.03,16.15 -4.14,23.62 -6.78,12.32 -19.56,19.3 -32.71,19.3 -6.07,0 -12.22,-1.48 -17.9,-4.61l-11.87 -6.53c-7.15,9.55 -18.35,14.9 -29.86,14.9 -5.93,0 -11.93,-1.42 -17.51,-4.4 -8.24,-4.41 -14.15,-11.5 -17.23,-19.62 -1.3,0.56 -2.63,1.05 -4,1.47 -10.65,3.22 -22.56,1.43 -31.81,-4.85 -5.54,-3.77 -9.99,-9.06 -12.79,-15.14 0.52,1.13 -12.82,4.23 -13.73,4.33 -7.47,0.84 -15.09,-0.6 -21.72,-4.14 -8.75,-4.68 -15.17,-12.52 -18.06,-22.06 -1.66,-5.48 -2.04,-11.14 -1.17,-16.62 -0.34,0.01 -0.68,0.04 -1.02,0.04 -5.93,0 -11.93,-1.41 -17.52,-4.4 -18.12,-9.69 -24.97,-32.31 -15.28,-50.43l8.97 -16.78c-2.32,-5.37 -3.39,-11.2 -4.36,-16.54 -1.85,-10.2 -3.17,-15.17 -7.17,-16.73zm49.8 75.37c0,0 17.04,-31.85 17.05,-31.87 4.17,-7.8 1.11,-17.94 -6.69,-22.1 -7.85,-4.2 -17.94,-1.15 -22.13,6.69l-17.02 31.82c-4.25,7.94 -1.24,17.86 6.7,22.11 7.93,4.24 17.82,1.25 22.08,-6.65zm37.79 43c0,0 23.05,-43.08 23.06,-43.11 4.17,-7.8 1.12,-17.95 -6.69,-22.1 -7.79,-4.15 -17.9,-1.13 -22.09,6.63l-23.1 43.18c-4.25,7.94 -1.24,17.86 6.7,22.11 3.82,2.05 8.24,2.47 12.44,1.2 4.19,-1.28 7.63,-4.08 9.67,-7.9zm51.68 17.04c0,0 18.63,-34.84 18.65,-34.87 4.17,-7.79 1.11,-17.95 -6.69,-22.1 -7.83,-4.17 -17.94,-1.13 -22.13,6.69l-18.65 34.87c-4.25,7.94 -1.24,17.86 6.7,22.11 7.81,4.18 17.94,1.1 22.11,-6.7zm49.59 20.93c0,0 16.3,-30.48 16.32,-30.52 4.14,-7.74 1.07,-17.97 -6.69,-22.1 -7.82,-4.18 -17.95,-1.11 -22.13,6.69l-16.32 30.51c-4.25,7.94 -1.24,17.86 6.7,22.11 7.94,4.25 17.86,1.24 22.11,-6.7zm53.07 -25.8l-0.18 -0.1 -14.01 -7.7c-0.55,4.48 -1.92,8.87 -4.11,12.96l-9.12 17.06 11.7 6.43c7.9,4.34 17.85,1.45 22.19,-6.44 4.33,-7.87 1.43,-17.83 -6.47,-22.2zm-45.98 -257.74c-7.52,5.2 -15.14,11.69 -22.65,19.27 -16.95,17.13 -37.89,33.34 -62.35,48.29 24.95,26.19 51.78,15.33 82.4,2.93 16.66,-6.74 33.69,-13.64 50.3,-13.64 8.65,0 17.19,1.87 25.51,6.61l92.7 52.83c3.94,2.25 7.33,5.11 10.11,8.4l49.11 -20.94 -47.9 -123.56 -36.8 19.7c-19.59,10.19 -38.09,2.63 -55.99,-4.69 -23.95,-9.78 -48.71,-19.91 -84.43,4.79zm-238.78 85.33c15.74,7.09 45.04,20.3 50.4,22.38 13.44,5.22 17.26,17.62 19.37,28.14 11.33,-10.62 28.63,-13.42 43.07,-5.7 8.73,4.65 15.14,12.47 18.04,22.02 0.6,1.98 1.03,3.99 1.3,6.01 8.35,-1.59 16.9,-0.31 24.46,3.73 8.72,4.65 15.14,12.47 18.04,22.01 0.07,0.24 0.13,0.48 0.2,0.71 0.22,-0.07 0.44,-0.15 0.66,-0.22 9.54,-2.89 19.62,-1.91 28.37,2.77 8.72,4.65 15.13,12.47 18.04,22.02 0.07,0.24 0.13,0.47 0.2,0.71 0.22,-0.07 0.43,-0.15 0.65,-0.22 9.54,-2.89 19.62,-1.91 28.37,2.77 4.21,2.24 7.87,5.23 10.87,8.78l40.5 22.39c7.89,4.34 17.85,1.45 22.19,-6.44 4.3,-7.82 1.37,-17.8 -6.53,-22.24l-57.21 -32.2c-5.04,-2.83 -6.82,-9.21 -3.99,-14.25 2.83,-5.04 9.21,-6.82 14.25,-3.99l72.37 40.44c7.9,4.34 17.85,1.45 22.19,-6.44 4.3,-7.81 1.37,-17.79 -6.53,-22.24 -0.23,-0.13 -57.21,-32.36 -57.21,-32.36 -5.03,-2.84 -6.81,-9.22 -3.96,-14.26 2.84,-5.03 9.22,-6.81 14.26,-3.96l66.45 37.53c3.67,2.07 7.98,2.57 12.14,1.38 4.29,-1.22 7.82,-4.02 9.95,-7.88 4.28,-7.78 1.32,-17.76 -6.58,-22.27l-92.7 -52.83c-15.46,-8.81 -34.98,-0.91 -57.59,8.25 -17.16,6.94 -36.39,14.73 -55.88,14.73 -19.94,0 -40.15,-8.15 -58.69,-33.7 -1.74,-2.4 -2.39,-5.44 -1.76,-8.34 0.62,-2.91 2.45,-5.41 5.03,-6.89 27.44,-15.72 50.49,-32.93 68.52,-51.15 4.27,-4.31 8.59,-8.31 12.93,-11.99 -19.54,-8.23 -36.3,-4.28 -53.86,-0.13 -17.85,4.22 -36.31,8.58 -55.3,-1.91l-51.77 -23.88 -55.35 117.76c0.65,0.29 1.35,0.61 2.09,0.94z"/>
 </g>
</svg>
