<?xml version="1.0" encoding="UTF-8"?>
<!DOCTYPE svg PUBLIC "-//W3C//DTD SVG 1.1//EN" "http://www.w3.org/Graphics/SVG/1.1/DTD/svg11.dtd">
<!-- Creator: CorelDRAW -->
<svg xmlns="http://www.w3.org/2000/svg" xml:space="preserve" width="0.718732in" height="0.499965in" version="1.1" style="shape-rendering:geometricPrecision; text-rendering:geometricPrecision; image-rendering:optimizeQuality; fill-rule:evenodd; clip-rule:evenodd"
viewBox="0 0 29.18 20.29"
 xmlns:xlink="http://www.w3.org/1999/xlink"
 xmlns:xodm="http://www.corel.com/coreldraw/odm/2003">
 <defs>
  <style type="text/css">
   <![CDATA[
    .fil0 {fill:black;fill-rule:nonzero}
   ]]>
  </style>
 </defs>
 <g id="Layer_x0020_1">
  <metadata id="CorelCorpID_0Corel-Layer"/>
  <g id="_2876142682912">
   <path class="fil0" d="M4.69 12.77c-1.03,0 -1.87,-0.84 -1.87,-1.87 0,-1.03 0.84,-1.87 1.87,-1.87 1.03,0 1.87,0.84 1.87,1.87 0,1.03 -0.84,1.87 -1.87,1.87zm0 -3.23c-0.75,0 -1.36,0.61 -1.36,1.36 0,0.75 0.61,1.36 1.36,1.36 0.75,0 1.36,-0.61 1.36,-1.36 0,-0.75 -0.61,-1.36 -1.36,-1.36l0 0z"/>
   <path class="fil0" d="M7.46 19.04l-0.37 0c-0.14,0 -0.26,-0.11 -0.26,-0.26l0 -2.82c0,-0.14 -0.11,-0.25 -0.25,-0.25l-3.95 0c-0.14,0 -0.25,0.11 -0.25,0.25l0 2.82c0,0.14 -0.11,0.26 -0.26,0.26l-0.19 0c-0.5,0 -0.96,-0.22 -1.25,-0.61 -0.32,-0.42 -0.42,-0.98 -0.27,-1.51l0.13 -0.71c0.08,-0.43 0.21,-0.83 0.38,-1.2 0.62,-1.29 1.64,-2.01 2.88,-2.01l1.78 0c0.28,0 0.55,0.04 0.81,0.11 0.58,0.16 1.09,0.5 1.51,1.01 0.22,0.26 0.4,0.56 0.56,0.89 0.11,0.23 0.2,0.47 0.27,0.72 0.04,0.15 0.08,0.31 0.11,0.47l0.13 0.71c0.15,0.53 0.04,1.1 -0.27,1.51 -0.3,0.39 -0.75,0.61 -1.25,0.61zm-0.11 -0.51l0.11 0c0.34,0 0.65,-0.15 0.85,-0.41 0.22,-0.29 0.29,-0.69 0.18,-1.08 -0,-0.01 -0,-0.02 -0.01,-0.02l-0.13 -0.72c-0.03,-0.15 -0.06,-0.29 -0.1,-0.43 -0.06,-0.23 -0.14,-0.44 -0.24,-0.64 -0.14,-0.29 -0.31,-0.55 -0.49,-0.78 -0.36,-0.43 -0.78,-0.71 -1.26,-0.85 -0.21,-0.06 -0.44,-0.09 -0.67,-0.09l-1.78 0c-1.03,0 -1.9,0.61 -2.42,1.72 -0.15,0.33 -0.27,0.69 -0.34,1.07l-0.13 0.72c-0,0.01 -0,0.02 -0.01,0.02 -0.11,0.38 -0.04,0.78 0.18,1.08 0.19,0.25 0.46,0.39 0.78,0.41l0 -2.56c0,-0.42 0.34,-0.76 0.76,-0.76l3.95 0c0.42,0 0.76,0.34 0.76,0.76l0 2.56 0 0z"/>
   <path class="fil0" d="M6.58 20.29c-0.14,0 -0.26,-0.11 -0.26,-0.26 0,-0.14 0.11,-0.26 0.26,-0.26 0.14,0 0.25,-0.11 0.25,-0.25l0 -3.56c0,-0.14 -0.11,-0.25 -0.25,-0.25l-3.95 0c-0.14,0 -0.25,0.11 -0.25,0.25l0 3.56c0,0.14 0.11,0.25 0.25,0.25 0.14,0 0.26,0.11 0.26,0.26 0,0.14 -0.11,0.26 -0.26,0.26 -0.42,0 -0.76,-0.34 -0.76,-0.76l0 -3.56c0,-0.42 0.34,-0.76 0.76,-0.76l3.95 0c0.42,0 0.76,0.34 0.76,0.76l0 3.56c0,0.42 -0.34,0.76 -0.76,0.76z"/>
   <path class="fil0" d="M9.13 19.04l-1.68 0c-0.14,0 -0.26,-0.11 -0.26,-0.26 0,-0.14 0.11,-0.26 0.26,-0.26l1.68 0c0.14,0 0.26,0.11 0.26,0.26 0,0.14 -0.11,0.26 -0.26,0.26l0 0z"/>
   <path class="fil0" d="M2.12 19.04l-1.86 0c-0.14,0 -0.26,-0.11 -0.26,-0.26 0,-0.14 0.11,-0.26 0.26,-0.26l1.86 0c0.14,0 0.26,0.11 0.26,0.26 0,0.14 -0.11,0.26 -0.26,0.26l0 0z"/>
   <path class="fil0" d="M14.59 12.77c-0.42,0 -0.82,-0.14 -1.16,-0.4 -0.45,-0.36 -0.71,-0.89 -0.71,-1.47 0,-0.05 0,-0.1 0.01,-0.15 0.08,-0.96 0.9,-1.72 1.86,-1.72 0.97,0 1.77,0.73 1.86,1.69 0.01,0.06 0.01,0.12 0.01,0.18 0,0.59 -0.27,1.13 -0.74,1.49 -0.33,0.25 -0.72,0.38 -1.13,0.38l0 0zm0 -3.23c-0.7,0 -1.3,0.55 -1.35,1.25 -0,0.04 -0,0.07 -0,0.11 0,0.42 0.19,0.81 0.52,1.07 0.24,0.19 0.53,0.29 0.84,0.29 0.3,0 0.58,-0.09 0.82,-0.27 0.34,-0.26 0.54,-0.65 0.54,-1.08 0,-0.04 -0,-0.09 -0.01,-0.13 -0.07,-0.7 -0.65,-1.23 -1.35,-1.23l0 0z"/>
   <path class="fil0" d="M17.35 19.04l-0.37 0c-0.14,0 -0.26,-0.11 -0.26,-0.26l0 -2.82c0,-0.05 -0.01,-0.1 -0.04,-0.14 -0.01,-0.02 -0.02,-0.03 -0.04,-0.04 -0.05,-0.04 -0.11,-0.07 -0.17,-0.07l-3.95 0c-0.07,0 -0.13,0.03 -0.18,0.07 -0.01,0.01 -0.02,0.02 -0.03,0.03 -0.03,0.05 -0.05,0.1 -0.05,0.15l0 2.82c0,0.14 -0.11,0.26 -0.26,0.26l-0.19 0c-0.5,0 -0.96,-0.22 -1.25,-0.61 -0.32,-0.42 -0.42,-0.98 -0.27,-1.51l0.13 -0.71c0.03,-0.16 0.07,-0.32 0.11,-0.48 0.07,-0.25 0.16,-0.5 0.27,-0.72 0.32,-0.67 0.77,-1.2 1.3,-1.54 0.48,-0.31 1.01,-0.46 1.59,-0.46l1.78 0c0.49,0 0.96,0.12 1.38,0.34 0.62,0.33 1.14,0.91 1.5,1.67 0.11,0.23 0.2,0.47 0.27,0.72 0.04,0.15 0.08,0.31 0.11,0.47l0.13 0.71c0.15,0.53 0.04,1.1 -0.27,1.51 -0.3,0.39 -0.75,0.61 -1.25,0.61zm-0.11 -0.51l0.11 0c0.34,0 0.65,-0.15 0.85,-0.41 0.22,-0.29 0.29,-0.69 0.18,-1.08 -0,-0.01 -0,-0.02 -0.01,-0.02l-0.13 -0.72c-0.03,-0.15 -0.06,-0.29 -0.1,-0.43 -0.06,-0.23 -0.14,-0.44 -0.24,-0.64 -0.31,-0.66 -0.76,-1.15 -1.28,-1.44 -0.35,-0.19 -0.73,-0.28 -1.14,-0.28l-1.78 0c-0.48,0 -0.92,0.13 -1.31,0.38 -0.45,0.29 -0.83,0.75 -1.11,1.34 -0.1,0.2 -0.18,0.42 -0.24,0.64 -0.04,0.14 -0.07,0.28 -0.1,0.43l-0.13 0.72c-0,0.01 -0,0.02 -0.01,0.02 -0.11,0.38 -0.04,0.78 0.18,1.08 0.19,0.25 0.46,0.39 0.78,0.41l0 -2.56c0,-0.16 0.05,-0.31 0.14,-0.44 0.02,-0.03 0.05,-0.06 0.08,-0.09 0.14,-0.14 0.34,-0.22 0.54,-0.22l3.95 0c0.19,0 0.38,0.07 0.52,0.2 0.04,0.04 0.08,0.09 0.12,0.14 0.08,0.13 0.13,0.27 0.13,0.42l0 2.56 0 0z"/>
   <path class="fil0" d="M16.47 20.29c-0.14,0 -0.26,-0.11 -0.26,-0.26 0,-0.14 0.11,-0.26 0.26,-0.26 0.14,0 0.25,-0.11 0.25,-0.25l0 -3.56c0,-0.05 -0.01,-0.1 -0.04,-0.14 -0.01,-0.02 -0.02,-0.03 -0.04,-0.04 -0.05,-0.04 -0.11,-0.07 -0.17,-0.07l-3.95 0c-0.07,0 -0.13,0.03 -0.18,0.07 -0.01,0.01 -0.02,0.02 -0.03,0.03 -0.03,0.05 -0.05,0.1 -0.05,0.15l0 3.56c0,0.14 0.11,0.25 0.25,0.25 0.14,0 0.26,0.11 0.26,0.26 0,0.14 -0.11,0.26 -0.26,0.26 -0.42,0 -0.76,-0.34 -0.76,-0.76l0 -3.56c0,-0.16 0.05,-0.31 0.14,-0.44 0.02,-0.03 0.05,-0.06 0.08,-0.09 0.14,-0.14 0.34,-0.22 0.54,-0.22l3.95 0c0.19,0 0.38,0.07 0.52,0.2 0.04,0.04 0.08,0.09 0.12,0.14 0.08,0.13 0.13,0.27 0.13,0.42l0 3.56c0,0.42 -0.34,0.76 -0.76,0.76l0 0z"/>
   <path class="fil0" d="M19.03 19.04l-1.68 0c-0.14,0 -0.26,-0.11 -0.26,-0.26 0,-0.14 0.11,-0.26 0.26,-0.26l1.68 0c0.14,0 0.26,0.11 0.26,0.26 0,0.14 -0.11,0.26 -0.26,0.26z"/>
   <path class="fil0" d="M11.83 19.04l-1.68 0c-0.14,0 -0.26,-0.11 -0.26,-0.26 0,-0.14 0.11,-0.26 0.26,-0.26l1.68 0c0.14,0 0.26,0.11 0.26,0.26 0,0.14 -0.11,0.26 -0.26,0.26z"/>
   <path class="fil0" d="M24.48 12.77c-1.03,0 -1.87,-0.84 -1.87,-1.87 0,-1.03 0.84,-1.87 1.87,-1.87 1.03,0 1.87,0.84 1.87,1.87 0,1.03 -0.84,1.87 -1.87,1.87zm0 -3.23c-0.75,0 -1.36,0.61 -1.36,1.36 0,0.75 0.61,1.36 1.36,1.36 0.75,0 1.36,-0.61 1.36,-1.36 0,-0.75 -0.61,-1.36 -1.36,-1.36l0 0z"/>
   <path class="fil0" d="M26.37 20.29c-0.14,0 -0.26,-0.11 -0.26,-0.26 0,-0.14 0.11,-0.26 0.26,-0.26 0.14,0 0.25,-0.11 0.25,-0.25l0 -3.56c0,-0.14 -0.11,-0.25 -0.25,-0.25l-3.95 0c-0.14,0 -0.25,0.11 -0.25,0.25l0 3.56c0,0.14 0.11,0.25 0.25,0.25 0.14,0 0.26,0.11 0.26,0.26 0,0.14 -0.11,0.26 -0.26,0.26 -0.42,0 -0.76,-0.34 -0.76,-0.76l0 -3.56c0,-0.42 0.34,-0.76 0.76,-0.76l3.95 0c0.42,0 0.76,0.34 0.76,0.76l0 3.56c0,0.42 -0.34,0.76 -0.76,0.76z"/>
   <path class="fil0" d="M28.92 19.04l-1.68 0c-0.14,0 -0.26,-0.11 -0.26,-0.26 0,-0.14 0.11,-0.26 0.26,-0.26l1.68 0c0.14,0 0.26,0.11 0.26,0.26 0,0.14 -0.11,0.26 -0.26,0.26z"/>
   <path class="fil0" d="M21.72 19.04l-1.68 0c-0.14,0 -0.26,-0.11 -0.26,-0.26 0,-0.14 0.11,-0.26 0.26,-0.26l1.68 0c0.14,0 0.26,0.11 0.26,0.26 0,0.14 -0.11,0.26 -0.26,0.26z"/>
   <path class="fil0" d="M10.06 8.64c-0.95,0 -1.73,-0.77 -1.73,-1.73 0,-0.95 0.78,-1.73 1.73,-1.73 0.95,0 1.73,0.77 1.73,1.73 0,0.95 -0.78,1.73 -1.73,1.73l0 0zm0 -2.94c-0.67,0 -1.22,0.55 -1.22,1.22 0,0.67 0.55,1.22 1.22,1.22 0.67,0 1.22,-0.55 1.22,-1.22 0,-0.67 -0.55,-1.22 -1.22,-1.22z"/>
   <path class="fil0" d="M7.09 10.56c-0.05,0 -0.1,-0.01 -0.14,-0.04 -0.12,-0.08 -0.15,-0.24 -0.07,-0.35 0.58,-0.87 1.42,-1.35 2.38,-1.35l1.63 0c0.52,0 0.99,0.13 1.42,0.4 0.12,0.07 0.16,0.23 0.08,0.35 -0.07,0.12 -0.23,0.16 -0.35,0.08 -0.34,-0.21 -0.73,-0.32 -1.15,-0.32l-1.63 0c-1,0 -1.61,0.61 -1.95,1.12 -0.05,0.07 -0.13,0.11 -0.21,0.11l0 0z"/>
   <path class="fil0" d="M12.11 15.93c-0.06,0 -0.12,-0.02 -0.16,-0.06 -0.1,-0.09 -0.12,-0.23 -0.05,-0.34 0.02,-0.03 0.05,-0.07 0.08,-0.1 0.09,-0.09 0.24,-0.1 0.35,-0.01 0.1,0.09 0.12,0.24 0.04,0.34 -0.02,0.03 -0.05,0.06 -0.08,0.09 -0.05,0.05 -0.12,0.08 -0.18,0.08l0 0z"/>
   <path class="fil0" d="M10.79 16.06l-1.18 0c-0.14,0 -0.26,-0.11 -0.26,-0.26 0,-0.14 0.11,-0.26 0.26,-0.26l1.18 0c0.14,0 0.26,0.11 0.26,0.26 0,0.14 -0.11,0.26 -0.26,0.26z"/>
   <path class="fil0" d="M12.25 13.39c-0.14,0 -0.26,-0.11 -0.26,-0.26l0 -1.59c0,-0.12 -0.09,-0.21 -0.21,-0.21l-3.61 0c-0.12,0 -0.21,0.09 -0.21,0.21l0 1.04c0,0.14 -0.11,0.26 -0.26,0.26 -0.14,0 -0.26,-0.11 -0.26,-0.26l0 -1.04c0,-0.4 0.32,-0.72 0.72,-0.72l3.61 0c0.4,0 0.72,0.32 0.72,0.72l0 1.59c0,0.14 -0.11,0.26 -0.26,0.26l0 0z"/>
   <path class="fil0" d="M19.09 8.64c-0.95,0 -1.73,-0.77 -1.73,-1.73 0,-0.95 0.78,-1.73 1.73,-1.73 0.95,0 1.73,0.77 1.73,1.73 0,0.95 -0.78,1.73 -1.73,1.73zm0 -2.94c-0.67,0 -1.22,0.55 -1.22,1.22 0,0.67 0.55,1.22 1.22,1.22 0.67,0 1.22,-0.55 1.22,-1.22 0,-0.67 -0.55,-1.22 -1.22,-1.22z"/>
   <path class="fil0" d="M27.24 19.04l-0.37 0c-0.14,0 -0.26,-0.11 -0.26,-0.26l0 -2.82c0,-0.14 -0.11,-0.25 -0.25,-0.25l-3.95 0c-0.14,0 -0.25,0.11 -0.25,0.25l0 2.82c0,0.14 -0.11,0.26 -0.26,0.26l-0.19 0c-0.5,0 -0.96,-0.22 -1.25,-0.61 -0.32,-0.42 -0.42,-0.98 -0.27,-1.51l0.13 -0.71c0.03,-0.16 0.07,-0.32 0.11,-0.48 0.07,-0.25 0.16,-0.5 0.27,-0.72 0.11,-0.22 0.23,-0.43 0.36,-0.62 0.44,-0.64 1.03,-1.08 1.69,-1.27 0.26,-0.08 0.54,-0.12 0.83,-0.12l1.78 0c1.24,0 2.27,0.71 2.88,2.01 0.17,0.37 0.3,0.77 0.38,1.2l0.13 0.71c0.15,0.53 0.04,1.1 -0.27,1.51 -0.3,0.39 -0.75,0.61 -1.25,0.61l0 0zm-0.11 -0.51l0.11 0c0.34,0 0.65,-0.15 0.85,-0.41 0.22,-0.29 0.29,-0.69 0.18,-1.08 -0,-0.01 -0,-0.02 -0.01,-0.02l-0.13 -0.72c-0.07,-0.39 -0.19,-0.75 -0.34,-1.07 -0.53,-1.11 -1.39,-1.72 -2.42,-1.72l-1.78 0c-0.24,0 -0.47,0.03 -0.69,0.1 -0.56,0.16 -1.03,0.52 -1.42,1.07 -0.12,0.17 -0.23,0.35 -0.32,0.55 -0.1,0.2 -0.18,0.42 -0.24,0.64 -0.04,0.14 -0.07,0.28 -0.1,0.43l-0.13 0.72c-0,0.01 -0,0.02 -0.01,0.02 -0.11,0.38 -0.04,0.78 0.18,1.08 0.19,0.25 0.46,0.39 0.78,0.41l0 -2.56c0,-0.42 0.34,-0.76 0.76,-0.76l3.95 0c0.42,0 0.76,0.34 0.76,0.76l0 2.56 0 0z"/>
   <path class="fil0" d="M22.15 10.7c-0.09,0 -0.17,-0.04 -0.22,-0.12 -0.08,-0.14 -0.18,-0.27 -0.27,-0.39 -0.46,-0.56 -1.07,-0.86 -1.76,-0.86l-1.63 0c-0.42,0 -0.81,0.11 -1.16,0.33 -0.12,0.08 -0.28,0.04 -0.35,-0.08 -0.08,-0.12 -0.04,-0.28 0.08,-0.35 0.43,-0.27 0.91,-0.41 1.43,-0.41l1.63 0c0.84,0 1.59,0.36 2.15,1.05 0.11,0.14 0.22,0.29 0.32,0.45 0.07,0.12 0.03,0.28 -0.09,0.35 -0.04,0.02 -0.09,0.04 -0.13,0.04l0 0z"/>
   <path class="fil0" d="M16.89 15.94c-0.06,0 -0.12,-0.02 -0.17,-0.06 -0.05,-0.04 -0.09,-0.09 -0.12,-0.14 -0.07,-0.11 -0.05,-0.25 0.05,-0.33 0.1,-0.08 0.24,-0.08 0.34,0.01 0.04,0.04 0.08,0.09 0.12,0.14 0.07,0.11 0.05,0.25 -0.04,0.33 -0.05,0.04 -0.11,0.06 -0.17,0.06l0 0z"/>
   <path class="fil0" d="M19.57 16.06l-1.18 0c-0.14,0 -0.26,-0.11 -0.26,-0.26 0,-0.14 0.11,-0.26 0.26,-0.26l1.18 0c0.14,0 0.26,0.11 0.26,0.26 0,0.14 -0.11,0.26 -0.26,0.26z"/>
   <path class="fil0" d="M16.89 13.28c-0.14,0 -0.26,-0.11 -0.26,-0.26l0 -1.48c0,-0.4 0.32,-0.72 0.72,-0.72l3.61 0c0.4,0 0.72,0.32 0.72,0.72l0 1.29c0,0.14 -0.11,0.26 -0.26,0.26 -0.14,0 -0.26,-0.11 -0.26,-0.26l0 -1.29c0,-0.11 -0.1,-0.21 -0.21,-0.21l-3.61 0c-0.12,0 -0.21,0.09 -0.21,0.21l0 1.48c0,0.14 -0.11,0.26 -0.26,0.26l0 0z"/>
   <path class="fil0" d="M4.51 8.63c-0.14,0 -0.26,-0.11 -0.26,-0.26l0 -8.12c0,-0.14 0.11,-0.26 0.26,-0.26l19.97 0c0.14,0 0.26,0.11 0.26,0.26l0 8.04c0,0.14 -0.11,0.26 -0.26,0.26 -0.14,0 -0.26,-0.11 -0.26,-0.26l0 -7.79 -19.46 0 0 7.87c0,0.14 -0.11,0.26 -0.26,0.26l0 0z"/>
  </g>
 </g>
</svg>
