<?xml version="1.0" encoding="UTF-8"?>
<!DOCTYPE svg PUBLIC "-//W3C//DTD SVG 1.1//EN" "http://www.w3.org/Graphics/SVG/1.1/DTD/svg11.dtd">
<!-- Creator: CorelDRAW -->
<svg xmlns="http://www.w3.org/2000/svg" xml:space="preserve" width="0.666508in" height="0.499028in" version="1.1" style="shape-rendering:geometricPrecision; text-rendering:geometricPrecision; image-rendering:optimizeQuality; fill-rule:evenodd; clip-rule:evenodd"
viewBox="0 0 19.72 14.76"
 xmlns:xlink="http://www.w3.org/1999/xlink"
 xmlns:xodm="http://www.corel.com/coreldraw/odm/2003">
 <defs>
  <style type="text/css">
   <![CDATA[
    .fil0 {fill:black;fill-rule:nonzero}
   ]]>
  </style>
 </defs>
 <g id="Layer_x0020_1">
  <metadata id="CorelCorpID_0Corel-Layer"/>
  <g id="_2876145082400">
   <path class="fil0" d="M18.47 2.18l-10.93 0 0 -1.81c0,-0.1 -0.04,-0.19 -0.11,-0.27 -0.07,-0.07 -0.16,-0.11 -0.27,-0.11l-6.78 0c-0.1,0 -0.19,0.04 -0.27,0.11 -0.07,0.07 -0.11,0.16 -0.11,0.27l0 14.01c0,0.1 0.04,0.19 0.11,0.27 0.07,0.07 0.16,0.11 0.27,0.11l6.78 0c0.1,0 0.19,-0.04 0.27,-0.11 0.07,-0.07 0.11,-0.16 0.11,-0.27l0 -2.65 3.84 0c-0.06,0.41 -0.17,0.81 -0.35,1.18 -0.11,0.03 -0.21,0.08 -0.31,0.14 -0.1,0.06 -0.18,0.14 -0.25,0.23 -0.07,0.09 -0.12,0.19 -0.16,0.3 -0.04,0.11 -0.06,0.22 -0.06,0.34l0 0.45c0,0.1 0.04,0.19 0.11,0.27 0.07,0.07 0.16,0.11 0.27,0.11l3.58 0c0.1,0 0.19,-0.04 0.27,-0.11 0.07,-0.07 0.11,-0.16 0.11,-0.27l0 -0.45c-0,-0.12 -0.02,-0.23 -0.06,-0.34 -0.04,-0.11 -0.09,-0.21 -0.16,-0.3 -0.07,-0.09 -0.15,-0.17 -0.25,-0.23 -0.1,-0.06 -0.2,-0.11 -0.31,-0.14 -0.18,-0.38 -0.29,-0.77 -0.35,-1.18l5.01 0c0.17,-0 0.32,-0.03 0.48,-0.1 0.15,-0.06 0.29,-0.15 0.4,-0.27 0.12,-0.12 0.21,-0.25 0.27,-0.4 0.06,-0.15 0.1,-0.31 0.1,-0.48l0 -7.06c-0,-0.17 -0.03,-0.32 -0.1,-0.48 -0.06,-0.15 -0.15,-0.29 -0.27,-0.4 -0.12,-0.12 -0.25,-0.21 -0.4,-0.27 -0.15,-0.06 -0.31,-0.09 -0.48,-0.09zm0 0.75c0.07,0 0.13,0.01 0.19,0.04 0.06,0.03 0.11,0.06 0.16,0.11 0.05,0.05 0.08,0.1 0.11,0.16 0.03,0.06 0.04,0.12 0.04,0.19l0 5.72 -11.43 0 0 -6.21 10.93 0zm-11.68 11.07l-6.03 0 0 -13.26 6.03 0 0 13.26zm7.05 0l-2.83 0 0 -0.08c0,-0.08 0.03,-0.15 0.09,-0.21 0.06,-0.06 0.13,-0.09 0.21,-0.09l2.23 0c0.08,0 0.15,0.03 0.21,0.09 0.06,0.06 0.09,0.13 0.09,0.21l0 0.08zm-0.85 -1.13l-1.13 0c0.15,-0.37 0.24,-0.75 0.27,-1.15l0.58 0c0.04,0.39 0.13,0.78 0.27,1.15l0 0zm5.49 -1.9l-10.93 0 0 -1.08 11.43 0 0 0.59c-0,0.07 -0.01,0.13 -0.04,0.19 -0.03,0.06 -0.06,0.11 -0.11,0.16 -0.05,0.05 -0.1,0.08 -0.16,0.11 -0.06,0.02 -0.12,0.04 -0.19,0.04z"/>
   <path class="fil0" d="M12.71 10.03l-0.58 0c-0.1,0 -0.19,0.04 -0.27,0.11 -0.07,0.07 -0.11,0.16 -0.11,0.27 0,0.1 0.04,0.19 0.11,0.27 0.07,0.07 0.16,0.11 0.27,0.11l0.58 0c0.1,0 0.19,-0.04 0.27,-0.11 0.07,-0.07 0.11,-0.16 0.11,-0.27 0,-0.1 -0.04,-0.19 -0.11,-0.27 -0.07,-0.07 -0.16,-0.11 -0.27,-0.11z"/>
   <path class="fil0" d="M3.77 10.3c-0.16,0 -0.31,0.03 -0.46,0.09 -0.15,0.06 -0.28,0.15 -0.39,0.26 -0.11,0.11 -0.2,0.24 -0.26,0.39 -0.06,0.15 -0.09,0.3 -0.09,0.46 0,0.16 0.03,0.31 0.09,0.46 0.06,0.15 0.15,0.28 0.26,0.39 0.11,0.11 0.24,0.2 0.39,0.26 0.15,0.06 0.3,0.09 0.46,0.09 0.16,0 0.31,-0.03 0.46,-0.09 0.15,-0.06 0.28,-0.15 0.39,-0.26 0.11,-0.11 0.2,-0.24 0.26,-0.39 0.06,-0.15 0.09,-0.3 0.09,-0.46 -0,-0.16 -0.03,-0.31 -0.09,-0.46 -0.06,-0.15 -0.15,-0.27 -0.26,-0.39 -0.11,-0.11 -0.24,-0.2 -0.39,-0.26 -0.15,-0.06 -0.3,-0.09 -0.46,-0.09zm0 1.63c-0.06,0 -0.11,-0.01 -0.17,-0.03 -0.05,-0.02 -0.1,-0.05 -0.14,-0.1 -0.04,-0.04 -0.07,-0.09 -0.1,-0.14 -0.02,-0.05 -0.03,-0.11 -0.03,-0.17 0,-0.06 0.01,-0.11 0.03,-0.17 0.02,-0.05 0.05,-0.1 0.1,-0.14 0.04,-0.04 0.09,-0.07 0.14,-0.1 0.05,-0.02 0.11,-0.03 0.17,-0.03 0.06,0 0.11,0.01 0.17,0.03 0.05,0.02 0.1,0.05 0.14,0.1 0.04,0.04 0.07,0.09 0.1,0.14 0.02,0.05 0.03,0.11 0.03,0.17 -0,0.06 -0.01,0.11 -0.03,0.17 -0.02,0.05 -0.05,0.1 -0.1,0.14 -0.04,0.04 -0.09,0.07 -0.14,0.1 -0.05,0.02 -0.11,0.03 -0.17,0.03z"/>
   <path class="fil0" d="M6.03 1.39l-4.52 0c-0.1,0 -0.19,0.04 -0.27,0.11 -0.07,0.07 -0.11,0.16 -0.11,0.27l0 1.62c0,0.1 0.04,0.19 0.11,0.27 0.07,0.07 0.16,0.11 0.27,0.11l4.52 0c0.1,0 0.19,-0.04 0.27,-0.11 0.07,-0.07 0.11,-0.16 0.11,-0.27l0 -1.62c0,-0.1 -0.04,-0.19 -0.11,-0.27 -0.07,-0.07 -0.16,-0.11 -0.27,-0.11zm-0.38 1.62l-3.77 0 0 -0.87 3.77 0 0 0.87z"/>
   <path class="fil0" d="M6.03 5.41l-4.52 0c-0.1,0 -0.19,0.04 -0.27,0.11 -0.07,0.07 -0.11,0.16 -0.11,0.27 0,0.1 0.04,0.19 0.11,0.27 0.07,0.07 0.16,0.11 0.27,0.11l4.52 0c0.1,0 0.19,-0.04 0.27,-0.11 0.07,-0.07 0.11,-0.16 0.11,-0.27 0,-0.1 -0.04,-0.19 -0.11,-0.27 -0.07,-0.07 -0.16,-0.11 -0.27,-0.11l0 0z"/>
  </g>
 </g>
</svg>
