<?xml version="1.0" encoding="UTF-8"?>
<!DOCTYPE svg PUBLIC "-//W3C//DTD SVG 1.1//EN" "http://www.w3.org/Graphics/SVG/1.1/DTD/svg11.dtd">
<!-- Creator: CorelDRAW -->
<svg xmlns="http://www.w3.org/2000/svg" xml:space="preserve" width="0.510295in" height="0.382531in" version="1.1" style="shape-rendering:geometricPrecision; text-rendering:geometricPrecision; image-rendering:optimizeQuality; fill-rule:evenodd; clip-rule:evenodd"
viewBox="0 0 13.1 9.82"
 xmlns:xlink="http://www.w3.org/1999/xlink"
 xmlns:xodm="http://www.corel.com/coreldraw/odm/2003">
 <defs>
  <style type="text/css">
   <![CDATA[
    .fil0 {fill:white;fill-rule:nonzero}
   ]]>
  </style>
 </defs>
 <g id="Layer_x0020_1">
  <metadata id="CorelCorpID_0Corel-Layer"/>
  <g id="_2876148547024">
   <path class="fil0" d="M12.27 1.45l-7.26 0 0 -1.2c0,-0.07 -0.02,-0.13 -0.07,-0.18 -0.05,-0.05 -0.11,-0.07 -0.18,-0.07l-4.51 0c-0.07,0 -0.13,0.02 -0.18,0.07 -0.05,0.05 -0.07,0.11 -0.07,0.18l0 9.32c0,0.07 0.02,0.13 0.07,0.18 0.05,0.05 0.11,0.07 0.18,0.07l4.51 0c0.07,0 0.13,-0.02 0.18,-0.07 0.05,-0.05 0.07,-0.11 0.07,-0.18l0 -1.76 2.55 0c-0.04,0.27 -0.11,0.54 -0.23,0.79 -0.15,0.04 -0.27,0.12 -0.37,0.25 -0.1,0.12 -0.14,0.27 -0.14,0.42l0 0.3c0,0.07 0.02,0.13 0.07,0.18 0.05,0.05 0.11,0.07 0.18,0.07l2.38 0c0.07,0 0.13,-0.02 0.18,-0.07 0.05,-0.05 0.07,-0.11 0.07,-0.18l0 -0.3c-0,-0.16 -0.05,-0.3 -0.14,-0.42 -0.1,-0.12 -0.22,-0.21 -0.37,-0.25 -0.12,-0.25 -0.19,-0.51 -0.23,-0.79l3.33 0c0.11,-0 0.22,-0.02 0.32,-0.06 0.1,-0.04 0.19,-0.1 0.27,-0.18 0.08,-0.08 0.14,-0.17 0.18,-0.27 0.04,-0.1 0.06,-0.21 0.06,-0.32l0 -4.69c-0,-0.11 -0.02,-0.22 -0.06,-0.32 -0.04,-0.1 -0.1,-0.19 -0.18,-0.27 -0.08,-0.08 -0.17,-0.14 -0.27,-0.18 -0.1,-0.04 -0.21,-0.06 -0.32,-0.06zm0 0.5c0.09,0 0.17,0.03 0.23,0.1 0.06,0.06 0.1,0.14 0.1,0.23l0 3.8 -7.59 0 0 -4.13 7.26 0zm-7.76 7.36l-4.01 0 0 -8.82 4.01 0 0 8.82zm4.68 0l-1.88 0 0 -0.05c0,-0.05 0.02,-0.1 0.06,-0.14 0.04,-0.04 0.09,-0.06 0.14,-0.06l1.48 0c0.05,0 0.1,0.02 0.14,0.06 0.04,0.04 0.06,0.09 0.06,0.14l0 0.05zm-0.56 -0.75l-0.75 0c0.1,-0.25 0.16,-0.5 0.18,-0.76l0.38 0c0.03,0.26 0.09,0.52 0.18,0.76l0 0zm3.64 -1.26l-7.26 0 0 -0.72 7.59 0 0 0.39c-0,0.09 -0.03,0.17 -0.1,0.23 -0.06,0.06 -0.14,0.1 -0.23,0.1z"/>
   <path class="fil0" d="M8.44 6.67l-0.39 0c-0.07,0 -0.13,0.02 -0.18,0.07 -0.05,0.05 -0.07,0.11 -0.07,0.18 0,0.07 0.02,0.13 0.07,0.18 0.05,0.05 0.11,0.07 0.18,0.07l0.39 0c0.07,0 0.13,-0.02 0.18,-0.07 0.05,-0.05 0.07,-0.11 0.07,-0.18 0,-0.07 -0.02,-0.13 -0.07,-0.18 -0.05,-0.05 -0.11,-0.07 -0.18,-0.07z"/>
   <path class="fil0" d="M2.5 6.85c-0.11,0 -0.21,0.02 -0.3,0.06 -0.1,0.04 -0.18,0.1 -0.26,0.17 -0.07,0.07 -0.13,0.16 -0.17,0.26 -0.04,0.1 -0.06,0.2 -0.06,0.3 0,0.11 0.02,0.21 0.06,0.3 0.04,0.1 0.1,0.18 0.17,0.26 0.07,0.07 0.16,0.13 0.26,0.17 0.1,0.04 0.2,0.06 0.3,0.06 0.11,0 0.21,-0.02 0.3,-0.06 0.1,-0.04 0.18,-0.1 0.26,-0.17 0.07,-0.07 0.13,-0.16 0.17,-0.26 0.04,-0.1 0.06,-0.2 0.06,-0.3 -0,-0.11 -0.02,-0.21 -0.06,-0.3 -0.04,-0.1 -0.1,-0.18 -0.17,-0.26 -0.07,-0.07 -0.16,-0.13 -0.26,-0.17 -0.1,-0.04 -0.2,-0.06 -0.3,-0.06zm0 1.09c-0.08,0 -0.15,-0.03 -0.21,-0.09 -0.06,-0.06 -0.09,-0.13 -0.09,-0.21 0,-0.08 0.03,-0.15 0.09,-0.21 0.06,-0.06 0.13,-0.09 0.21,-0.09 0.08,0 0.15,0.03 0.21,0.09 0.06,0.06 0.09,0.13 0.09,0.21 -0,0.08 -0.03,0.15 -0.09,0.21 -0.06,0.06 -0.13,0.09 -0.21,0.09z"/>
   <path class="fil0" d="M4.01 0.92l-3 0c-0.07,0 -0.13,0.02 -0.18,0.07 -0.05,0.05 -0.07,0.11 -0.07,0.18l0 1.08c0,0.07 0.02,0.13 0.07,0.18 0.05,0.05 0.11,0.07 0.18,0.07l3 0c0.07,0 0.13,-0.02 0.18,-0.07 0.05,-0.05 0.07,-0.11 0.07,-0.18l0 -1.08c0,-0.07 -0.02,-0.13 -0.07,-0.18 -0.05,-0.05 -0.11,-0.07 -0.18,-0.07zm-0.25 1.08l-2.5 0 0 -0.58 2.5 0 0 0.58z"/>
   <path class="fil0" d="M4.01 3.6l-3 0c-0.07,0 -0.13,0.02 -0.18,0.07 -0.05,0.05 -0.07,0.11 -0.07,0.18 0,0.07 0.02,0.13 0.07,0.18 0.05,0.05 0.11,0.07 0.18,0.07l3 0c0.07,0 0.13,-0.02 0.18,-0.07 0.05,-0.05 0.07,-0.11 0.07,-0.18 0,-0.07 -0.02,-0.13 -0.07,-0.18 -0.05,-0.05 -0.11,-0.07 -0.18,-0.07l0 0z"/>
  </g>
 </g>
</svg>
