<?xml version="1.0" encoding="UTF-8"?>
<!DOCTYPE svg PUBLIC "-//W3C//DTD SVG 1.1//EN" "http://www.w3.org/Graphics/SVG/1.1/DTD/svg11.dtd">
<!-- Creator: CorelDRAW -->
<svg xmlns="http://www.w3.org/2000/svg" xml:space="preserve" width="2.12791in" height="0.150075in" version="1.1" style="shape-rendering:geometricPrecision; text-rendering:geometricPrecision; image-rendering:optimizeQuality; fill-rule:evenodd; clip-rule:evenodd"
viewBox="0 0 867.01 61.15"
 xmlns:xlink="http://www.w3.org/1999/xlink"
 xmlns:xodm="http://www.corel.com/coreldraw/odm/2003">
 <defs>
  <style type="text/css">
   <![CDATA[
    .fil0 {fill:black;fill-rule:nonzero}
   ]]>
  </style>
 </defs>
 <g id="Layer_x0020_1">
  <metadata id="CorelCorpID_0Corel-Layer"/>
  <path class="fil0" d="M813.91 13.66c-23.76,8.55 -81,6.16 -110.48,6.5 -39.72,0.51 -79.26,-0.17 -118.98,0.68 -76.31,1.71 -152.46,3.42 -228.77,5.13l-118.81 2.22c-39.72,0.86 -79.26,1.54 -118.81,2.74 -17.34,0.51 -34.69,1.03 -52.03,1.88l-13.01 0.51 -11.62 0.51c-4.16,0.17 -8.67,0.34 -13.53,1.03 -1.56,0.17 -3.47,0.68 -4.86,1.54 -0.69,0.51 -1.21,1.37 -1.21,2.22 0.17,1.03 1.04,1.71 1.73,2.22 6.07,3.93 14.22,5.82 21.33,7.53 18.21,4.28 36.6,7.87 55.15,10.95 -14.57,3.59 -33.82,1.2 -51.34,-1.88l-5.2 -1.03 -2.6 -0.51 -2.95 -0.51c-4.68,-1.03 -9.37,-2.05 -13.88,-3.25 -4.51,-1.2 -8.67,-2.74 -12.14,-4.28 -3.47,-1.54 -6.24,-3.25 -8.67,-5.3 -8.85,-7.7 2.43,-14.37 9.71,-15.91 21.33,-4.79 43.36,-5.13 64.87,-6.33 14.05,-0.68 28.1,-1.37 42.15,-2.05 56.2,-2.4 112.39,-3.94 168.58,-5.48 112.22,-2.57 224.61,-4.45 336.82,-5.65 54.81,-0.51 141.01,-11.98 188.53,6.5zm50.82 -7.87c-6.24,-5.99 -24.45,-8.21 -35.38,-2.39 -25.5,14.03 11.62,27.21 28.96,17.11 9.71,-5.82 10.41,-10.95 6.42,-14.71z"/>
 </g>
</svg>
