<?xml version="1.0" encoding="UTF-8"?>
<!DOCTYPE svg PUBLIC "-//W3C//DTD SVG 1.1//EN" "http://www.w3.org/Graphics/SVG/1.1/DTD/svg11.dtd">
<!-- Creator: CorelDRAW -->
<svg xmlns="http://www.w3.org/2000/svg" xml:space="preserve" width="1.86116in" height="2.21383in" version="1.1" style="shape-rendering:geometricPrecision; text-rendering:geometricPrecision; image-rendering:optimizeQuality; fill-rule:evenodd; clip-rule:evenodd"
viewBox="0 0 1793.42 2133.26"
 xmlns:xlink="http://www.w3.org/1999/xlink"
 xmlns:xodm="http://www.corel.com/coreldraw/odm/2003">
 <defs>
  <style type="text/css">
   <![CDATA[
    .fil1 {fill:black;fill-rule:nonzero}
    .fil0 {fill:#00BF63;fill-rule:nonzero}
    .fil2 {fill:#F70000;fill-rule:nonzero}
   ]]>
  </style>
 </defs>
 <g id="Layer_x0020_1">
  <metadata id="CorelCorpID_0Corel-Layer"/>
  <path class="fil0" d="M396.6 35.4c0,4.7 -0.9,9.21 -2.69,13.55 -1.8,4.34 -4.36,8.17 -7.67,11.48 -3.32,3.32 -7.15,5.88 -11.48,7.67 -4.34,1.8 -8.85,2.7 -13.55,2.7 -4.7,0 -9.21,-0.9 -13.55,-2.7 -4.34,-1.79 -8.16,-4.36 -11.48,-7.67 -3.32,-3.32 -5.88,-7.15 -7.67,-11.48 -1.8,-4.34 -2.69,-8.85 -2.69,-13.55 0,-4.69 0.9,-9.21 2.69,-13.55 1.79,-4.34 4.36,-8.16 7.67,-11.48 3.32,-3.32 7.15,-5.88 11.48,-7.67 4.34,-1.79 8.85,-2.69 13.55,-2.69 4.69,0 9.21,0.9 13.55,2.69 4.34,1.8 8.16,4.36 11.48,7.67 3.32,3.32 5.88,7.15 7.67,11.48 1.79,4.34 2.69,8.85 2.69,13.55z"/>
  <path class="fil1" d="M434.42 61.01l0 -3.04c0,-0.32 0.1,-0.61 0.29,-0.86 0.2,-0.25 0.44,-0.41 0.74,-0.48l4.04 -0.8 0 -40.41c-2.28,-0.42 -3.63,-0.67 -4.04,-0.76 -0.3,-0.07 -0.55,-0.23 -0.74,-0.48 -0.19,-0.25 -0.29,-0.54 -0.29,-0.86l0 -2.97 5.08 0 6.81 0 5.08 0 0 2.97c0,0.32 -0.1,0.61 -0.31,0.86 -0.21,0.25 -0.46,0.41 -0.76,0.48 -0.28,0.07 -1,0.21 -2.16,0.43 -1.16,0.22 -1.78,0.33 -1.85,0.33l0 39.79 18.25 0c0.16,-2.21 0.3,-3.56 0.41,-4.04 0.07,-0.35 0.25,-0.63 0.54,-0.85 0.28,-0.22 0.6,-0.33 0.95,-0.33l3.49 0 0 11.03 -1.7 0 -0.59 0 -28.18 0 -5.08 0zm40.1 0l0 -3.04c0,-0.32 0.1,-0.61 0.31,-0.86 0.21,-0.25 0.46,-0.41 0.76,-0.48l4.11 -0.8 0 -25.55c-2.33,-0.41 -3.7,-0.67 -4.11,-0.76 -0.3,-0.07 -0.55,-0.23 -0.76,-0.49 -0.21,-0.25 -0.31,-0.54 -0.31,-0.86l0 -2.97 11.41 0 0 30.63c2.28,0.44 3.63,0.7 4.04,0.8 0.3,0.07 0.55,0.23 0.76,0.48 0.2,0.25 0.31,0.54 0.31,0.86l0 3.04 -16.53 0zm3.84 -47.08c0,-0.71 0.12,-1.3 0.35,-1.76 0.32,-0.64 0.66,-1.14 1,-1.49 0.39,-0.39 0.86,-0.72 1.42,-1 0.46,-0.23 1.02,-0.35 1.69,-0.35 0.67,0 1.23,0.11 1.7,0.35 0.55,0.28 1.02,0.61 1.42,1 0.35,0.35 0.68,0.84 1.01,1.49 0.27,0.55 0.41,1.14 0.41,1.76 0,0.58 -0.14,1.14 -0.42,1.69 -0.27,0.55 -0.61,1.03 -1,1.42 -0.39,0.39 -0.86,0.72 -1.42,1 -0.46,0.23 -1.03,0.35 -1.7,0.35 -0.67,0 -1.23,-0.11 -1.69,-0.35 -0.55,-0.28 -1.03,-0.61 -1.42,-1 -0.39,-0.39 -0.72,-0.86 -1,-1.42 -0.23,-0.46 -0.35,-1.02 -0.35,-1.69zm15.35 15.14l0 -2.45 5.88 -0.8 1.42 -11.1c0,-0.37 0.14,-0.66 0.41,-0.86 0.25,-0.18 0.59,-0.27 1,-0.27l3.18 0 0 12.31 10.27 0 0 4.6 -10.27 0 0 21.54c0,1.57 0.35,2.7 1.04,3.39 0.71,0.71 1.68,1.07 2.91,1.07 0.55,0 1.15,-0.09 1.79,-0.28 0.35,-0.09 0.76,-0.29 1.24,-0.59 0.09,-0.05 0.24,-0.14 0.43,-0.28 0.2,-0.14 0.34,-0.23 0.43,-0.27 0.37,-0.19 0.6,-0.28 0.69,-0.28 0.32,0 0.61,0.18 0.86,0.55l1.83 2.97c-1.29,1.13 -2.6,1.93 -3.94,2.42 -1.57,0.55 -3.16,0.83 -4.77,0.83 -2.74,0 -4.91,-0.8 -6.5,-2.39 -1.52,-1.52 -2.28,-3.79 -2.28,-6.81l0 -21.95 -4.29 0c-0.41,0 -0.75,-0.09 -1,-0.28 -0.23,-0.16 -0.35,-0.52 -0.35,-1.07zm26.17 13.24c0,-2.47 0.4,-4.77 1.21,-6.91 0.88,-2.31 1.98,-4.2 3.32,-5.67 1.43,-1.57 3.21,-2.82 5.33,-3.77 2.03,-0.9 4.36,-1.35 6.98,-1.35l-0.14 0c2.08,0 4.06,0.36 5.94,1.07 1.84,0.69 3.4,1.71 4.67,3.04 1.45,1.54 2.5,3.22 3.14,5.05 0.74,2.1 1.1,4.36 1.1,6.78 0,1.06 -0.09,1.72 -0.28,1.97 -0.25,0.35 -0.68,0.52 -1.28,0.52l-23.78 0c0,2.19 0.29,4.17 0.86,5.95 0.48,1.48 1.28,2.85 2.38,4.11 1.02,1.15 2.2,2 3.56,2.52 1.48,0.58 2.99,0.86 4.53,0.86 1.68,0 3.05,-0.16 4.11,-0.48 0.81,-0.25 1.8,-0.66 2.97,-1.21 0.81,-0.39 1.51,-0.77 2.11,-1.14 0.6,-0.37 1.07,-0.55 1.42,-0.55 0.53,0 0.93,0.21 1.21,0.62l1.76 2.35c-0.67,0.85 -1.61,1.65 -2.83,2.39 -1.52,0.92 -2.67,1.51 -3.46,1.76 -1.57,0.51 -2.85,0.84 -3.84,1.01 -1.43,0.23 -2.72,0.35 -3.87,0.35 -2.56,0 -4.85,-0.42 -6.88,-1.24 -2.03,-0.83 -3.85,-2.09 -5.46,-3.77 -1.48,-1.52 -2.65,-3.52 -3.52,-6.01 -0.85,-2.4 -1.28,-5.14 -1.28,-8.23zm6.5 -3.11l19.5 0c0,-1.36 -0.22,-2.67 -0.66,-3.94 -0.51,-1.45 -1.07,-2.52 -1.69,-3.21 -0.81,-0.88 -1.78,-1.56 -2.91,-2.04 -1.13,-0.48 -2.43,-0.72 -3.91,-0.72l0.07 -0.07c-3.07,0 -5.44,0.87 -7.12,2.63 -1.77,1.84 -2.87,4.3 -3.28,7.36zm29.31 21.81l0 -2.97c0,-0.76 0.35,-1.21 1.04,-1.35l4.04 -0.76 0 -25.58c-2.28,-0.41 -3.63,-0.69 -4.04,-0.83 -0.69,-0.14 -1.04,-0.59 -1.04,-1.35l0 -2.97 5.08 0 3.63 0c0.64,0 1.09,0.12 1.32,0.35 0.25,0.25 0.45,0.7 0.58,1.35l0.42 5.6 0.07 0c2.63,-5.35 6.27,-8.02 10.92,-8.02 1.84,0 3.47,0.42 4.87,1.28l-0.79 4.74c-0.16,0.62 -0.46,0.93 -0.9,0.93 -0.37,0 -0.93,-0.12 -1.7,-0.35 -0.85,-0.25 -1.82,-0.38 -2.9,-0.38 -4.15,0 -7.23,2.52 -9.23,7.54l0 17.7c0.16,0.05 0.42,0.1 0.78,0.16 0.36,0.06 0.85,0.14 1.47,0.26 0.62,0.11 1.22,0.23 1.8,0.35 0.71,0.14 1.07,0.59 1.07,1.35l0 2.97 -16.49 0z"/>
  <path class="fil1" d="M584.18 51.95c0,-1.52 0.38,-2.89 1.14,-4.11 0.83,-1.31 2.11,-2.49 3.84,-3.52 1.91,-1.13 4.17,-1.98 6.78,-2.56 2.83,-0.62 6.28,-0.93 10.33,-0.93l0 -2.77c0,-2.81 -0.61,-4.93 -1.83,-6.36 -1.24,-1.45 -3.02,-2.18 -5.32,-2.18 -1.5,0 -2.79,0.2 -3.87,0.62 -1.08,0.41 -1.98,0.84 -2.69,1.28 -1.32,0.78 -2.01,1.21 -2.08,1.28 -0.49,0.37 -1.02,0.55 -1.62,0.55 -0.49,0 -0.85,-0.09 -1.11,-0.28 -0.32,-0.23 -0.57,-0.52 -0.72,-0.86l-1.14 -1.97c1.82,-1.77 3.95,-3.19 6.4,-4.25 2.14,-0.94 4.69,-1.42 7.64,-1.42 2.08,0 3.86,0.33 5.36,1 1.57,0.69 2.87,1.59 3.91,2.7 1.06,1.13 1.87,2.55 2.42,4.25 0.5,1.54 0.76,3.38 0.76,5.5l0 17.91c2.08,0.44 3.26,0.7 3.56,0.8l0 -0.14c0.3,0.07 0.55,0.23 0.74,0.49 0.19,0.25 0.29,0.54 0.29,0.86l0 3.04 -4.6 0 -0.48 0 -2.28 0c-0.44,0 -0.93,-0.09 -1.49,-0.28 -0.3,-0.09 -0.53,-0.47 -0.69,-1.14l-0.72 -3.39c-0.53,0.44 -1.48,1.21 -2.83,2.32 -0.93,0.74 -1.86,1.3 -2.8,1.69 -1.2,0.51 -2.25,0.86 -3.14,1.07 -0.94,0.23 -2.21,0.35 -3.8,0.35 -1.34,0 -2.62,-0.21 -3.84,-0.62 -1.43,-0.49 -2.49,-1.05 -3.18,-1.7 -0.85,-0.79 -1.56,-1.78 -2.11,-2.97 -0.53,-1.15 -0.79,-2.57 -0.79,-4.25zm5.94 -0.27c0,0.74 0.17,1.53 0.52,2.38 0.3,0.72 0.72,1.28 1.25,1.7 0.55,0.41 1.17,0.72 1.87,0.93 0.76,0.23 1.53,0.35 2.31,0.35 0.94,0 1.93,-0.11 2.97,-0.35 0.85,-0.19 1.73,-0.5 2.63,-0.93 0.67,-0.32 1.45,-0.84 2.35,-1.56 0.46,-0.37 1.16,-1.02 2.11,-1.97l0 -7.36c-3.07,0 -5.52,0.16 -7.36,0.49 -1.68,0.3 -3.33,0.8 -4.94,1.49 -1.36,0.58 -2.31,1.29 -2.83,2.14 -0.58,0.9 -0.86,1.8 -0.86,2.7z"/>
  <path class="fil1" d="M617.6 29.07l0 -2.45 5.88 -0.8 1.42 -11.1c0,-0.37 0.14,-0.66 0.41,-0.86 0.25,-0.18 0.59,-0.27 1,-0.27l3.18 0 0 12.31 10.27 0 0 4.6 -10.27 0 0 21.54c0,1.57 0.35,2.7 1.04,3.39 0.71,0.71 1.68,1.07 2.91,1.07 0.55,0 1.15,-0.09 1.79,-0.28 0.35,-0.09 0.76,-0.29 1.24,-0.59 0.09,-0.05 0.24,-0.14 0.43,-0.28 0.2,-0.14 0.34,-0.23 0.43,-0.27 0.37,-0.19 0.6,-0.28 0.69,-0.28 0.32,0 0.61,0.18 0.86,0.55l1.83 2.97c-1.29,1.13 -2.6,1.93 -3.94,2.42 -1.57,0.55 -3.16,0.83 -4.77,0.83 -2.74,0 -4.91,-0.8 -6.5,-2.39 -1.52,-1.52 -2.28,-3.79 -2.28,-6.81l0 -21.95 -4.29 0c-0.41,0 -0.75,-0.09 -1,-0.28 -0.23,-0.16 -0.35,-0.52 -0.35,-1.07zm26.17 13.24c0,-2.47 0.4,-4.77 1.21,-6.91 0.88,-2.31 1.98,-4.2 3.32,-5.67 1.43,-1.57 3.21,-2.82 5.33,-3.77 2.03,-0.9 4.36,-1.35 6.98,-1.35l-0.14 0c2.08,0 4.06,0.36 5.94,1.07 1.84,0.69 3.4,1.71 4.67,3.04 1.45,1.54 2.5,3.22 3.14,5.05 0.74,2.1 1.1,4.36 1.1,6.78 0,1.06 -0.09,1.72 -0.28,1.97 -0.25,0.35 -0.68,0.52 -1.28,0.52l-23.78 0c0,2.19 0.29,4.17 0.86,5.95 0.48,1.48 1.28,2.85 2.38,4.11 1.02,1.15 2.2,2 3.56,2.52 1.48,0.58 2.99,0.86 4.53,0.86 1.68,0 3.05,-0.16 4.11,-0.48 0.81,-0.25 1.8,-0.66 2.97,-1.21 0.81,-0.39 1.51,-0.77 2.11,-1.14 0.6,-0.37 1.07,-0.55 1.42,-0.55 0.53,0 0.93,0.21 1.21,0.62l1.76 2.35c-0.67,0.85 -1.61,1.65 -2.83,2.39 -1.52,0.92 -2.67,1.51 -3.46,1.76 -1.57,0.51 -2.85,0.84 -3.84,1.01 -1.43,0.23 -2.72,0.35 -3.87,0.35 -2.56,0 -4.85,-0.42 -6.88,-1.24 -2.03,-0.83 -3.85,-2.09 -5.46,-3.77 -1.48,-1.52 -2.65,-3.52 -3.52,-6.01 -0.85,-2.4 -1.28,-5.14 -1.28,-8.23zm6.5 -3.11l19.5 0c0,-1.36 -0.22,-2.67 -0.66,-3.94 -0.51,-1.45 -1.07,-2.52 -1.69,-3.21 -0.81,-0.88 -1.78,-1.56 -2.91,-2.04 -1.13,-0.48 -2.43,-0.72 -3.91,-0.72l0.07 -0.07c-3.07,0 -5.44,0.87 -7.12,2.63 -1.77,1.84 -2.87,4.3 -3.28,7.36zm44.52 21.81l0 -2.97c0,-0.76 0.35,-1.21 1.04,-1.35l4.04 -0.76 0 -40.44c-2.28,-0.42 -3.63,-0.69 -4.04,-0.83 -0.69,-0.14 -1.04,-0.59 -1.04,-1.35l0 -2.97 19.12 0c3.13,0 5.91,0.35 8.33,1.04l0 -0.07c6.98,2.28 10.47,7.19 10.47,14.73 0,4.86 -1.6,8.69 -4.8,11.48 -3.44,3.02 -8.1,4.53 -14,4.53l-7.22 0 0 13.79c0.53,0.19 1.89,0.47 4.08,0.86 0.67,0.14 1,0.59 1,1.35l0 2.97 -16.97 0zm11.89 -24.51l7.22 0c3.81,0 6.75,-0.94 8.85,-2.83 2.12,-1.91 3.18,-4.48 3.18,-7.71l-0.07 -0.07c0,-3.16 -0.99,-5.66 -2.97,-7.5 -1.93,-1.8 -4.93,-2.69 -8.99,-2.69l-7.22 0 0 20.81zm28.52 -8.33l0 -2.97 11.45 0 0 22.79c0,2.79 0.62,4.91 1.87,6.36 1.27,1.48 3.16,2.21 5.67,2.21l0 0.07c3.5,0 6.73,-1.65 9.68,-4.94l0 -21.26c-0.42,-0.14 -1.76,-0.41 -4.05,-0.83 -0.69,-0.14 -1.04,-0.59 -1.04,-1.35l0 -3.04 5.08 0 6.29 0 0 30.73c2.28,0.42 3.63,0.69 4.04,0.83 0.72,0.14 1.07,0.57 1.07,1.28l0 3.04 -8.85 0c-0.85,0 -1.42,-0.45 -1.7,-1.35l-0.52 -3.81c-3.37,3.81 -7.33,5.71 -11.89,5.71 -3.82,0 -6.8,-1.24 -8.92,-3.73 -2.08,-2.56 -3.11,-5.84 -3.11,-9.85l0 -17.7c-2.19,-0.39 -3.52,-0.67 -3.98,-0.83 -0.74,-0.14 -1.11,-0.59 -1.11,-1.35z"/>
  <path class="fil1" d="M776.49 11.95l0 -3.04 5.6 0 0.21 0 6.15 0 0 21.43c1.52,-1.73 3.21,-3.12 5.08,-4.18 1.84,-1.04 4.03,-1.56 6.54,-1.56 2.17,0 4.06,0.38 5.67,1.14 1.68,0.79 3.1,1.96 4.25,3.53 1.18,1.61 2.06,3.5 2.66,5.67 0.67,2.44 1,5.09 1,7.95l0.14 0 0 0.14 0 0.07c0,2.97 -0.42,5.59 -1.28,7.85 -0.9,2.37 -2.03,4.31 -3.39,5.81 -1.36,1.5 -3.01,2.69 -4.94,3.56 -1.82,0.83 -3.91,1.24 -6.26,1.24 -1.89,0 -4.15,-0.16 -6.79,-0.49 -2.64,-0.32 -4.81,-0.64 -6.52,-0.97l-2.52 -0.52 0 -0.55 0 -5.19 0 -39.86c-0.18,-0.02 -0.64,-0.09 -1.37,-0.19 -0.72,-0.1 -1.4,-0.2 -2,-0.29 -0.61,-0.09 -1,-0.16 -1.16,-0.21 -0.3,-0.07 -0.55,-0.23 -0.76,-0.49 -0.21,-0.25 -0.31,-0.54 -0.31,-0.86zm11.96 43.53c2.19,0.64 4.55,1.02 7.09,1.14l1.35 0 0.49 0c1.52,-0.07 2.8,-0.36 3.84,-0.86 1.22,-0.53 2.31,-1.42 3.25,-2.66l0.07 -0.14c0.88,-1.18 1.56,-2.59 2.04,-4.25 0.48,-1.82 0.72,-3.62 0.72,-5.39l0 -0.55c0,-2.37 -0.19,-4.36 -0.59,-5.95 -0.39,-1.64 -1,-3.01 -1.83,-4.11 -0.87,-1.18 -1.82,-1.98 -2.83,-2.42 -1.08,-0.46 -2.37,-0.69 -3.87,-0.69 -2.17,0 -3.99,0.47 -5.46,1.42 -1.59,1.02 -3.01,2.35 -4.25,4.01l0 8.44 0 8.92 0 3.11zm29.11 5.53l0 -3.04c0,-0.76 0.37,-1.21 1.11,-1.35l3.98 -0.8 0 -41.83c-2.19,-0.39 -3.51,-0.67 -3.98,-0.83 -0.74,-0.14 -1.11,-0.56 -1.11,-1.28l0 -3.04 11.45 0 0 46.91c2.03,0.37 3.35,0.66 3.98,0.86 0.76,0.16 1.14,0.61 1.14,1.35l0 3.04 -16.56 0zm20.4 0l0 -3.04c0,-0.32 0.1,-0.61 0.31,-0.86 0.21,-0.25 0.46,-0.41 0.76,-0.48l4.11 -0.8 0 -25.55c-2.33,-0.41 -3.7,-0.67 -4.11,-0.76 -0.3,-0.07 -0.55,-0.23 -0.76,-0.49 -0.21,-0.25 -0.31,-0.54 -0.31,-0.86l0 -2.97 11.41 0 0 30.63c2.28,0.44 3.63,0.7 4.04,0.8 0.3,0.07 0.55,0.23 0.76,0.48 0.2,0.25 0.31,0.54 0.31,0.86l0 3.04 -16.53 0zm3.84 -47.08c0,-0.71 0.12,-1.3 0.35,-1.76 0.32,-0.64 0.66,-1.14 1,-1.49 0.39,-0.39 0.86,-0.72 1.42,-1 0.46,-0.23 1.02,-0.35 1.69,-0.35 0.67,0 1.23,0.11 1.7,0.35 0.55,0.28 1.02,0.61 1.42,1 0.35,0.35 0.68,0.84 1.01,1.49 0.27,0.55 0.41,1.14 0.41,1.76 0,0.58 -0.14,1.14 -0.42,1.69 -0.27,0.55 -0.61,1.03 -1,1.42 -0.39,0.39 -0.86,0.72 -1.42,1 -0.46,0.23 -1.03,0.35 -1.7,0.35 -0.67,0 -1.23,-0.11 -1.69,-0.35 -0.55,-0.28 -1.03,-0.61 -1.42,-1 -0.39,-0.39 -0.72,-0.86 -1,-1.42 -0.23,-0.46 -0.35,-1.02 -0.35,-1.69zm15.91 29.11c0,-5.46 1.44,-9.88 4.32,-13.24 3.04,-3.46 7.23,-5.18 12.58,-5.18 2.67,0 6.22,0.85 10.65,2.56l0 9.33 -2.83 0c-0.67,0 -1.07,-0.32 -1.21,-0.97 -0.05,-0.16 -0.14,-1.06 -0.28,-2.7l-0.2 -2.35c-0.35,-0.09 -0.68,-0.18 -1.01,-0.26 -0.32,-0.08 -0.63,-0.16 -0.93,-0.22 -0.3,-0.07 -0.5,-0.11 -0.62,-0.14 -1.27,-0.19 -2.59,-0.28 -3.97,-0.28 -1.2,0 -2.49,0.3 -3.87,0.9 -1.24,0.53 -2.36,1.4 -3.35,2.63 -1.8,2.37 -2.7,5.68 -2.7,9.92 0,4.22 0.94,7.57 2.83,10.06 1.84,2.35 4.38,3.53 7.61,3.53 2.93,0 5.54,-0.99 7.85,-2.97 0.37,-0.37 0.84,-0.55 1.42,-0.55 0.51,0 0.89,0.19 1.14,0.55l1.7 2.35c-2.97,3.66 -7.41,5.5 -13.31,5.5 -4.56,0 -8.3,-1.63 -11.2,-4.87 -3.07,-3.41 -4.6,-7.94 -4.6,-13.59zm48.26 15.87l0 -12.75 3.46 0c0.81,0 1.28,0.4 1.42,1.21 0.09,0.39 0.21,1.55 0.35,3.46l0.21 3.11c3.69,1.34 6.57,2 8.64,2 2,0 3.76,-0.24 5.25,-0.72 1.34,-0.44 2.42,-1.07 3.25,-1.9 1.79,-1.66 2.69,-3.91 2.69,-6.74 0,-2.72 -1.28,-4.8 -3.84,-6.22 -1.24,-0.74 -2.51,-1.3 -3.81,-1.7 -4.98,-1.57 -7.95,-2.56 -8.92,-2.97 -1.34,-0.57 -2.64,-1.43 -3.9,-2.56 -2.51,-2.23 -3.77,-5.39 -3.77,-9.47 0,-3.73 1.35,-6.95 4.05,-9.64 2.9,-2.83 6.68,-4.25 11.34,-4.25 4.86,0 9.6,0.94 14.21,2.83l0 11.68 -3.39 0c-0.85,0 -1.35,-0.4 -1.49,-1.21 0,-0.02 -0.02,-0.26 -0.05,-0.71 -0.03,-0.45 -0.09,-1.2 -0.17,-2.23 -0.08,-1.04 -0.17,-2.15 -0.26,-3.35 -3.22,-0.9 -6.01,-1.35 -8.37,-1.35 -3.07,0 -5.43,0.76 -7.09,2.28 -1.59,1.45 -2.39,3.33 -2.39,5.63 0,2.51 1.27,4.47 3.81,5.88 1.2,0.71 2.52,1.31 3.98,1.79 4.1,1.36 7.08,2.42 8.92,3.18l-0.14 0c5.09,2.28 7.64,6.08 7.64,11.41 0,4.65 -1.46,8.44 -4.39,11.37 -3.07,3.07 -7.26,4.6 -12.58,4.6 -2.21,0 -4.53,-0.21 -6.95,-0.62 -1.7,-0.3 -3.59,-0.75 -5.67,-1.35l-2.04 -0.69zm34.81 -15.87c0,-5.46 1.44,-9.88 4.32,-13.24 3.04,-3.46 7.23,-5.18 12.58,-5.18 2.67,0 6.22,0.85 10.65,2.56l0 9.33 -2.83 0c-0.67,0 -1.07,-0.32 -1.21,-0.97 -0.05,-0.16 -0.14,-1.06 -0.28,-2.7l-0.2 -2.35c-0.35,-0.09 -0.68,-0.18 -1.01,-0.26 -0.32,-0.08 -0.63,-0.16 -0.93,-0.22 -0.3,-0.07 -0.5,-0.11 -0.62,-0.14 -1.27,-0.19 -2.59,-0.28 -3.97,-0.28 -1.2,0 -2.49,0.3 -3.87,0.9 -1.24,0.53 -2.36,1.4 -3.35,2.63 -1.8,2.37 -2.7,5.68 -2.7,9.92 0,4.22 0.94,7.57 2.83,10.06 1.84,2.35 4.38,3.53 7.61,3.53 2.93,0 5.54,-0.99 7.85,-2.97 0.37,-0.37 0.84,-0.55 1.42,-0.55 0.51,0 0.89,0.19 1.14,0.55l1.7 2.35c-2.97,3.66 -7.41,5.5 -13.31,5.5 -4.56,0 -8.3,-1.63 -11.2,-4.87 -3.07,-3.41 -4.6,-7.94 -4.6,-13.59zm32.25 -31.15l0 -2.97 12.17 0 0 21.09c3.46,-3.6 7.28,-5.39 11.48,-5.39 3.85,0 6.82,1.23 8.92,3.7 2.07,2.46 3.11,5.77 3.11,9.92l0 17.6c2.12,0.39 3.47,0.68 4.04,0.86 0.71,0.14 1.07,0.59 1.07,1.35l0 2.97 -11.41 0 0 -22.78c0,-5.72 -2.52,-8.57 -7.57,-8.57 -3.43,0 -6.65,1.67 -9.64,5.01l0 21.26 0.86 0.14c1.68,0.32 2.72,0.53 3.11,0.62 0.76,0.16 1.14,0.61 1.14,1.35l0 2.97 -16.56 0 0 -2.97c0,-0.76 0.37,-1.21 1.1,-1.35l3.98 -0.76 0 -41.86c-2.69,-0.41 -4.25,-0.69 -4.67,-0.83 -0.76,-0.16 -1.14,-0.61 -1.14,-1.35zm45.25 23.51c0.92,-2.42 2.07,-4.36 3.46,-5.81 1.52,-1.59 3.34,-2.82 5.46,-3.7 2.08,-0.85 4.43,-1.28 7.09,-1.28 2.63,0 4.98,0.42 7.05,1.28 2.12,0.88 3.94,2.11 5.46,3.7 1.43,1.5 2.56,3.43 3.39,5.81 0.8,2.3 1.21,4.85 1.21,7.64 0,2.79 -0.41,5.33 -1.21,7.64 -0.83,2.37 -1.96,4.31 -3.39,5.81 -1.5,1.57 -3.32,2.79 -5.46,3.66 -2.08,0.85 -4.43,1.28 -7.05,1.28 -2.65,0 -5.01,-0.42 -7.09,-1.28 -2.14,-0.88 -3.96,-2.1 -5.46,-3.66 -1.38,-1.45 -2.53,-3.39 -3.46,-5.81 -0.76,-2 -1.14,-4.55 -1.14,-7.64 0,-3.09 0.38,-5.64 1.14,-7.64zm5.36 7.78c0,1.8 0.24,3.69 0.73,5.67 0.39,1.64 1.05,3.05 1.97,4.25 0.83,1.09 1.92,1.93 3.29,2.52 1.54,0.67 3.1,1.01 4.67,1.01 3.64,0 6.28,-1.18 7.92,-3.53 1.75,-2.51 2.63,-5.84 2.63,-9.99 0,-4.15 -0.88,-7.48 -2.63,-9.99 -1.64,-2.35 -4.28,-3.52 -7.92,-3.52 -1.82,0 -3.38,0.28 -4.67,0.83 -1.22,0.53 -2.32,1.43 -3.29,2.7 -0.92,1.2 -1.58,2.62 -1.97,4.25 -0.49,1.98 -0.73,3.92 -0.73,5.81z"/>
  <path class="fil1" d="M1057.4 35.4c0.92,-2.42 2.07,-4.36 3.46,-5.81 1.52,-1.59 3.34,-2.82 5.46,-3.7 2.08,-0.85 4.43,-1.28 7.09,-1.28 2.63,0 4.98,0.42 7.05,1.28 2.12,0.88 3.94,2.11 5.46,3.7 1.43,1.5 2.56,3.43 3.39,5.81 0.8,2.3 1.21,4.85 1.21,7.64 0,2.79 -0.41,5.33 -1.21,7.64 -0.83,2.37 -1.96,4.31 -3.39,5.81 -1.5,1.57 -3.32,2.79 -5.46,3.66 -2.08,0.85 -4.43,1.28 -7.05,1.28 -2.65,0 -5.01,-0.42 -7.09,-1.28 -2.14,-0.88 -3.96,-2.1 -5.46,-3.66 -1.38,-1.45 -2.53,-3.39 -3.46,-5.81 -0.76,-2 -1.14,-4.55 -1.14,-7.64 0,-3.09 0.38,-5.64 1.14,-7.64zm5.36 7.78c0,1.8 0.24,3.69 0.73,5.67 0.39,1.64 1.05,3.05 1.97,4.25 0.83,1.09 1.92,1.93 3.29,2.52 1.54,0.67 3.1,1.01 4.67,1.01 3.64,0 6.28,-1.18 7.92,-3.53 1.75,-2.51 2.63,-5.84 2.63,-9.99 0,-4.15 -0.88,-7.48 -2.63,-9.99 -1.64,-2.35 -4.28,-3.52 -7.92,-3.52 -1.82,0 -3.38,0.28 -4.67,0.83 -1.22,0.53 -2.32,1.43 -3.29,2.7 -0.92,1.2 -1.58,2.62 -1.97,4.25 -0.49,1.98 -0.73,3.92 -0.73,5.81zm31.6 17.84l0 -3.04c0,-0.76 0.37,-1.21 1.11,-1.35l3.98 -0.8 0 -41.83c-2.19,-0.39 -3.51,-0.67 -3.98,-0.83 -0.74,-0.14 -1.11,-0.56 -1.11,-1.28l0 -3.04 11.45 0 0 46.91c2.03,0.37 3.35,0.66 3.98,0.86 0.76,0.16 1.14,0.61 1.14,1.35l0 3.04 -16.56 0zm35.92 -2.11l0 -12.75 3.46 0c0.81,0 1.28,0.4 1.42,1.21 0.09,0.39 0.21,1.55 0.35,3.46l0.21 3.11c3.69,1.34 6.57,2 8.64,2 2,0 3.76,-0.24 5.25,-0.72 1.34,-0.44 2.42,-1.07 3.25,-1.9 1.79,-1.66 2.69,-3.91 2.69,-6.74 0,-2.72 -1.28,-4.8 -3.84,-6.22 -1.24,-0.74 -2.51,-1.3 -3.81,-1.7 -4.98,-1.57 -7.95,-2.56 -8.92,-2.97 -1.34,-0.57 -2.64,-1.43 -3.9,-2.56 -2.51,-2.23 -3.77,-5.39 -3.77,-9.47 0,-3.73 1.35,-6.95 4.05,-9.64 2.9,-2.83 6.68,-4.25 11.34,-4.25 4.86,0 9.6,0.94 14.21,2.83l0 11.68 -3.39 0c-0.85,0 -1.35,-0.4 -1.49,-1.21 0,-0.02 -0.02,-0.26 -0.05,-0.71 -0.03,-0.45 -0.09,-1.2 -0.17,-2.23 -0.08,-1.04 -0.17,-2.15 -0.26,-3.35 -3.22,-0.9 -6.01,-1.35 -8.37,-1.35 -3.07,0 -5.43,0.76 -7.09,2.28 -1.59,1.45 -2.39,3.33 -2.39,5.63 0,2.51 1.27,4.47 3.81,5.88 1.2,0.71 2.52,1.31 3.98,1.79 4.1,1.36 7.08,2.42 8.92,3.18l-0.14 0c5.09,2.28 7.64,6.08 7.64,11.41 0,4.65 -1.46,8.44 -4.39,11.37 -3.07,3.07 -7.26,4.6 -12.58,4.6 -2.21,0 -4.53,-0.21 -6.95,-0.62 -1.7,-0.3 -3.59,-0.75 -5.67,-1.35l-2.04 -0.69zm34.26 -29.83l0 -2.45 5.88 -0.8 1.42 -11.1c0,-0.37 0.14,-0.66 0.41,-0.86 0.25,-0.18 0.59,-0.27 1,-0.27l3.18 0 0 12.31 10.27 0 0 4.6 -10.27 0 0 21.54c0,1.57 0.35,2.7 1.04,3.39 0.71,0.71 1.68,1.07 2.91,1.07 0.55,0 1.15,-0.09 1.79,-0.28 0.35,-0.09 0.76,-0.29 1.24,-0.59 0.09,-0.05 0.24,-0.14 0.43,-0.28 0.2,-0.14 0.34,-0.23 0.43,-0.27 0.37,-0.19 0.6,-0.28 0.69,-0.28 0.32,0 0.61,0.18 0.86,0.55l1.83 2.97c-1.29,1.13 -2.6,1.93 -3.94,2.42 -1.57,0.55 -3.16,0.83 -4.77,0.83 -2.74,0 -4.91,-0.8 -6.5,-2.39 -1.52,-1.52 -2.28,-3.79 -2.28,-6.81l0 -21.95 -4.29 0c-0.41,0 -0.75,-0.09 -1,-0.28 -0.23,-0.16 -0.35,-0.52 -0.35,-1.07zm25.76 -0.9l0 -2.97 11.45 0 0 22.79c0,2.79 0.62,4.91 1.87,6.36 1.27,1.48 3.16,2.21 5.67,2.21l0 0.07c3.5,0 6.73,-1.65 9.68,-4.94l0 -21.26c-0.42,-0.14 -1.76,-0.41 -4.05,-0.83 -0.69,-0.14 -1.04,-0.59 -1.04,-1.35l0 -3.04 5.08 0 6.29 0 0 30.73c2.28,0.42 3.63,0.69 4.04,0.83 0.72,0.14 1.07,0.57 1.07,1.28l0 3.04 -8.85 0c-0.85,0 -1.42,-0.45 -1.7,-1.35l-0.52 -3.81c-3.37,3.81 -7.33,5.71 -11.89,5.71 -3.82,0 -6.8,-1.24 -8.92,-3.73 -2.08,-2.56 -3.11,-5.84 -3.11,-9.85l0 -17.7c-2.19,-0.39 -3.52,-0.67 -3.98,-0.83 -0.74,-0.14 -1.11,-0.59 -1.11,-1.35zm43.46 15c0,-5.46 1.4,-9.9 4.18,-13.31 2.88,-3.6 6.68,-5.39 11.41,-5.39l-0.07 0c3.99,0 7.26,1.42 9.81,4.25l0 -14.73c-2.74,-0.46 -4.32,-0.74 -4.73,-0.83 -0.71,-0.14 -1.07,-0.56 -1.07,-1.28l0 -3.11 12.03 0 0 46.98c2.23,0.41 3.6,0.7 4.11,0.86 0.67,0.14 1,0.57 1,1.28l0 3.11 -8.78 0c-0.85,0 -1.42,-0.45 -1.7,-1.35l-0.59 -4.32c-3.34,4.06 -7.35,6.09 -12.03,6.09 -4.17,0 -7.47,-1.56 -9.89,-4.67 -2.47,-3.25 -3.7,-7.78 -3.7,-13.59zm6.5 0c0,6.75 1.75,10.9 5.25,12.44 1.15,0.49 2.45,0.73 3.91,0.73l0.07 0.07c3.69,0 6.89,-1.82 9.61,-5.46l0 -17.28c-2.09,-2.81 -4.85,-4.22 -8.26,-4.22 -3.48,0 -6.11,1.18 -7.88,3.53 -1.8,2.37 -2.7,5.77 -2.7,10.2zm33.29 -0.86c0,-2.47 0.4,-4.77 1.21,-6.91 0.88,-2.31 1.98,-4.2 3.32,-5.67 1.43,-1.57 3.21,-2.82 5.33,-3.77 2.03,-0.9 4.36,-1.35 6.98,-1.35l-0.14 0c2.08,0 4.06,0.36 5.94,1.07 1.84,0.69 3.4,1.71 4.67,3.04 1.45,1.54 2.5,3.22 3.14,5.05 0.74,2.1 1.1,4.36 1.1,6.78 0,1.06 -0.09,1.72 -0.28,1.97 -0.25,0.35 -0.68,0.52 -1.28,0.52l-23.78 0c0,2.19 0.29,4.17 0.86,5.95 0.48,1.48 1.28,2.85 2.38,4.11 1.02,1.15 2.2,2 3.56,2.52 1.48,0.58 2.99,0.86 4.53,0.86 1.68,0 3.05,-0.16 4.11,-0.48 0.81,-0.25 1.8,-0.66 2.97,-1.21 0.81,-0.39 1.51,-0.77 2.11,-1.14 0.6,-0.37 1.07,-0.55 1.42,-0.55 0.53,0 0.93,0.21 1.21,0.62l1.76 2.35c-0.67,0.85 -1.61,1.65 -2.83,2.39 -1.52,0.92 -2.67,1.51 -3.46,1.76 -1.57,0.51 -2.85,0.84 -3.84,1.01 -1.43,0.23 -2.72,0.35 -3.87,0.35 -2.56,0 -4.85,-0.42 -6.88,-1.24 -2.03,-0.83 -3.85,-2.09 -5.46,-3.77 -1.48,-1.52 -2.65,-3.52 -3.52,-6.01 -0.85,-2.4 -1.28,-5.14 -1.28,-8.23zm6.5 -3.11l19.5 0c0,-1.36 -0.22,-2.67 -0.66,-3.94 -0.51,-1.45 -1.07,-2.52 -1.69,-3.21 -0.81,-0.88 -1.78,-1.56 -2.91,-2.04 -1.13,-0.48 -2.43,-0.72 -3.91,-0.72l0.07 -0.07c-3.07,0 -5.44,0.87 -7.12,2.63 -1.77,1.84 -2.87,4.3 -3.28,7.36zm29.31 21.81l0 -2.97c0,-0.76 0.32,-1.21 0.97,-1.35l4.11 -0.76 0 -25.58c-2.37,-0.44 -3.74,-0.71 -4.11,-0.83 -0.64,-0.14 -0.97,-0.59 -0.97,-1.35l0 -2.97 5.08 0 3.7 0c0.85,0 1.42,0.43 1.7,1.28l0.55 3.87 0 -0.07c3.52,-3.82 7.49,-5.74 11.89,-5.74 3.87,0 6.84,1.26 8.92,3.77 2.03,2.49 3.04,5.76 3.04,9.81l0 17.63c2.12,0.39 3.47,0.68 4.05,0.86 0.76,0.16 1.14,0.61 1.14,1.35l0 3.04 -11.48 0 0 -22.78c0,-5.76 -2.5,-8.64 -7.5,-8.64 -3.52,0 -6.79,1.67 -9.78,5.01l0 21.23c0.07,0 1.44,0.29 4.11,0.86 0.71,0.14 1.07,0.59 1.07,1.35l0 2.97 -16.49 0zm42.76 -31.94l0 -2.45 5.88 -0.8 1.42 -11.1c0,-0.37 0.14,-0.66 0.41,-0.86 0.25,-0.18 0.59,-0.27 1,-0.27l3.18 0 0 12.31 10.27 0 0 4.6 -10.27 0 0 21.54c0,1.57 0.35,2.7 1.04,3.39 0.71,0.71 1.68,1.07 2.91,1.07 0.55,0 1.15,-0.09 1.79,-0.28 0.35,-0.09 0.76,-0.29 1.24,-0.59 0.09,-0.05 0.24,-0.14 0.43,-0.28 0.2,-0.14 0.34,-0.23 0.43,-0.27 0.37,-0.19 0.6,-0.28 0.69,-0.28 0.32,0 0.61,0.18 0.86,0.55l1.83 2.97c-1.29,1.13 -2.6,1.93 -3.94,2.42 -1.57,0.55 -3.16,0.83 -4.77,0.83 -2.74,0 -4.91,-0.8 -6.5,-2.39 -1.52,-1.52 -2.28,-3.79 -2.28,-6.81l0 -21.95 -4.29 0c-0.41,0 -0.75,-0.09 -1,-0.28 -0.23,-0.16 -0.35,-0.52 -0.35,-1.07zm27.73 30.52l0 -9.33 2.56 0c0.55,0 0.9,0.28 1.04,0.83 0,0.07 0.02,0.26 0.05,0.57 0.03,0.31 0.09,0.86 0.17,1.64 0.08,0.78 0.16,1.56 0.22,2.31 1.87,0.95 4.3,1.42 7.3,1.42 2.28,0 4.11,-0.59 5.49,-1.76 1.24,-1.1 1.87,-2.3 1.87,-3.59 0,-1.34 -0.29,-2.33 -0.86,-2.97 -0.74,-0.83 -1.44,-1.41 -2.11,-1.73 -1.09,-0.53 -2.08,-0.9 -2.97,-1.1 -3.48,-1.13 -5.68,-1.89 -6.6,-2.28 -1.04,-0.46 -2.1,-1.12 -3.18,-1.97 -1.98,-1.64 -2.97,-3.86 -2.97,-6.67 0,-2.86 1.13,-5.27 3.39,-7.22 2.37,-2.08 5.72,-3.11 10.06,-3.11l-0.07 0c2.42,0 5.53,0.64 9.34,1.93l0 2.45 0 6.74 -2.73 0c-0.67,0 -1.07,-0.33 -1.21,-1.01 0,-0.05 -0.02,-0.23 -0.05,-0.55 -0.03,-0.32 -0.09,-0.88 -0.17,-1.68 -0.08,-0.8 -0.15,-1.61 -0.22,-2.44 -2.3,-0.53 -4.14,-0.79 -5.5,-0.79l-0.07 0c-1.91,0 -3.55,0.53 -4.91,1.59 -1.27,0.99 -1.9,2.08 -1.9,3.25 0,1.22 0.29,2.12 0.86,2.69 0.94,1.09 2.3,1.9 4.08,2.45 0.39,0.12 1.11,0.33 2.16,0.64 1.05,0.31 1.79,0.55 2.23,0.71l3.43 1.28c0.83,0.3 1.82,0.91 2.97,1.83 1.93,1.52 2.91,3.61 2.91,6.26 0,3.43 -1.16,6.16 -3.49,8.19 -2.53,2.21 -5.69,3.32 -9.47,3.32 -3.94,0 -7.82,-0.63 -11.62,-1.9z"/>
  <path class="fil2" d="M396.6 212.4c0,4.7 -0.9,9.21 -2.69,13.55 -1.8,4.34 -4.36,8.16 -7.67,11.48 -3.32,3.32 -7.15,5.88 -11.48,7.67 -4.34,1.8 -8.85,2.69 -13.55,2.69 -4.7,0 -9.21,-0.9 -13.55,-2.69 -4.34,-1.79 -8.16,-4.36 -11.48,-7.67 -3.32,-3.32 -5.88,-7.15 -7.67,-11.48 -1.8,-4.34 -2.69,-8.85 -2.69,-13.55 0,-4.69 0.9,-9.21 2.69,-13.55 1.79,-4.34 4.36,-8.16 7.67,-11.48 3.32,-3.32 7.15,-5.88 11.48,-7.67 4.34,-1.79 8.85,-2.69 13.55,-2.69 4.69,0 9.21,0.9 13.55,2.69 4.34,1.8 8.16,4.36 11.48,7.67 3.32,3.32 5.88,7.15 7.67,11.48 1.79,4.34 2.69,8.85 2.69,13.55z"/>
  <path class="fil1" d="M434.42 238.01l0 -3.04c0,-0.76 0.32,-1.21 0.97,-1.35l4.11 -0.8 0 -40.41c-2.28,-0.42 -3.7,-0.69 -4.25,-0.83 -0.55,-0.14 -0.83,-0.57 -0.83,-1.28l0 -2.97 17.04 0 0 2.97c0,0.76 -0.36,1.21 -1.07,1.35l-4.08 0.76 0 40.41c2.12,0.39 3.56,0.68 4.32,0.86 0.55,0.14 0.83,0.57 0.83,1.28l0 3.04 -17.04 0zm21.43 0l0 -3.04c0,-0.76 0.37,-1.21 1.11,-1.35l3.98 -0.8 0 -41.83c-2.19,-0.39 -3.51,-0.67 -3.98,-0.83 -0.74,-0.14 -1.11,-0.56 -1.11,-1.28l0 -3.04 11.45 0 0 46.91c2.03,0.37 3.35,0.66 3.98,0.86 0.76,0.16 1.14,0.61 1.14,1.35l0 3.04 -16.56 0zm20.5 0l0 -3.04c0,-0.76 0.37,-1.21 1.11,-1.35l3.98 -0.8 0 -41.83c-2.19,-0.39 -3.51,-0.67 -3.98,-0.83 -0.74,-0.14 -1.11,-0.56 -1.11,-1.28l0 -3.04 11.45 0 0 46.91c2.03,0.37 3.35,0.66 3.98,0.86 0.76,0.16 1.14,0.61 1.14,1.35l0 3.04 -16.56 0zm20.4 0l0 -3.04c0,-0.32 0.1,-0.61 0.31,-0.86 0.21,-0.25 0.46,-0.41 0.76,-0.48l4.11 -0.8 0 -25.55c-2.33,-0.41 -3.7,-0.67 -4.11,-0.76 -0.3,-0.07 -0.55,-0.23 -0.76,-0.49 -0.21,-0.25 -0.31,-0.54 -0.31,-0.86l0 -2.97 11.41 0 0 30.63c2.28,0.44 3.63,0.7 4.04,0.8 0.3,0.07 0.55,0.23 0.76,0.48 0.2,0.25 0.31,0.54 0.31,0.86l0 3.04 -16.53 0zm3.84 -47.08c0,-0.71 0.12,-1.3 0.35,-1.76 0.32,-0.64 0.66,-1.14 1,-1.49 0.39,-0.39 0.86,-0.72 1.42,-1 0.46,-0.23 1.02,-0.35 1.69,-0.35 0.67,0 1.23,0.11 1.7,0.35 0.55,0.28 1.02,0.61 1.42,1 0.35,0.35 0.68,0.84 1.01,1.49 0.27,0.55 0.41,1.14 0.41,1.76 0,0.58 -0.14,1.14 -0.42,1.69 -0.27,0.55 -0.61,1.03 -1,1.42 -0.39,0.39 -0.86,0.72 -1.42,1 -0.46,0.23 -1.03,0.35 -1.7,0.35 -0.67,0 -1.23,-0.11 -1.69,-0.35 -0.55,-0.28 -1.03,-0.61 -1.42,-1 -0.39,-0.39 -0.72,-0.86 -1,-1.42 -0.23,-0.46 -0.35,-1.02 -0.35,-1.69zm15.35 15.14l0 -2.45 5.88 -0.8 1.42 -11.1c0,-0.37 0.14,-0.66 0.41,-0.86 0.25,-0.18 0.59,-0.27 1,-0.27l3.18 0 0 12.31 10.27 0 0 4.6 -10.27 0 0 21.54c0,1.57 0.35,2.7 1.04,3.39 0.71,0.71 1.68,1.07 2.91,1.07 0.55,0 1.15,-0.09 1.79,-0.28 0.35,-0.09 0.76,-0.29 1.24,-0.59 0.09,-0.05 0.24,-0.14 0.43,-0.28 0.2,-0.14 0.34,-0.23 0.43,-0.27 0.37,-0.19 0.6,-0.28 0.69,-0.28 0.32,0 0.61,0.18 0.86,0.55l1.83 2.97c-1.29,1.13 -2.6,1.93 -3.94,2.42 -1.57,0.55 -3.16,0.83 -4.77,0.83 -2.74,0 -4.91,-0.8 -6.5,-2.39 -1.52,-1.52 -2.28,-3.79 -2.28,-6.81l0 -21.95 -4.29 0c-0.41,0 -0.75,-0.09 -1,-0.28 -0.23,-0.16 -0.35,-0.52 -0.35,-1.07zm26.17 13.24c0,-2.47 0.4,-4.77 1.21,-6.91 0.88,-2.31 1.98,-4.2 3.32,-5.67 1.43,-1.57 3.21,-2.82 5.33,-3.77 2.03,-0.9 4.36,-1.35 6.98,-1.35l-0.14 0c2.08,0 4.06,0.36 5.94,1.07 1.84,0.69 3.4,1.71 4.67,3.04 1.45,1.54 2.5,3.22 3.14,5.05 0.74,2.1 1.1,4.36 1.1,6.78 0,1.06 -0.09,1.72 -0.28,1.97 -0.25,0.35 -0.68,0.52 -1.28,0.52l-23.78 0c0,2.19 0.29,4.17 0.86,5.95 0.48,1.48 1.28,2.85 2.38,4.11 1.02,1.15 2.2,2 3.56,2.52 1.48,0.58 2.99,0.86 4.53,0.86 1.68,0 3.05,-0.16 4.11,-0.48 0.81,-0.25 1.8,-0.66 2.97,-1.21 0.81,-0.39 1.51,-0.77 2.11,-1.14 0.6,-0.37 1.07,-0.55 1.42,-0.55 0.53,0 0.93,0.21 1.21,0.62l1.76 2.35c-0.67,0.85 -1.61,1.65 -2.83,2.39 -1.52,0.92 -2.67,1.51 -3.46,1.76 -1.57,0.51 -2.85,0.84 -3.84,1.01 -1.43,0.23 -2.72,0.35 -3.87,0.35 -2.56,0 -4.85,-0.42 -6.88,-1.24 -2.03,-0.83 -3.85,-2.09 -5.46,-3.77 -1.48,-1.52 -2.65,-3.52 -3.52,-6.01 -0.85,-2.4 -1.28,-5.14 -1.28,-8.23zm6.5 -3.11l19.5 0c0,-1.36 -0.22,-2.67 -0.66,-3.94 -0.51,-1.45 -1.07,-2.52 -1.69,-3.21 -0.81,-0.88 -1.78,-1.56 -2.91,-2.04 -1.13,-0.48 -2.43,-0.72 -3.91,-0.72l0.07 -0.07c-3.07,0 -5.44,0.87 -7.12,2.63 -1.77,1.84 -2.87,4.3 -3.28,7.36zm29.31 21.81l0 -2.97c0,-0.76 0.35,-1.21 1.04,-1.35l4.04 -0.76 0 -25.58c-2.28,-0.41 -3.63,-0.69 -4.04,-0.83 -0.69,-0.14 -1.04,-0.59 -1.04,-1.35l0 -2.97 5.08 0 3.63 0c0.64,0 1.09,0.12 1.32,0.35 0.25,0.25 0.45,0.7 0.58,1.35l0.42 5.6 0.07 0c2.63,-5.35 6.27,-8.02 10.92,-8.02 1.84,0 3.47,0.42 4.87,1.28l-0.79 4.74c-0.16,0.62 -0.46,0.93 -0.9,0.93 -0.37,0 -0.93,-0.12 -1.7,-0.35 -0.85,-0.25 -1.82,-0.38 -2.9,-0.38 -4.15,0 -7.23,2.52 -9.23,7.54l0 17.7c0.16,0.05 0.42,0.1 0.78,0.16 0.36,0.06 0.85,0.14 1.47,0.26 0.62,0.11 1.22,0.23 1.8,0.35 0.71,0.14 1.07,0.59 1.07,1.35l0 2.97 -16.49 0z"/>
  <path class="fil1" d="M606.4 228.95c0,-1.52 0.38,-2.89 1.14,-4.11 0.83,-1.31 2.11,-2.49 3.84,-3.52 1.91,-1.13 4.17,-1.98 6.78,-2.56 2.83,-0.62 6.28,-0.93 10.33,-0.93l0 -2.77c0,-2.81 -0.61,-4.93 -1.83,-6.36 -1.24,-1.45 -3.02,-2.18 -5.32,-2.18 -1.5,0 -2.79,0.2 -3.87,0.62 -1.08,0.41 -1.98,0.84 -2.69,1.28 -1.32,0.78 -2.01,1.21 -2.08,1.28 -0.49,0.37 -1.02,0.55 -1.62,0.55 -0.49,0 -0.85,-0.09 -1.11,-0.28 -0.32,-0.23 -0.57,-0.52 -0.72,-0.86l-1.14 -1.97c1.82,-1.77 3.95,-3.19 6.4,-4.25 2.14,-0.94 4.69,-1.42 7.64,-1.42 2.08,0 3.86,0.33 5.36,1 1.57,0.69 2.87,1.59 3.91,2.7 1.06,1.13 1.87,2.55 2.42,4.25 0.5,1.54 0.76,3.38 0.76,5.5l0 17.91c2.08,0.44 3.26,0.7 3.56,0.8l0 -0.14c0.3,0.07 0.55,0.23 0.74,0.49 0.19,0.25 0.29,0.54 0.29,0.86l0 3.04 -4.6 0 -0.48 0 -2.28 0c-0.44,0 -0.93,-0.09 -1.49,-0.28 -0.3,-0.09 -0.53,-0.47 -0.69,-1.14l-0.72 -3.39c-0.53,0.44 -1.48,1.21 -2.83,2.32 -0.93,0.74 -1.86,1.3 -2.8,1.69 -1.2,0.51 -2.25,0.86 -3.14,1.07 -0.94,0.23 -2.21,0.35 -3.8,0.35 -1.34,0 -2.62,-0.21 -3.84,-0.62 -1.43,-0.49 -2.49,-1.05 -3.18,-1.7 -0.85,-0.79 -1.56,-1.78 -2.11,-2.97 -0.53,-1.15 -0.79,-2.57 -0.79,-4.25zm5.94 -0.27c0,0.74 0.17,1.53 0.52,2.38 0.3,0.72 0.72,1.28 1.25,1.7 0.55,0.41 1.17,0.72 1.87,0.93 0.76,0.23 1.53,0.35 2.31,0.35 0.94,0 1.93,-0.11 2.97,-0.35 0.85,-0.19 1.73,-0.5 2.63,-0.93 0.67,-0.32 1.45,-0.84 2.35,-1.56 0.46,-0.37 1.16,-1.02 2.11,-1.97l0 -7.36c-3.07,0 -5.52,0.16 -7.36,0.49 -1.68,0.3 -3.33,0.8 -4.94,1.49 -1.36,0.58 -2.31,1.29 -2.83,2.14 -0.58,0.9 -0.86,1.8 -0.86,2.7z"/>
  <path class="fil1" d="M639.83 206.06l0 -2.45 5.88 -0.8 1.42 -11.1c0,-0.37 0.14,-0.66 0.41,-0.86 0.25,-0.18 0.59,-0.27 1,-0.27l3.18 0 0 12.31 10.27 0 0 4.6 -10.27 0 0 21.54c0,1.57 0.35,2.7 1.04,3.39 0.71,0.71 1.68,1.07 2.91,1.07 0.55,0 1.15,-0.09 1.79,-0.28 0.35,-0.09 0.76,-0.29 1.24,-0.59 0.09,-0.05 0.24,-0.14 0.43,-0.28 0.2,-0.14 0.34,-0.23 0.43,-0.27 0.37,-0.19 0.6,-0.28 0.69,-0.28 0.32,0 0.61,0.18 0.86,0.55l1.83 2.97c-1.29,1.13 -2.6,1.93 -3.94,2.42 -1.57,0.55 -3.16,0.83 -4.77,0.83 -2.74,0 -4.91,-0.8 -6.5,-2.39 -1.52,-1.52 -2.28,-3.79 -2.28,-6.81l0 -21.95 -4.29 0c-0.41,0 -0.75,-0.09 -1,-0.28 -0.23,-0.16 -0.35,-0.52 -0.35,-1.07zm26.17 13.24c0,-2.47 0.4,-4.77 1.21,-6.91 0.88,-2.31 1.98,-4.2 3.32,-5.67 1.43,-1.57 3.21,-2.82 5.33,-3.77 2.03,-0.9 4.36,-1.35 6.98,-1.35l-0.14 0c2.08,0 4.06,0.36 5.94,1.07 1.84,0.69 3.4,1.71 4.67,3.04 1.45,1.54 2.5,3.22 3.14,5.05 0.74,2.1 1.1,4.36 1.1,6.78 0,1.06 -0.09,1.72 -0.28,1.97 -0.25,0.35 -0.68,0.52 -1.28,0.52l-23.78 0c0,2.19 0.29,4.17 0.86,5.95 0.48,1.48 1.28,2.85 2.38,4.11 1.02,1.15 2.2,2 3.56,2.52 1.48,0.58 2.99,0.86 4.53,0.86 1.68,0 3.05,-0.16 4.11,-0.48 0.81,-0.25 1.8,-0.66 2.97,-1.21 0.81,-0.39 1.51,-0.77 2.11,-1.14 0.6,-0.37 1.07,-0.55 1.42,-0.55 0.53,0 0.93,0.21 1.21,0.62l1.76 2.35c-0.67,0.85 -1.61,1.65 -2.83,2.39 -1.52,0.92 -2.67,1.51 -3.46,1.76 -1.57,0.51 -2.85,0.84 -3.84,1.01 -1.43,0.23 -2.72,0.35 -3.87,0.35 -2.56,0 -4.85,-0.42 -6.88,-1.24 -2.03,-0.83 -3.85,-2.09 -5.46,-3.77 -1.48,-1.52 -2.65,-3.52 -3.52,-6.01 -0.85,-2.4 -1.28,-5.14 -1.28,-8.23zm6.5 -3.11l19.5 0c0,-1.36 -0.22,-2.67 -0.66,-3.94 -0.51,-1.45 -1.07,-2.52 -1.69,-3.21 -0.81,-0.88 -1.78,-1.56 -2.91,-2.04 -1.13,-0.48 -2.43,-0.72 -3.91,-0.72l0.07 -0.07c-3.07,0 -5.44,0.87 -7.12,2.63 -1.77,1.84 -2.87,4.3 -3.28,7.36zm44.52 21.81l0 -2.97c0,-0.76 0.35,-1.21 1.04,-1.35l4.04 -0.76 0 -40.44c-2.28,-0.42 -3.63,-0.69 -4.04,-0.83 -0.69,-0.14 -1.04,-0.59 -1.04,-1.35l0 -2.97 19.12 0c3.13,0 5.91,0.35 8.33,1.04l0 -0.07c6.98,2.28 10.47,7.19 10.47,14.73 0,4.86 -1.6,8.69 -4.8,11.48 -3.44,3.02 -8.1,4.53 -14,4.53l-7.22 0 0 13.79c0.53,0.19 1.89,0.47 4.08,0.86 0.67,0.14 1,0.59 1,1.35l0 2.97 -16.97 0zm11.89 -24.51l7.22 0c3.81,0 6.75,-0.94 8.85,-2.83 2.12,-1.91 3.18,-4.48 3.18,-7.71l-0.07 -0.07c0,-3.16 -0.99,-5.66 -2.97,-7.5 -1.93,-1.8 -4.93,-2.69 -8.99,-2.69l-7.22 0 0 20.81zm28.52 -8.33l0 -2.97 11.45 0 0 22.79c0,2.79 0.62,4.91 1.87,6.36 1.27,1.48 3.16,2.21 5.67,2.21l0 0.07c3.5,0 6.73,-1.65 9.68,-4.94l0 -21.26c-0.42,-0.14 -1.76,-0.41 -4.05,-0.83 -0.69,-0.14 -1.04,-0.59 -1.04,-1.35l0 -3.04 5.08 0 6.29 0 0 30.73c2.28,0.42 3.63,0.69 4.04,0.83 0.72,0.14 1.07,0.57 1.07,1.28l0 3.04 -8.85 0c-0.85,0 -1.42,-0.45 -1.7,-1.35l-0.52 -3.81c-3.37,3.81 -7.33,5.71 -11.89,5.71 -3.82,0 -6.8,-1.24 -8.92,-3.73 -2.08,-2.56 -3.11,-5.84 -3.11,-9.85l0 -17.7c-2.19,-0.39 -3.52,-0.67 -3.98,-0.83 -0.74,-0.14 -1.11,-0.59 -1.11,-1.35z"/>
  <path class="fil1" d="M798.71 188.95l0 -3.04 5.6 0 0.21 0 6.15 0 0 21.43c1.52,-1.73 3.21,-3.12 5.08,-4.18 1.84,-1.04 4.03,-1.56 6.54,-1.56 2.17,0 4.06,0.38 5.67,1.14 1.68,0.79 3.1,1.96 4.25,3.53 1.18,1.61 2.06,3.5 2.66,5.67 0.67,2.44 1,5.09 1,7.95l0.14 0 0 0.14 0 0.07c0,2.97 -0.42,5.59 -1.28,7.85 -0.9,2.37 -2.03,4.31 -3.39,5.81 -1.36,1.5 -3.01,2.69 -4.94,3.56 -1.82,0.83 -3.91,1.24 -6.26,1.24 -1.89,0 -4.15,-0.16 -6.79,-0.49 -2.64,-0.32 -4.81,-0.64 -6.52,-0.97l-2.52 -0.52 0 -0.55 0 -5.19 0 -39.86c-0.18,-0.02 -0.64,-0.09 -1.37,-0.19 -0.72,-0.1 -1.4,-0.2 -2,-0.29 -0.61,-0.09 -1,-0.16 -1.16,-0.21 -0.3,-0.07 -0.55,-0.23 -0.76,-0.49 -0.21,-0.25 -0.31,-0.54 -0.31,-0.86zm11.96 43.53c2.19,0.64 4.55,1.02 7.09,1.14l1.35 0 0.49 0c1.52,-0.07 2.8,-0.36 3.84,-0.86 1.22,-0.53 2.31,-1.42 3.25,-2.66l0.07 -0.14c0.88,-1.18 1.56,-2.59 2.04,-4.25 0.48,-1.82 0.72,-3.62 0.72,-5.39l0 -0.55c0,-2.37 -0.19,-4.36 -0.59,-5.95 -0.39,-1.64 -1,-3.01 -1.83,-4.11 -0.87,-1.18 -1.82,-1.98 -2.83,-2.42 -1.08,-0.46 -2.37,-0.69 -3.87,-0.69 -2.17,0 -3.99,0.47 -5.46,1.42 -1.59,1.02 -3.01,2.35 -4.25,4.01l0 8.44 0 8.92 0 3.11zm29.11 5.53l0 -3.04c0,-0.76 0.37,-1.21 1.11,-1.35l3.98 -0.8 0 -41.83c-2.19,-0.39 -3.51,-0.67 -3.98,-0.83 -0.74,-0.14 -1.11,-0.56 -1.11,-1.28l0 -3.04 11.45 0 0 46.91c2.03,0.37 3.35,0.66 3.98,0.86 0.76,0.16 1.14,0.61 1.14,1.35l0 3.04 -16.56 0zm20.4 0l0 -3.04c0,-0.32 0.1,-0.61 0.31,-0.86 0.21,-0.25 0.46,-0.41 0.76,-0.48l4.11 -0.8 0 -25.55c-2.33,-0.41 -3.7,-0.67 -4.11,-0.76 -0.3,-0.07 -0.55,-0.23 -0.76,-0.49 -0.21,-0.25 -0.31,-0.54 -0.31,-0.86l0 -2.97 11.41 0 0 30.63c2.28,0.44 3.63,0.7 4.04,0.8 0.3,0.07 0.55,0.23 0.76,0.48 0.2,0.25 0.31,0.54 0.31,0.86l0 3.04 -16.53 0zm3.84 -47.08c0,-0.71 0.12,-1.3 0.35,-1.76 0.32,-0.64 0.66,-1.14 1,-1.49 0.39,-0.39 0.86,-0.72 1.42,-1 0.46,-0.23 1.02,-0.35 1.69,-0.35 0.67,0 1.23,0.11 1.7,0.35 0.55,0.28 1.02,0.61 1.42,1 0.35,0.35 0.68,0.84 1.01,1.49 0.27,0.55 0.41,1.14 0.41,1.76 0,0.58 -0.14,1.14 -0.42,1.69 -0.27,0.55 -0.61,1.03 -1,1.42 -0.39,0.39 -0.86,0.72 -1.42,1 -0.46,0.23 -1.03,0.35 -1.7,0.35 -0.67,0 -1.23,-0.11 -1.69,-0.35 -0.55,-0.28 -1.03,-0.61 -1.42,-1 -0.39,-0.39 -0.72,-0.86 -1,-1.42 -0.23,-0.46 -0.35,-1.02 -0.35,-1.69zm15.91 29.11c0,-5.46 1.44,-9.88 4.32,-13.24 3.04,-3.46 7.23,-5.18 12.58,-5.18 2.67,0 6.22,0.85 10.65,2.56l0 9.33 -2.83 0c-0.67,0 -1.07,-0.32 -1.21,-0.97 -0.05,-0.16 -0.14,-1.06 -0.28,-2.7l-0.2 -2.35c-0.35,-0.09 -0.68,-0.18 -1.01,-0.26 -0.32,-0.08 -0.63,-0.16 -0.93,-0.22 -0.3,-0.07 -0.5,-0.11 -0.62,-0.14 -1.27,-0.19 -2.59,-0.28 -3.97,-0.28 -1.2,0 -2.49,0.3 -3.87,0.9 -1.24,0.53 -2.36,1.4 -3.35,2.63 -1.8,2.37 -2.7,5.68 -2.7,9.92 0,4.22 0.94,7.57 2.83,10.06 1.84,2.35 4.38,3.53 7.61,3.53 2.93,0 5.54,-0.99 7.85,-2.97 0.37,-0.37 0.84,-0.55 1.42,-0.55 0.51,0 0.89,0.19 1.14,0.55l1.7 2.35c-2.97,3.66 -7.41,5.5 -13.31,5.5 -4.56,0 -8.3,-1.63 -11.2,-4.87 -3.07,-3.41 -4.6,-7.94 -4.6,-13.59zm48.26 15.87l0 -12.75 3.46 0c0.81,0 1.28,0.4 1.42,1.21 0.09,0.39 0.21,1.55 0.35,3.46l0.21 3.11c3.69,1.34 6.57,2 8.64,2 2,0 3.76,-0.24 5.25,-0.72 1.34,-0.44 2.42,-1.07 3.25,-1.9 1.79,-1.66 2.69,-3.91 2.69,-6.74 0,-2.72 -1.28,-4.8 -3.84,-6.22 -1.24,-0.74 -2.51,-1.3 -3.81,-1.7 -4.98,-1.57 -7.95,-2.56 -8.92,-2.97 -1.34,-0.57 -2.64,-1.43 -3.9,-2.56 -2.51,-2.23 -3.77,-5.39 -3.77,-9.47 0,-3.73 1.35,-6.95 4.05,-9.64 2.9,-2.83 6.68,-4.25 11.34,-4.25 4.86,0 9.6,0.94 14.21,2.83l0 11.68 -3.39 0c-0.85,0 -1.35,-0.4 -1.49,-1.21 0,-0.02 -0.02,-0.26 -0.05,-0.71 -0.03,-0.45 -0.09,-1.2 -0.17,-2.23 -0.08,-1.04 -0.17,-2.15 -0.26,-3.35 -3.22,-0.9 -6.01,-1.35 -8.37,-1.35 -3.07,0 -5.43,0.76 -7.09,2.28 -1.59,1.45 -2.39,3.33 -2.39,5.63 0,2.51 1.27,4.47 3.81,5.88 1.2,0.71 2.52,1.31 3.98,1.79 4.1,1.36 7.08,2.42 8.92,3.18l-0.14 0c5.09,2.28 7.64,6.08 7.64,11.41 0,4.65 -1.46,8.44 -4.39,11.37 -3.07,3.07 -7.26,4.6 -12.58,4.6 -2.21,0 -4.53,-0.21 -6.95,-0.62 -1.7,-0.3 -3.59,-0.75 -5.67,-1.35l-2.04 -0.69zm34.81 -15.87c0,-5.46 1.44,-9.88 4.32,-13.24 3.04,-3.46 7.23,-5.18 12.58,-5.18 2.67,0 6.22,0.85 10.65,2.56l0 9.33 -2.83 0c-0.67,0 -1.07,-0.32 -1.21,-0.97 -0.05,-0.16 -0.14,-1.06 -0.28,-2.7l-0.2 -2.35c-0.35,-0.09 -0.68,-0.18 -1.01,-0.26 -0.32,-0.08 -0.63,-0.16 -0.93,-0.22 -0.3,-0.07 -0.5,-0.11 -0.62,-0.14 -1.27,-0.19 -2.59,-0.28 -3.97,-0.28 -1.2,0 -2.49,0.3 -3.87,0.9 -1.24,0.53 -2.36,1.4 -3.35,2.63 -1.8,2.37 -2.7,5.68 -2.7,9.92 0,4.22 0.94,7.57 2.83,10.06 1.84,2.35 4.38,3.53 7.61,3.53 2.93,0 5.54,-0.99 7.85,-2.97 0.37,-0.37 0.84,-0.55 1.42,-0.55 0.51,0 0.89,0.19 1.14,0.55l1.7 2.35c-2.97,3.66 -7.41,5.5 -13.31,5.5 -4.56,0 -8.3,-1.63 -11.2,-4.87 -3.07,-3.41 -4.6,-7.94 -4.6,-13.59zm32.25 -31.15l0 -2.97 12.17 0 0 21.09c3.46,-3.6 7.28,-5.39 11.48,-5.39 3.85,0 6.82,1.23 8.92,3.7 2.07,2.46 3.11,5.77 3.11,9.92l0 17.6c2.12,0.39 3.47,0.68 4.04,0.86 0.71,0.14 1.07,0.59 1.07,1.35l0 2.97 -11.41 0 0 -22.78c0,-5.72 -2.52,-8.57 -7.57,-8.57 -3.43,0 -6.65,1.67 -9.64,5.01l0 21.26 0.86 0.14c1.68,0.32 2.72,0.53 3.11,0.62 0.76,0.16 1.14,0.61 1.14,1.35l0 2.97 -16.56 0 0 -2.97c0,-0.76 0.37,-1.21 1.1,-1.35l3.98 -0.76 0 -41.86c-2.69,-0.41 -4.25,-0.69 -4.67,-0.83 -0.76,-0.16 -1.14,-0.61 -1.14,-1.35zm45.25 23.51c0.92,-2.42 2.07,-4.36 3.46,-5.81 1.52,-1.59 3.34,-2.82 5.46,-3.7 2.08,-0.85 4.43,-1.28 7.09,-1.28 2.63,0 4.98,0.42 7.05,1.28 2.12,0.88 3.94,2.11 5.46,3.7 1.43,1.5 2.56,3.43 3.39,5.81 0.8,2.3 1.21,4.85 1.21,7.64 0,2.79 -0.41,5.33 -1.21,7.64 -0.83,2.37 -1.96,4.31 -3.39,5.81 -1.5,1.57 -3.32,2.79 -5.46,3.66 -2.08,0.85 -4.43,1.28 -7.05,1.28 -2.65,0 -5.01,-0.42 -7.09,-1.28 -2.14,-0.88 -3.96,-2.1 -5.46,-3.66 -1.38,-1.45 -2.53,-3.39 -3.46,-5.81 -0.76,-2 -1.14,-4.55 -1.14,-7.64 0,-3.09 0.38,-5.64 1.14,-7.64zm5.36 7.78c0,1.8 0.24,3.69 0.73,5.67 0.39,1.64 1.05,3.05 1.97,4.25 0.83,1.09 1.92,1.93 3.29,2.52 1.54,0.67 3.1,1.01 4.67,1.01 3.64,0 6.28,-1.18 7.92,-3.53 1.75,-2.51 2.63,-5.84 2.63,-9.99 0,-4.15 -0.88,-7.48 -2.63,-9.99 -1.64,-2.35 -4.28,-3.52 -7.92,-3.52 -1.82,0 -3.38,0.28 -4.67,0.83 -1.22,0.53 -2.32,1.43 -3.29,2.7 -0.92,1.2 -1.58,2.62 -1.97,4.25 -0.49,1.98 -0.73,3.92 -0.73,5.81z"/>
  <path class="fil1" d="M1079.64 212.39c0.92,-2.42 2.07,-4.36 3.46,-5.81 1.52,-1.59 3.34,-2.82 5.46,-3.7 2.08,-0.85 4.43,-1.28 7.09,-1.28 2.63,0 4.98,0.42 7.05,1.28 2.12,0.88 3.94,2.11 5.46,3.7 1.43,1.5 2.56,3.43 3.39,5.81 0.8,2.3 1.21,4.85 1.21,7.64 0,2.79 -0.41,5.33 -1.21,7.64 -0.83,2.37 -1.96,4.31 -3.39,5.81 -1.5,1.57 -3.32,2.79 -5.46,3.66 -2.08,0.85 -4.43,1.28 -7.05,1.28 -2.65,0 -5.01,-0.42 -7.09,-1.28 -2.14,-0.88 -3.96,-2.1 -5.46,-3.66 -1.38,-1.45 -2.53,-3.39 -3.46,-5.81 -0.76,-2 -1.14,-4.55 -1.14,-7.64 0,-3.09 0.38,-5.64 1.14,-7.64zm5.36 7.78c0,1.8 0.24,3.69 0.73,5.67 0.39,1.64 1.05,3.05 1.97,4.25 0.83,1.09 1.92,1.93 3.29,2.52 1.54,0.67 3.1,1.01 4.67,1.01 3.64,0 6.28,-1.18 7.92,-3.53 1.75,-2.51 2.63,-5.84 2.63,-9.99 0,-4.15 -0.88,-7.48 -2.63,-9.99 -1.64,-2.35 -4.28,-3.52 -7.92,-3.52 -1.82,0 -3.38,0.28 -4.67,0.83 -1.22,0.53 -2.32,1.43 -3.29,2.7 -0.92,1.2 -1.58,2.62 -1.97,4.25 -0.49,1.98 -0.73,3.92 -0.73,5.81zm31.6 17.84l0 -3.04c0,-0.76 0.37,-1.21 1.11,-1.35l3.98 -0.8 0 -41.83c-2.19,-0.39 -3.51,-0.67 -3.98,-0.83 -0.74,-0.14 -1.11,-0.56 -1.11,-1.28l0 -3.04 11.45 0 0 46.91c2.03,0.37 3.35,0.66 3.98,0.86 0.76,0.16 1.14,0.61 1.14,1.35l0 3.04 -16.56 0zm35.92 -2.11l0 -12.75 3.46 0c0.81,0 1.28,0.4 1.42,1.21 0.09,0.39 0.21,1.55 0.35,3.46l0.21 3.11c3.69,1.34 6.57,2 8.64,2 2,0 3.76,-0.24 5.25,-0.72 1.34,-0.44 2.42,-1.07 3.25,-1.9 1.79,-1.66 2.69,-3.91 2.69,-6.74 0,-2.72 -1.28,-4.8 -3.84,-6.22 -1.24,-0.74 -2.51,-1.3 -3.81,-1.7 -4.98,-1.57 -7.95,-2.56 -8.92,-2.97 -1.34,-0.57 -2.64,-1.43 -3.9,-2.56 -2.51,-2.23 -3.77,-5.39 -3.77,-9.47 0,-3.73 1.35,-6.95 4.05,-9.64 2.9,-2.83 6.68,-4.25 11.34,-4.25 4.86,0 9.6,0.94 14.21,2.83l0 11.68 -3.39 0c-0.85,0 -1.35,-0.4 -1.49,-1.21 0,-0.02 -0.02,-0.26 -0.05,-0.71 -0.03,-0.45 -0.09,-1.2 -0.17,-2.23 -0.08,-1.04 -0.17,-2.15 -0.26,-3.35 -3.22,-0.9 -6.01,-1.35 -8.37,-1.35 -3.07,0 -5.43,0.76 -7.09,2.28 -1.59,1.45 -2.39,3.33 -2.39,5.63 0,2.51 1.27,4.47 3.81,5.88 1.2,0.71 2.52,1.31 3.98,1.79 4.1,1.36 7.08,2.42 8.92,3.18l-0.14 0c5.09,2.28 7.64,6.08 7.64,11.41 0,4.65 -1.46,8.44 -4.39,11.37 -3.07,3.07 -7.26,4.6 -12.58,4.6 -2.21,0 -4.53,-0.21 -6.95,-0.62 -1.7,-0.3 -3.59,-0.75 -5.67,-1.35l-2.04 -0.69zm34.26 -29.83l0 -2.45 5.88 -0.8 1.42 -11.1c0,-0.37 0.14,-0.66 0.41,-0.86 0.25,-0.18 0.59,-0.27 1,-0.27l3.18 0 0 12.31 10.27 0 0 4.6 -10.27 0 0 21.54c0,1.57 0.35,2.7 1.04,3.39 0.71,0.71 1.68,1.07 2.91,1.07 0.55,0 1.15,-0.09 1.79,-0.28 0.35,-0.09 0.76,-0.29 1.24,-0.59 0.09,-0.05 0.24,-0.14 0.43,-0.28 0.2,-0.14 0.34,-0.23 0.43,-0.27 0.37,-0.19 0.6,-0.28 0.69,-0.28 0.32,0 0.61,0.18 0.86,0.55l1.83 2.97c-1.29,1.13 -2.6,1.93 -3.94,2.42 -1.57,0.55 -3.16,0.83 -4.77,0.83 -2.74,0 -4.91,-0.8 -6.5,-2.39 -1.52,-1.52 -2.28,-3.79 -2.28,-6.81l0 -21.95 -4.29 0c-0.41,0 -0.75,-0.09 -1,-0.28 -0.23,-0.16 -0.35,-0.52 -0.35,-1.07zm25.76 -0.9l0 -2.97 11.45 0 0 22.79c0,2.79 0.62,4.91 1.87,6.36 1.27,1.48 3.16,2.21 5.67,2.21l0 0.07c3.5,0 6.73,-1.65 9.68,-4.94l0 -21.26c-0.42,-0.14 -1.76,-0.41 -4.05,-0.83 -0.69,-0.14 -1.04,-0.59 -1.04,-1.35l0 -3.04 5.08 0 6.29 0 0 30.73c2.28,0.42 3.63,0.69 4.04,0.83 0.72,0.14 1.07,0.57 1.07,1.28l0 3.04 -8.85 0c-0.85,0 -1.42,-0.45 -1.7,-1.35l-0.52 -3.81c-3.37,3.81 -7.33,5.71 -11.89,5.71 -3.82,0 -6.8,-1.24 -8.92,-3.73 -2.08,-2.56 -3.11,-5.84 -3.11,-9.85l0 -17.7c-2.19,-0.39 -3.52,-0.67 -3.98,-0.83 -0.74,-0.14 -1.11,-0.59 -1.11,-1.35zm43.46 15c0,-5.46 1.4,-9.9 4.18,-13.31 2.88,-3.6 6.68,-5.39 11.41,-5.39l-0.07 0c3.99,0 7.26,1.42 9.81,4.25l0 -14.73c-2.74,-0.46 -4.32,-0.74 -4.73,-0.83 -0.71,-0.14 -1.07,-0.56 -1.07,-1.28l0 -3.11 12.03 0 0 46.98c2.23,0.41 3.6,0.7 4.11,0.86 0.67,0.14 1,0.57 1,1.28l0 3.11 -8.78 0c-0.85,0 -1.42,-0.45 -1.7,-1.35l-0.59 -4.32c-3.34,4.06 -7.35,6.09 -12.03,6.09 -4.17,0 -7.47,-1.56 -9.89,-4.67 -2.47,-3.25 -3.7,-7.78 -3.7,-13.59zm6.5 0c0,6.75 1.75,10.9 5.25,12.44 1.15,0.49 2.45,0.73 3.91,0.73l0.07 0.07c3.69,0 6.89,-1.82 9.61,-5.46l0 -17.28c-2.09,-2.81 -4.85,-4.22 -8.26,-4.22 -3.48,0 -6.11,1.18 -7.88,3.53 -1.8,2.37 -2.7,5.77 -2.7,10.2zm33.29 -0.86c0,-2.47 0.4,-4.77 1.21,-6.91 0.88,-2.31 1.98,-4.2 3.32,-5.67 1.43,-1.57 3.21,-2.82 5.33,-3.77 2.03,-0.9 4.36,-1.35 6.98,-1.35l-0.14 0c2.08,0 4.06,0.36 5.94,1.07 1.84,0.69 3.4,1.71 4.67,3.04 1.45,1.54 2.5,3.22 3.14,5.05 0.74,2.1 1.1,4.36 1.1,6.78 0,1.06 -0.09,1.72 -0.28,1.97 -0.25,0.35 -0.68,0.52 -1.28,0.52l-23.78 0c0,2.19 0.29,4.17 0.86,5.95 0.48,1.48 1.28,2.85 2.38,4.11 1.02,1.15 2.2,2 3.56,2.52 1.48,0.58 2.99,0.86 4.53,0.86 1.68,0 3.05,-0.16 4.11,-0.48 0.81,-0.25 1.8,-0.66 2.97,-1.21 0.81,-0.39 1.51,-0.77 2.11,-1.14 0.6,-0.37 1.07,-0.55 1.42,-0.55 0.53,0 0.93,0.21 1.21,0.62l1.76 2.35c-0.67,0.85 -1.61,1.65 -2.83,2.39 -1.52,0.92 -2.67,1.51 -3.46,1.76 -1.57,0.51 -2.85,0.84 -3.84,1.01 -1.43,0.23 -2.72,0.35 -3.87,0.35 -2.56,0 -4.85,-0.42 -6.88,-1.24 -2.03,-0.83 -3.85,-2.09 -5.46,-3.77 -1.48,-1.52 -2.65,-3.52 -3.52,-6.01 -0.85,-2.4 -1.28,-5.14 -1.28,-8.23zm6.5 -3.11l19.5 0c0,-1.36 -0.22,-2.67 -0.66,-3.94 -0.51,-1.45 -1.07,-2.52 -1.69,-3.21 -0.81,-0.88 -1.78,-1.56 -2.91,-2.04 -1.13,-0.48 -2.43,-0.72 -3.91,-0.72l0.07 -0.07c-3.07,0 -5.44,0.87 -7.12,2.63 -1.77,1.84 -2.87,4.3 -3.28,7.36zm29.31 21.81l0 -2.97c0,-0.76 0.32,-1.21 0.97,-1.35l4.11 -0.76 0 -25.58c-2.37,-0.44 -3.74,-0.71 -4.11,-0.83 -0.64,-0.14 -0.97,-0.59 -0.97,-1.35l0 -2.97 5.08 0 3.7 0c0.85,0 1.42,0.43 1.7,1.28l0.55 3.87 0 -0.07c3.52,-3.82 7.49,-5.74 11.89,-5.74 3.87,0 6.84,1.26 8.92,3.77 2.03,2.49 3.04,5.76 3.04,9.81l0 17.63c2.12,0.39 3.47,0.68 4.05,0.86 0.76,0.16 1.14,0.61 1.14,1.35l0 3.04 -11.48 0 0 -22.78c0,-5.76 -2.5,-8.64 -7.5,-8.64 -3.52,0 -6.79,1.67 -9.78,5.01l0 21.23c0.07,0 1.44,0.29 4.11,0.86 0.71,0.14 1.07,0.59 1.07,1.35l0 2.97 -16.49 0zm42.76 -31.94l0 -2.45 5.88 -0.8 1.42 -11.1c0,-0.37 0.14,-0.66 0.41,-0.86 0.25,-0.18 0.59,-0.27 1,-0.27l3.18 0 0 12.31 10.27 0 0 4.6 -10.27 0 0 21.54c0,1.57 0.35,2.7 1.04,3.39 0.71,0.71 1.68,1.07 2.91,1.07 0.55,0 1.15,-0.09 1.79,-0.28 0.35,-0.09 0.76,-0.29 1.24,-0.59 0.09,-0.05 0.24,-0.14 0.43,-0.28 0.2,-0.14 0.34,-0.23 0.43,-0.27 0.37,-0.19 0.6,-0.28 0.69,-0.28 0.32,0 0.61,0.18 0.86,0.55l1.83 2.97c-1.29,1.13 -2.6,1.93 -3.94,2.42 -1.57,0.55 -3.16,0.83 -4.77,0.83 -2.74,0 -4.91,-0.8 -6.5,-2.39 -1.52,-1.52 -2.28,-3.79 -2.28,-6.81l0 -21.95 -4.29 0c-0.41,0 -0.75,-0.09 -1,-0.28 -0.23,-0.16 -0.35,-0.52 -0.35,-1.07zm27.73 30.52l0 -9.33 2.56 0c0.55,0 0.9,0.28 1.04,0.83 0,0.07 0.02,0.26 0.05,0.57 0.03,0.31 0.09,0.86 0.17,1.64 0.08,0.78 0.16,1.56 0.22,2.31 1.87,0.95 4.3,1.42 7.3,1.42 2.28,0 4.11,-0.59 5.49,-1.76 1.24,-1.1 1.87,-2.3 1.87,-3.59 0,-1.34 -0.29,-2.33 -0.86,-2.97 -0.74,-0.83 -1.44,-1.41 -2.11,-1.73 -1.09,-0.53 -2.08,-0.9 -2.97,-1.1 -3.48,-1.13 -5.68,-1.89 -6.6,-2.28 -1.04,-0.46 -2.1,-1.12 -3.18,-1.97 -1.98,-1.64 -2.97,-3.86 -2.97,-6.67 0,-2.86 1.13,-5.27 3.39,-7.22 2.37,-2.08 5.72,-3.11 10.06,-3.11l-0.07 0c2.42,0 5.53,0.64 9.34,1.93l0 2.45 0 6.74 -2.73 0c-0.67,0 -1.07,-0.33 -1.21,-1.01 0,-0.05 -0.02,-0.23 -0.05,-0.55 -0.03,-0.32 -0.09,-0.88 -0.17,-1.68 -0.08,-0.8 -0.15,-1.61 -0.22,-2.44 -2.3,-0.53 -4.14,-0.79 -5.5,-0.79l-0.07 0c-1.91,0 -3.55,0.53 -4.91,1.59 -1.27,0.99 -1.9,2.08 -1.9,3.25 0,1.22 0.29,2.12 0.86,2.69 0.94,1.09 2.3,1.9 4.08,2.45 0.39,0.12 1.11,0.33 2.16,0.64 1.05,0.31 1.79,0.55 2.23,0.71l3.43 1.28c0.83,0.3 1.82,0.91 2.97,1.83 1.93,1.52 2.91,3.61 2.91,6.26 0,3.43 -1.16,6.16 -3.49,8.19 -2.53,2.21 -5.69,3.32 -9.47,3.32 -3.94,0 -7.82,-0.63 -11.62,-1.9z"/>
  <path class="fil0" d="M896.71 339.84c17.61,0 35.21,0.52 52.79,1.55 17.58,1.04 35.12,2.59 52.61,4.66 17.49,2.07 34.9,4.65 52.24,7.75 17.34,3.1 34.57,6.7 51.7,10.81 17.12,4.11 34.11,8.73 50.97,13.84 16.85,5.11 33.54,10.72 50.06,16.81 16.53,6.1 32.85,12.67 48.99,19.73 16.13,7.06 32.05,14.58 47.74,22.58 15.69,8 31.14,16.45 46.33,25.35 15.19,8.9 30.11,18.25 44.75,28.04 14.64,9.78 28.99,19.99 43.03,30.62 14.04,10.63 27.76,21.67 41.15,33.1 13.39,11.44 26.43,23.26 39.13,35.47 12.69,12.2 25.02,24.77 36.97,37.71 11.96,12.93 23.52,26.2 34.69,39.82 11.17,13.62 21.94,27.55 32.29,41.8 10.35,14.25 20.27,28.79 29.77,43.62 9.5,14.83 18.55,29.93 27.15,45.3 8.61,15.36 16.75,30.97 24.44,46.82 7.69,15.85 14.9,31.91 21.64,48.18 6.74,16.27 12.99,32.72 18.76,49.37 5.77,16.64 11.04,33.43 15.83,50.38 4.78,16.95 9.06,34.03 12.83,51.23 3.77,17.2 7.04,34.5 9.8,51.9 2.75,17.39 5,34.86 6.72,52.38 1.73,17.53 2.93,35.09 3.63,52.69 0.69,17.6 0.86,35.2 0.52,52.81 -0.35,17.61 -1.21,35.19 -2.59,52.75 -1.38,17.56 -3.28,35.06 -5.69,52.51 -2.41,17.44 -5.34,34.8 -8.77,52.08 -3.44,17.27 -7.37,34.43 -11.83,51.47 -4.45,17.04 -9.39,33.94 -14.83,50.69l-426.41 -138.55c2.72,-8.37 5.19,-16.82 7.42,-25.34 2.22,-8.52 4.2,-17.1 5.91,-25.74 1.72,-8.63 3.18,-17.31 4.39,-26.04 1.21,-8.72 2.15,-17.47 2.85,-26.25 0.69,-8.78 1.12,-17.57 1.3,-26.37 0.17,-8.81 0.08,-17.61 -0.26,-26.4 -0.35,-8.8 -0.95,-17.58 -1.81,-26.34 -0.86,-8.76 -1.98,-17.5 -3.36,-26.19 -1.38,-8.7 -3.01,-17.35 -4.9,-25.95 -1.89,-8.6 -4.03,-17.14 -6.42,-25.62 -2.39,-8.48 -5.03,-16.87 -7.91,-25.19 -2.88,-8.32 -6.01,-16.55 -9.38,-24.68 -3.37,-8.14 -6.98,-16.17 -10.82,-24.09 -3.84,-7.92 -7.91,-15.72 -12.22,-23.41 -4.3,-7.69 -8.83,-15.24 -13.57,-22.65 -4.75,-7.42 -9.71,-14.69 -14.89,-21.81 -5.17,-7.12 -10.56,-14.09 -16.14,-20.9 -5.59,-6.81 -11.37,-13.44 -17.34,-19.91 -5.98,-6.47 -12.14,-12.75 -18.49,-18.85 -6.35,-6.1 -12.87,-12.01 -19.56,-17.74 -6.7,-5.72 -13.55,-11.24 -20.58,-16.55 -7.02,-5.32 -14.19,-10.42 -21.51,-15.31 -7.32,-4.89 -14.78,-9.57 -22.38,-14.02 -7.6,-4.45 -15.32,-8.68 -23.16,-12.68 -7.85,-3.99 -15.8,-7.76 -23.87,-11.29 -8.07,-3.53 -16.23,-6.82 -24.5,-9.86 -8.26,-3.05 -16.61,-5.85 -25.03,-8.41 -8.43,-2.56 -16.92,-4.86 -25.49,-6.92 -8.56,-2.06 -17.18,-3.86 -25.85,-5.41 -8.67,-1.55 -17.38,-2.84 -26.12,-3.88 -8.74,-1.04 -17.51,-1.81 -26.31,-2.33 -8.79,-0.52 -17.59,-0.78 -26.39,-0.78l0 -448.35z"/>
  <path class="fil2" d="M1749.53 1513.65c-8.47,26.07 -18.11,51.69 -28.93,76.87 -10.82,25.18 -22.77,49.82 -35.84,73.9 -13.08,24.09 -27.23,47.52 -42.46,70.31 -15.23,22.79 -31.47,44.83 -48.71,66.13 -17.25,21.3 -35.43,41.77 -54.56,61.4 -19.12,19.63 -39.11,38.35 -59.95,56.15 -20.84,17.8 -42.45,34.61 -64.83,50.43 -22.38,15.82 -45.44,30.58 -69.17,44.28 -23.74,13.7 -48.05,26.29 -72.94,37.77 -24.89,11.48 -50.25,21.79 -76.09,30.93 -25.83,9.15 -52.03,17.1 -78.59,23.85 -26.56,6.75 -53.38,12.26 -80.45,16.55 -27.07,4.29 -54.28,7.33 -81.63,9.12 -27.35,1.79 -54.72,2.33 -82.12,1.62 -27.4,-0.72 -54.71,-2.69 -81.92,-5.91 -27.22,-3.22 -54.23,-7.68 -81.04,-13.38 -26.81,-5.7 -53.3,-12.61 -79.47,-20.74 -26.17,-8.13 -51.92,-17.43 -77.24,-27.92 -25.32,-10.49 -50.11,-22.11 -74.36,-34.87 -24.25,-12.76 -47.88,-26.61 -70.86,-41.53 -22.99,-14.92 -45.24,-30.87 -66.77,-47.84 -21.52,-16.97 -42.22,-34.88 -62.11,-53.75 -19.88,-18.87 -38.86,-38.6 -56.93,-59.2 -18.07,-20.61 -35.16,-41.99 -51.27,-64.17 -16.11,-22.17 -31.17,-45.04 -45.19,-68.59 -14.01,-23.55 -26.92,-47.7 -38.72,-72.43 -11.8,-24.74 -22.44,-49.96 -31.93,-75.67 -9.49,-25.71 -17.78,-51.81 -24.88,-78.28 -7.09,-26.47 -12.96,-53.21 -17.61,-80.23 -4.64,-27.01 -8.04,-54.18 -10.19,-81.5 -2.15,-27.32 -3.05,-54.68 -2.69,-82.09 0.36,-27.41 1.97,-54.74 4.83,-81.99 2.86,-27.26 6.97,-54.33 12.31,-81.2 5.35,-26.88 11.91,-53.46 19.69,-79.74 7.78,-26.28 16.75,-52.15 26.9,-77.6 10.16,-25.46 21.45,-50.4 33.89,-74.82 12.44,-24.42 25.97,-48.22 40.6,-71.4 14.62,-23.18 30.27,-45.64 46.96,-67.39 16.68,-21.75 34.33,-42.68 52.93,-62.81 18.6,-20.13 38.09,-39.36 58.45,-57.7 20.36,-18.34 41.53,-35.71 63.48,-52.11 21.96,-16.4 44.62,-31.76 67.99,-46.09 23.37,-14.32 47.34,-27.54 71.92,-39.67 24.58,-12.12 49.66,-23.1 75.25,-32.92 25.58,-9.83 51.57,-18.46 77.95,-25.9 26.38,-7.44 53.04,-13.66 79.99,-18.66 26.95,-5 54.07,-8.75 81.36,-11.26 27.29,-2.51 54.64,-3.77 82.05,-3.77l0.05 448.35c-13.7,0 -27.38,0.63 -41.03,1.89 -13.65,1.26 -27.2,3.13 -40.68,5.63 -13.47,2.5 -26.8,5.61 -39.99,9.33 -13.19,3.72 -26.18,8.04 -38.97,12.95 -12.79,4.91 -25.33,10.4 -37.62,16.46 -12.29,6.06 -24.28,12.67 -35.96,19.83 -11.68,7.16 -23.01,14.84 -33.99,23.04 -10.98,8.2 -21.56,16.89 -31.75,26.06 -10.18,9.17 -19.92,18.79 -29.23,28.85 -9.3,10.06 -18.12,20.53 -26.46,31.4 -8.34,10.87 -16.17,22.11 -23.48,33.7 -7.31,11.59 -14.08,23.49 -20.3,35.7 -6.22,12.21 -11.87,24.68 -16.94,37.41 -5.08,12.73 -9.56,25.66 -13.45,38.8 -3.89,13.14 -7.17,26.43 -9.84,39.87 -2.67,13.44 -4.73,26.98 -6.16,40.6 -1.43,13.63 -2.24,27.29 -2.42,40.99 -0.18,13.7 0.27,27.39 1.35,41.05 1.08,13.66 2.78,27.24 5.1,40.75 2.32,13.51 5.25,26.87 8.8,40.11 3.55,13.24 7.69,26.28 12.44,39.14 4.75,12.86 10.07,25.47 15.97,37.84 5.9,12.37 12.35,24.44 19.36,36.21 7.01,11.78 14.54,23.21 22.6,34.3 8.05,11.09 16.6,21.78 25.63,32.08 9.04,10.3 18.52,20.17 28.47,29.6 9.94,9.43 20.29,18.39 31.05,26.87 10.76,8.49 21.89,16.46 33.38,23.92 11.49,7.47 23.3,14.39 35.43,20.77 12.13,6.38 24.52,12.19 37.18,17.44 12.66,5.24 25.54,9.9 38.62,13.96 13.08,4.06 26.33,7.52 39.74,10.36 13.4,2.85 26.91,5.08 40.52,6.69 13.61,1.61 27.26,2.59 40.96,2.96 13.7,0.36 27.38,0.09 41.06,-0.81 13.67,-0.9 27.28,-2.42 40.81,-4.56 13.53,-2.14 26.94,-4.91 40.22,-8.28 13.28,-3.37 26.38,-7.35 39.3,-11.92 12.92,-4.58 25.6,-9.73 38.04,-15.47 12.44,-5.74 24.6,-12.03 36.47,-18.88 11.87,-6.86 23.4,-14.23 34.59,-22.14 11.19,-7.91 22,-16.31 32.42,-25.21 10.42,-8.9 20.41,-18.26 29.97,-28.07 9.56,-9.81 18.65,-20.05 27.28,-30.7 8.62,-10.65 16.74,-21.67 24.36,-33.07 7.61,-11.39 14.69,-23.11 21.23,-35.15 6.54,-12.05 12.51,-24.36 17.92,-36.95 5.41,-12.59 10.23,-25.4 14.47,-38.44l426.41 138.55z"/>
 </g>
</svg>
