<?xml version="1.0" encoding="UTF-8"?>
<!DOCTYPE svg PUBLIC "-//W3C//DTD SVG 1.1//EN" "http://www.w3.org/Graphics/SVG/1.1/DTD/svg11.dtd">
<!-- Creator: CorelDRAW -->
<svg xmlns="http://www.w3.org/2000/svg" xml:space="preserve" width="0.422594in" height="0.436681in" version="1.1" style="shape-rendering:geometricPrecision; text-rendering:geometricPrecision; image-rendering:optimizeQuality; fill-rule:evenodd; clip-rule:evenodd"
viewBox="0 0 11.65 12.04"
 xmlns:xlink="http://www.w3.org/1999/xlink"
 xmlns:xodm="http://www.corel.com/coreldraw/odm/2003">
 <defs>
  <style type="text/css">
   <![CDATA[
    .fil0 {fill:white;fill-rule:nonzero}
   ]]>
  </style>
 </defs>
 <g id="Layer_x0020_1">
  <metadata id="CorelCorpID_0Corel-Layer"/>
  <g id="_2876142742096">
   <path class="fil0" d="M10.29 6.41c-0.1,2.37 -2.06,4.27 -4.46,4.27 -2.4,0 -4.36,-1.9 -4.46,-4.27l-1.36 0 0 0.39 0.64 0c0.1,0 0.18,0.07 0.19,0.17 0.12,0.81 0.44,1.59 0.93,2.25 0.06,0.08 0.05,0.18 -0.02,0.25l-0.45 0.45 0.82 0.82 0.45 -0.45c0.07,-0.07 0.18,-0.08 0.25,-0.02 0.66,0.49 1.44,0.81 2.25,0.93 0.1,0.01 0.17,0.1 0.17,0.19l0 0.64 1.17 0 0 -0.64c0,-0.1 0.07,-0.18 0.17,-0.19 0.81,-0.12 1.59,-0.44 2.25,-0.93 0.08,-0.06 0.18,-0.05 0.25,0.02l0.45 0.45 0.82 -0.82 -0.45 -0.45c-0.07,-0.07 -0.08,-0.18 -0.02,-0.25 0.49,-0.66 0.81,-1.44 0.93,-2.25 0.01,-0.1 0.1,-0.17 0.19,-0.17l0.64 0 0 -0.39 -1.36 0z"/>
   <path class="fil0" d="M5.83 10.29c2.18,0 3.97,-1.72 4.07,-3.88l-1.75 0c-0.1,1.19 -1.1,2.14 -2.32,2.14 -1.22,0 -2.22,-0.94 -2.32,-2.14l-1.75 0c0.1,2.16 1.89,3.88 4.07,3.88z"/>
   <path class="fil0" d="M5.83 8.15c1.01,0 1.83,-0.77 1.93,-1.75l-3.86 0c0.1,0.98 0.93,1.75 1.93,1.75z"/>
   <polygon class="fil0" points="2.14,5.26 2.14,6.02 3.11,6.02 3.11,4.71 "/>
   <polygon class="fil0" points="4.27,4.29 4.27,6.02 5.24,6.02 5.24,3.74 "/>
   <polygon class="fil0" points="6.41,3.13 6.41,6.02 7.38,6.02 7.38,2.57 "/>
   <polygon class="fil0" points="9.51,1.41 8.54,1.96 8.54,6.02 9.51,6.02 "/>
   <path class="fil0" d="M1.75 4.18c0.03,0 0.07,-0.01 0.1,-0.03l5.87 -3.35 -0.1 0.34c-0.03,0.1 0.03,0.21 0.13,0.24 0.02,0.01 0.04,0.01 0.06,0.01 0.08,0 0.16,-0.05 0.19,-0.14l0.24 -0.8c0,-0 0,-0.01 0,-0.01 0.01,-0.05 0.01,-0.1 -0.02,-0.15 -0.03,-0.05 -0.07,-0.08 -0.12,-0.09l-0.82 -0.2c-0.1,-0.03 -0.21,0.04 -0.23,0.14 -0.03,0.1 0.04,0.21 0.14,0.23l0.35 0.09 -5.87 3.35c-0.09,0.05 -0.13,0.17 -0.07,0.26 0.04,0.06 0.1,0.1 0.17,0.1z"/>
  </g>
 </g>
</svg>
