<?xml version="1.0" encoding="UTF-8"?>
<!DOCTYPE svg PUBLIC "-//W3C//DTD SVG 1.1//EN" "http://www.w3.org/Graphics/SVG/1.1/DTD/svg11.dtd">
<!-- Creator: CorelDRAW -->
<svg xmlns="http://www.w3.org/2000/svg" xml:space="preserve" width="0.593413in" height="0.454591in" version="1.1" style="shape-rendering:geometricPrecision; text-rendering:geometricPrecision; image-rendering:optimizeQuality; fill-rule:evenodd; clip-rule:evenodd"
viewBox="0 0 8.37 6.41"
 xmlns:xlink="http://www.w3.org/1999/xlink"
 xmlns:xodm="http://www.corel.com/coreldraw/odm/2003">
 <defs>
  <style type="text/css">
   <![CDATA[
    .fil0 {fill:white;fill-rule:nonzero}
   ]]>
  </style>
 </defs>
 <g id="Layer_x0020_1">
  <metadata id="CorelCorpID_0Corel-Layer"/>
  <g id="_2417302513776">
   <path class="fil0" d="M2.67 3.44c0.04,0.19 -0.07,0.34 -0.24,0.34l-0.31 0 -0.03 0.36 -0.16 1.93c-0.02,0.19 -0.16,0.35 -0.32,0.35l-0.58 0c-0.16,0 -0.3,-0.16 -0.32,-0.35l-0.15 -1.93 -0.03 -0.35 -0.3 0c-0.17,0 -0.26,-0.15 -0.22,-0.34l0.31 -1.42c0.04,-0.19 0.23,-0.34 0.42,-0.34l0.25 0 0.69 0 0.25 0c0.19,0 0.38,0.15 0.42,0.34l0.31 1.42zm-0.64 -2.74c0,-0.38 -0.31,-0.69 -0.69,-0.69 -0.38,0 -0.69,0.31 -0.69,0.69 0,0.38 0.31,0.69 0.69,0.69 0.38,0 0.69,-0.31 0.69,-0.69z"/>
   <path class="fil0" d="M5.33 2.79c0.04,0.15 -0.06,0.27 -0.19,0.27l-0.25 0 -0.02 0.28 -0.12 1.56c-0.01,0.15 -0.13,0.28 -0.26,0.28l-0.47 0c-0.13,0 -0.24,-0.12 -0.26,-0.28l-0.13 -1.56 -0.03 -0.28 -0.24 0c-0.13,0 -0.22,-0.12 -0.19,-0.27l0.25 -1.15c0.04,-0.15 0.19,-0.27 0.34,-0.27l0.21 0 0.56 0 0.21 0c0.16,0 0.31,0.12 0.34,0.27l0.26 1.15zm-0.52 -2.22c0,-0.31 -0.25,-0.56 -0.56,-0.56 -0.31,0 -0.56,0.25 -0.56,0.56 0,0.31 0.25,0.56 0.56,0.56 0.31,0 0.56,-0.25 0.56,-0.56z"/>
   <path class="fil0" d="M4.26 6.41c-0.3,0 -0.59,0 -0.89,0 -0.21,0 -0.3,-0.06 -0.31,-0.21 -0.01,-0.22 -0.01,-0.44 0,-0.66 0,-0.14 0.1,-0.22 0.3,-0.22 0.59,0 1.19,0 1.78,0 0.22,0 0.3,0.07 0.31,0.22 0,0.22 0,0.43 0,0.64 0,0.15 -0.09,0.21 -0.3,0.21 -0.3,0.01 -0.6,0.01 -0.89,0.01z"/>
   <path class="fil0" d="M8.05 2.26c0.03,0.12 -0.05,0.22 -0.16,0.22l-0.21 0 -0.02 0.22 -0.1 1.27c-0.01,0.12 -0.1,0.22 -0.21,0.22l-0.38 0c-0.1,0 -0.2,-0.1 -0.21,-0.22l-0.1 -1.27 -0.02 -0.22 -0.2 0c-0.11,0 -0.18,-0.1 -0.15,-0.22l0.21 -0.94c0.03,-0.12 0.15,-0.22 0.28,-0.22l0.17 0 0.46 0 0.17 0c0.12,0 0.25,0.1 0.28,0.22l0.19 0.94zm-0.42 -1.8c0,-0.25 -0.21,-0.46 -0.46,-0.46 -0.25,0 -0.46,0.21 -0.46,0.46 0,0.25 0.21,0.46 0.46,0.46 0.25,0 0.46,-0.21 0.46,-0.46z"/>
   <path class="fil0" d="M7.18 6.41c-0.3,0 -0.59,0 -0.89,0 -0.21,0 -0.3,-0.11 -0.31,-0.39 -0.01,-0.41 -0.01,-0.83 0,-1.25 0,-0.27 0.1,-0.4 0.3,-0.41 0.59,-0.01 1.19,-0.01 1.78,0 0.22,0 0.3,0.13 0.31,0.43 0,0.4 0,0.82 0,1.22 0,0.28 -0.09,0.39 -0.3,0.4 -0.3,0 -0.59,0 -0.89,0z"/>
  </g>
 </g>
</svg>
