<?xml version="1.0" encoding="UTF-8"?>
<!DOCTYPE svg PUBLIC "-//W3C//DTD SVG 1.1//EN" "http://www.w3.org/Graphics/SVG/1.1/DTD/svg11.dtd">
<!-- Creator: CorelDRAW -->
<svg xmlns="http://www.w3.org/2000/svg" xml:space="preserve" width="0.640791in" height="0.641728in" version="1.1" style="shape-rendering:geometricPrecision; text-rendering:geometricPrecision; image-rendering:optimizeQuality; fill-rule:evenodd; clip-rule:evenodd"
viewBox="0 0 9.16 9.17"
 xmlns:xlink="http://www.w3.org/1999/xlink"
 xmlns:xodm="http://www.corel.com/coreldraw/odm/2003">
 <defs>
  <style type="text/css">
   <![CDATA[
    .fil0 {fill:white;fill-rule:nonzero}
   ]]>
  </style>
 </defs>
 <g id="Layer_x0020_1">
  <metadata id="CorelCorpID_0Corel-Layer"/>
  <path class="fil0" d="M8.5 4.14c0.02,0.14 0.03,0.28 0.04,0.42l-0.28 0c-0.07,0.11 -0.14,0.23 -0.22,0.34l0.49 0c-0.04,0.94 -0.39,1.79 -0.95,2.46 -0.28,-0.16 -0.59,-0.29 -0.93,-0.41 0.05,-0.16 0.1,-0.32 0.14,-0.49 -0.1,0.11 -0.2,0.21 -0.3,0.31 -0.13,0.13 -0.25,0.25 -0.38,0.37 0.04,0.01 0.07,0.02 0.11,0.02 -0.37,0.92 -0.95,1.55 -1.61,1.64l0 -0.49c-0.11,0.08 -0.23,0.15 -0.34,0.22l0 0.27c-0.11,-0.02 -0.21,-0.05 -0.31,-0.09 -0.21,0.11 -0.42,0.21 -0.62,0.3 0.35,0.09 0.72,0.14 1.1,0.14 1.27,0 2.4,-0.53 3.21,-1.38 0.08,-0.08 0.15,-0.16 0.22,-0.25 0.63,-0.77 1.01,-1.75 1.01,-2.82 0,-0.38 -0.05,-0.75 -0.14,-1.11 -0.08,0.17 -0.16,0.34 -0.25,0.52zm-2.85 4.51c0.36,-0.33 0.67,-0.81 0.9,-1.38 0.3,0.1 0.57,0.21 0.81,0.34 -0.47,0.48 -1.06,0.84 -1.71,1.04z"/>
  <path class="fil0" d="M1.01 7.55c0.07,0.09 0.15,0.17 0.22,0.25 0.22,0.23 0.46,0.43 0.72,0.61 0.15,-0.02 0.31,-0.06 0.47,-0.11 -0.33,-0.19 -0.63,-0.41 -0.89,-0.68 0.24,-0.13 0.52,-0.25 0.81,-0.34 0.13,0.33 0.29,0.62 0.47,0.88 0.1,-0.04 0.2,-0.09 0.31,-0.13 -0.17,-0.24 -0.33,-0.52 -0.45,-0.83 0.49,-0.13 1.03,-0.21 1.61,-0.22l0 0.37c0.11,-0.08 0.23,-0.16 0.34,-0.25l0 -0.12c0.05,0 0.09,0.01 0.14,0.01 0.13,-0.1 0.26,-0.21 0.38,-0.32 -0.17,-0.02 -0.35,-0.03 -0.53,-0.03l0 -1.72 2.05 0c-0,0.06 -0.01,0.12 -0.01,0.18 0.14,-0.17 0.27,-0.34 0.39,-0.52l-0.04 0c-0.02,-0.75 -0.14,-1.45 -0.34,-2.06 0.34,-0.11 0.65,-0.25 0.93,-0.41 0.16,0.19 0.3,0.39 0.42,0.61 0.05,-0.17 0.09,-0.32 0.11,-0.47 -0.07,-0.11 -0.15,-0.22 -0.24,-0.32 -0.07,-0.09 -0.15,-0.17 -0.22,-0.25 -0.81,-0.85 -1.95,-1.38 -3.21,-1.38 -1.27,0 -2.4,0.53 -3.21,1.38 -0.08,0.08 -0.15,0.16 -0.22,0.25 -0.63,0.77 -1.01,1.75 -1.01,2.82 0,1.07 0.38,2.05 1.01,2.82zm6.35 -5.71c-0.24,0.13 -0.52,0.25 -0.81,0.34 -0.23,-0.57 -0.54,-1.05 -0.9,-1.38 0.66,0.2 1.24,0.56 1.71,1.04zm-2.75 -1.2c0.66,0.09 1.24,0.72 1.61,1.64 -0.49,0.13 -1.03,0.21 -1.61,0.22l0 -1.86 0 0zm0 2.2c0.62,-0.01 1.2,-0.1 1.73,-0.24 0.19,0.58 0.31,1.24 0.32,1.96l-2.05 0 0 -1.72zm-0.34 3.77c-0.62,0.01 -1.2,0.1 -1.73,0.24 -0.19,-0.58 -0.31,-1.24 -0.32,-1.96l2.05 0 0 1.72zm0 -2.06l-2.05 0c0.02,-0.72 0.13,-1.38 0.32,-1.96 0.53,0.14 1.11,0.23 1.73,0.24l0 1.72zm0 -3.92l0 1.86c-0.58,-0.01 -1.12,-0.09 -1.61,-0.22 0.37,-0.92 0.95,-1.55 1.61,-1.64zm-1.03 0.16c-0.36,0.33 -0.67,0.81 -0.9,1.38 -0.3,-0.1 -0.57,-0.21 -0.81,-0.34 0.47,-0.48 1.06,-0.84 1.71,-1.04zm-1.94 1.29c0.28,0.16 0.59,0.29 0.93,0.41 -0.2,0.61 -0.33,1.31 -0.34,2.06l-1.54 0c0.04,-0.94 0.39,-1.79 0.95,-2.46zm0.58 2.81c0.02,0.75 0.14,1.45 0.34,2.06 -0.34,0.11 -0.65,0.25 -0.93,0.41 -0.56,-0.67 -0.91,-1.53 -0.95,-2.46l1.54 0 0 0z"/>
  <path class="fil0" d="M2.97 8.82c1.07,-0.42 2.24,-1.23 3.29,-2.28 1.05,-1.05 1.86,-2.22 2.28,-3.29 0.4,-1.02 0.4,-1.86 0.01,-2.37l0.35 -0.09 0.25 -0.07 -0.45 -0.19 -0.38 -0.16 -0.86 -0.36 0.36 0.86 0.17 0.42 0.13 0.3 0.05 0.11 0.15 -0.56c0.26,0.43 0.23,1.13 -0.1,1.99 -0.4,1.03 -1.18,2.16 -2.2,3.17 -1.02,1.02 -2.15,1.8 -3.17,2.2 -0.47,0.19 -0.9,0.28 -1.27,0.28 -0.38,-0 -0.68,-0.1 -0.88,-0.3 -0.25,-0.25 -0.35,-0.66 -0.28,-1.17 -0.1,-0.15 -0.18,-0.3 -0.26,-0.46 -0.2,0.82 -0.1,1.48 0.3,1.88 0.27,0.27 0.65,0.41 1.12,0.41 0,0 0,0 0,0 0.41,0 0.87,-0.1 1.39,-0.3z"/>
 </g>
</svg>
