<?xml version="1.0" encoding="UTF-8"?>
<!DOCTYPE svg PUBLIC "-//W3C//DTD SVG 1.1//EN" "http://www.w3.org/Graphics/SVG/1.1/DTD/svg11.dtd">
<!-- Creator: CorelDRAW -->
<svg xmlns="http://www.w3.org/2000/svg" xml:space="preserve" width="0.444346in" height="0.379575in" version="1.1" style="shape-rendering:geometricPrecision; text-rendering:geometricPrecision; image-rendering:optimizeQuality; fill-rule:evenodd; clip-rule:evenodd"
viewBox="0 0 11.28 9.64"
 xmlns:xlink="http://www.w3.org/1999/xlink"
 xmlns:xodm="http://www.corel.com/coreldraw/odm/2003">
 <defs>
  <style type="text/css">
   <![CDATA[
    .fil0 {fill:white;fill-rule:nonzero}
   ]]>
  </style>
 </defs>
 <g id="Layer_x0020_1">
  <metadata id="CorelCorpID_0Corel-Layer"/>
  <g id="_2876016492400">
   <path class="fil0" d="M7.9 7.92c0.34,-0.52 0.11,-1.22 -0.5,-1.45 -0.23,-0.08 -0.48,-0.08 -0.69,0.02 -0.38,0.17 -0.59,0.52 -0.59,0.9 0,0.19 0.06,0.38 0.15,0.54 -0.29,0.19 -0.48,0.52 -0.48,0.88l0 0.65c0,0.11 0.08,0.19 0.19,0.19 0.11,0 0.19,-0.08 0.19,-0.19l0 -0.65c0,-0.25 0.13,-0.48 0.36,-0.61l0.02 0.02c0.02,0.02 0.04,0.02 0.06,0.04l0.08 0.04c0.02,0.02 0.06,0.02 0.1,0.04l0.04 0c0.17,0.06 0.34,0.06 0.52,0l0.04 0c0.04,0 0.06,-0.02 0.1,-0.04 0.02,0 0.06,-0.02 0.08,-0.04l0.06 -0.04 0.02 -0.02c0.23,0.11 0.36,0.34 0.36,0.61l0 0.65c0,0.11 0.08,0.19 0.19,0.19 0.11,0 0.19,-0.08 0.19,-0.19l0 -0.65c0,-0.34 -0.17,-0.67 -0.48,-0.88zm-0.8 -1.11c0.33,0 0.59,0.25 0.59,0.57 0,0.17 -0.08,0.34 -0.21,0.46 -0.15,0.13 -0.38,0.17 -0.57,0.1 -0.04,-0.02 -0.06,-0.02 -0.1,-0.04 -0.04,-0.02 -0.06,-0.04 -0.1,-0.06 -0.13,-0.11 -0.21,-0.27 -0.21,-0.46 0,-0.31 0.27,-0.57 0.59,-0.57z"/>
   <path class="fil0" d="M10.8 7.92c0.34,-0.52 0.11,-1.22 -0.5,-1.45 -0.23,-0.08 -0.48,-0.08 -0.69,0.02 -0.38,0.17 -0.59,0.52 -0.59,0.9 0,0.19 0.06,0.38 0.15,0.54 -0.29,0.19 -0.48,0.52 -0.48,0.88l0 0.65c0,0.11 0.08,0.19 0.19,0.19 0.11,0 0.19,-0.08 0.19,-0.19l0 -0.65c0,-0.25 0.13,-0.48 0.36,-0.61l0.02 0.02c0.02,0.02 0.04,0.02 0.06,0.04l0.08 0.04c0.02,0.02 0.06,0.02 0.1,0.04l0.04 0c0.17,0.06 0.34,0.06 0.52,0l0.04 0c0.04,0 0.06,-0.02 0.1,-0.04 0.02,0 0.06,-0.02 0.08,-0.04l0.06 -0.04 0.02 -0.02c0.23,0.11 0.36,0.34 0.36,0.61l0 0.65c0,0.11 0.08,0.19 0.19,0.19 0.11,0 0.19,-0.08 0.19,-0.19l0 -0.65c-0.02,-0.34 -0.19,-0.67 -0.48,-0.88zm-0.82 -1.11c0.33,0 0.59,0.25 0.59,0.57 0,0.17 -0.08,0.34 -0.21,0.46 -0.15,0.13 -0.38,0.17 -0.57,0.1 -0.04,-0.02 -0.06,-0.02 -0.1,-0.04 -0.04,-0.02 -0.06,-0.04 -0.1,-0.06 -0.13,-0.11 -0.21,-0.27 -0.21,-0.46 0.02,-0.31 0.29,-0.57 0.59,-0.57z"/>
   <path class="fil0" d="M5.01 7.92c0.34,-0.52 0.11,-1.22 -0.5,-1.45 -0.23,-0.08 -0.48,-0.08 -0.69,0.02 -0.38,0.17 -0.59,0.52 -0.59,0.9 0,0.19 0.06,0.38 0.15,0.54 -0.29,0.19 -0.48,0.52 -0.48,0.88l0 0.65c0,0.11 0.08,0.19 0.19,0.19 0.11,0 0.19,-0.08 0.19,-0.19l0 -0.65c0,-0.25 0.13,-0.48 0.36,-0.61l0.02 0.02c0.02,0.02 0.04,0.02 0.06,0.04l0.08 0.04c0.02,0.02 0.06,0.02 0.1,0.04l0.04 0c0.17,0.06 0.34,0.06 0.52,0l0.04 0c0.04,0 0.06,-0.02 0.1,-0.04 0.02,0 0.06,-0.02 0.08,-0.04l0.06 -0.04 0.02 -0.02c0.23,0.11 0.36,0.34 0.36,0.61l0 0.65c0,0.11 0.08,0.19 0.19,0.19 0.11,0 0.19,-0.08 0.19,-0.19l0 -0.65c-0.02,-0.34 -0.19,-0.67 -0.48,-0.88zm-0.82 -1.11c0.33,0 0.59,0.25 0.59,0.57 0,0.17 -0.08,0.34 -0.21,0.46 -0.15,0.13 -0.38,0.17 -0.57,0.1 -0.04,-0.02 -0.06,-0.02 -0.1,-0.04 -0.04,-0.02 -0.06,-0.04 -0.1,-0.06 -0.13,-0.11 -0.21,-0.27 -0.21,-0.46 0.02,-0.31 0.27,-0.57 0.59,-0.57z"/>
   <path class="fil0" d="M2.1 7.92c0.34,-0.52 0.11,-1.22 -0.5,-1.45 -0.23,-0.08 -0.48,-0.08 -0.69,0.02 -0.38,0.17 -0.59,0.52 -0.59,0.9 0,0.19 0.06,0.38 0.15,0.54 -0.29,0.19 -0.48,0.52 -0.48,0.88l0 0.65c0,0.11 0.08,0.19 0.19,0.19 0.11,0 0.19,-0.08 0.19,-0.19l0 -0.65c0,-0.25 0.13,-0.48 0.36,-0.61l0.02 0.02c0.02,0.02 0.04,0.02 0.06,0.04l0.08 0.04c0.02,0.02 0.06,0.02 0.1,0.04l0.04 0c0.17,0.06 0.34,0.06 0.52,0l0.04 0c0.04,0 0.06,-0.02 0.1,-0.04 0.02,0 0.06,-0.02 0.08,-0.04l0.06 -0.04 0.02 -0.02c0.23,0.11 0.36,0.34 0.36,0.61l0 0.65c0,0.11 0.08,0.19 0.19,0.19 0.11,0 0.19,-0.08 0.19,-0.19l0 -0.65c0,-0.34 -0.19,-0.67 -0.48,-0.88zm-0.8 -1.11c0.33,0 0.59,0.25 0.59,0.57 0,0.17 -0.08,0.34 -0.21,0.46 -0.15,0.13 -0.38,0.17 -0.57,0.1 -0.04,-0.02 -0.06,-0.02 -0.1,-0.04 -0.04,-0.02 -0.06,-0.04 -0.1,-0.06 -0.13,-0.11 -0.21,-0.27 -0.21,-0.46 0,-0.31 0.27,-0.57 0.59,-0.57z"/>
   <path class="fil0" d="M6.44 4.36c0.34,-0.52 0.11,-1.22 -0.5,-1.45 -0.23,-0.08 -0.48,-0.08 -0.69,0.02 -0.38,0.17 -0.59,0.52 -0.59,0.9 0,0.19 0.06,0.38 0.15,0.54 -0.29,0.19 -0.48,0.52 -0.48,0.88l0 0.65c0,0.11 0.08,0.19 0.19,0.19 0.11,0 0.19,-0.08 0.19,-0.19l0 -0.65c0,-0.25 0.13,-0.48 0.36,-0.61l0.02 0.02c0.02,0.02 0.04,0.02 0.06,0.04l0.1 0.02c0.02,0.02 0.06,0.02 0.1,0.04l0.04 0c0.17,0.06 0.34,0.06 0.52,0l0.04 0c0.04,0 0.06,-0.02 0.1,-0.04 0.02,0 0.06,-0.02 0.08,-0.04l0.06 -0.04 0.02 -0.02c0.23,0.11 0.36,0.34 0.36,0.61l0 0.65c0,0.11 0.08,0.19 0.19,0.19 0.11,0 0.19,-0.08 0.19,-0.19l0 -0.65c-0.02,-0.34 -0.19,-0.67 -0.5,-0.86zm-0.8 -1.13c0.33,0 0.59,0.25 0.59,0.57 0,0.17 -0.08,0.34 -0.21,0.46 -0.15,0.13 -0.38,0.17 -0.57,0.1 -0.04,-0.02 -0.06,-0.02 -0.1,-0.04 -0.04,-0.02 -0.06,-0.04 -0.1,-0.06 -0.13,-0.11 -0.21,-0.27 -0.21,-0.46 0,-0.31 0.27,-0.57 0.59,-0.57z"/>
   <path class="fil0" d="M10.29 5.79l-2.54 0c-0.11,0 -0.19,-0.08 -0.19,-0.19 0,-0.11 0.08,-0.19 0.19,-0.19l2.54 0c0.11,0 0.19,-0.08 0.19,-0.19l0 -4.65c0,-0.11 -0.08,-0.19 -0.19,-0.19l-9.29 0c-0.11,0 -0.19,0.08 -0.19,0.19l0 4.65c0,0.11 0.08,0.19 0.19,0.19l2.54 0c0.11,0 0.19,0.08 0.19,0.19 0,0.11 -0.08,0.19 -0.19,0.19l-2.54 0c-0.33,0 -0.57,-0.25 -0.57,-0.57l0 -4.65c0,-0.33 0.25,-0.57 0.57,-0.57l9.31 0c0.33,0 0.57,0.25 0.57,0.57l0 4.65c-0.02,0.33 -0.27,0.57 -0.59,0.57z"/>
   <path class="fil0" d="M4.63 1.45l-2.56 0c-0.11,0 -0.19,-0.08 -0.19,-0.19 0,-0.11 0.08,-0.19 0.19,-0.19l2.54 0c0.11,0 0.19,0.08 0.19,0.19 0,0.11 -0.08,0.19 -0.17,0.19z"/>
   <path class="fil0" d="M3.98 2.72l-1.89 0c-0.11,0 -0.19,-0.08 -0.19,-0.19 0,-0.11 0.08,-0.19 0.19,-0.19l1.89 0c0.11,0 0.19,0.08 0.19,0.19 0,0.11 -0.1,0.19 -0.19,0.19z"/>
   <path class="fil0" d="M3.54 3.96l-1.47 0c-0.11,0 -0.19,-0.08 -0.19,-0.19 0,-0.11 0.08,-0.19 0.19,-0.19l1.47 0c0.11,0 0.19,0.08 0.19,0.19 0,0.11 -0.1,0.19 -0.19,0.19z"/>
   <path class="fil0" d="M9.22 1.45l-2.56 0c-0.11,0 -0.19,-0.08 -0.19,-0.19 0,-0.11 0.08,-0.19 0.19,-0.19l2.54 0c0.11,0 0.19,0.08 0.19,0.19 0,0.11 -0.08,0.19 -0.17,0.19z"/>
   <path class="fil0" d="M9.22 2.72l-1.89 0c-0.11,0 -0.19,-0.08 -0.19,-0.19 0,-0.11 0.08,-0.19 0.19,-0.19l1.89 0c0.11,0 0.19,0.08 0.19,0.19 0,0.11 -0.1,0.19 -0.19,0.19z"/>
   <path class="fil0" d="M9.22 3.96l-1.47 0c-0.11,0 -0.19,-0.08 -0.19,-0.19 0,-0.11 0.08,-0.19 0.19,-0.19l1.47 0c0.11,0 0.19,0.08 0.19,0.19 0,0.11 -0.1,0.19 -0.19,0.19z"/>
  </g>
 </g>
</svg>
