<?xml version="1.0" encoding="UTF-8"?>
<!DOCTYPE svg PUBLIC "-//W3C//DTD SVG 1.1//EN" "http://www.w3.org/Graphics/SVG/1.1/DTD/svg11.dtd">
<!-- Creator: CorelDRAW -->
<svg xmlns="http://www.w3.org/2000/svg" xml:space="preserve" width="0.826039in" height="0.725098in" version="1.1" style="shape-rendering:geometricPrecision; text-rendering:geometricPrecision; image-rendering:optimizeQuality; fill-rule:evenodd; clip-rule:evenodd"
viewBox="0 0 23.73 20.83"
 xmlns:xlink="http://www.w3.org/1999/xlink"
 xmlns:xodm="http://www.corel.com/coreldraw/odm/2003">
 <defs>
  <style type="text/css">
   <![CDATA[
    .fil0 {fill:white;fill-rule:nonzero}
   ]]>
  </style>
 </defs>
 <g id="Layer_x0020_1">
  <metadata id="CorelCorpID_0Corel-Layer"/>
  <path class="fil0" d="M15.7 2.2c0,-0.22 0.19,-0.4 0.41,-0.4 0.22,0 0.4,0.19 0.4,0.41l-0.02 1.74c0,0.22 -0.19,0.4 -0.41,0.4 -0.22,0 -0.4,-0.19 -0.4,-0.41l0.02 -1.74zm7.42 3.73c0.2,-0.11 0.45,-0.04 0.55,0.15 0.11,0.2 0.04,0.45 -0.15,0.55l-1.51 0.85c-0.2,0.11 -0.45,0.04 -0.55,-0.15 -0.11,-0.2 -0.04,-0.44 0.15,-0.55l1.51 -0.85zm-2.78 -3.49c0.12,-0.19 0.36,-0.26 0.56,-0.14 0.19,0.12 0.26,0.36 0.14,0.56l-0.88 1.5c-0.11,0.19 -0.36,0.26 -0.56,0.14 -0.2,-0.12 -0.26,-0.36 -0.14,-0.56l0.88 -1.5zm-8.73 -1.05c0.11,-0.2 0.36,-0.26 0.55,-0.15 0.19,0.11 0.26,0.36 0.15,0.55l-0.87 1.51c-0.11,0.19 -0.36,0.26 -0.55,0.15 -0.19,-0.11 -0.26,-0.36 -0.15,-0.55l0.87 -1.51zm-11.23 3.36c-0.2,-0.11 -0.26,-0.36 -0.15,-0.55 0.11,-0.19 0.36,-0.26 0.55,-0.15l1.5 0.87c0.19,0.11 0.26,0.36 0.15,0.55 -0.11,0.19 -0.36,0.26 -0.55,0.15l-1.5 -0.87zm2.94 -3.12c-0.11,-0.19 -0.05,-0.44 0.15,-0.55 0.19,-0.11 0.44,-0.05 0.55,0.15l0.87 1.51c0.11,0.2 0.05,0.44 -0.15,0.55 -0.19,0.11 -0.44,0.05 -0.55,-0.15l-0.87 -1.51zm4.12 -1.24c0,-0.22 0.18,-0.4 0.4,-0.4 0.22,0 0.4,0.18 0.4,0.4l0 1.74c0,0.22 -0.18,0.4 -0.4,0.4 -0.22,0 -0.4,-0.18 -0.4,-0.4l0 -1.74zm11.6 6.79l-8.65 0c-0.19,0 -0.35,-0.13 -0.39,-0.31 -0.19,-0.6 -0.56,-1.12 -1.05,-1.49 -1.16,-0.86 -2.79,-0.75 -3.82,0.28 -1.14,1.14 -1.14,3 0,4.14 1.03,1.03 2.65,1.14 3.82,0.28 0.5,-0.37 0.87,-0.9 1.06,-1.51 0.05,-0.18 0.21,-0.29 0.39,-0.29l3.03 0c0.22,0 0.4,0.18 0.4,0.4l0 1.17 0.82 0 0 -1.17c0,-0.22 0.18,-0.4 0.41,-0.4l1.54 0c0.22,0 0.4,0.18 0.4,0.4l0 1.17 0.83 0 0 -1.17c0,-0.22 0.18,-0.4 0.4,-0.4l0.8 0 0 -1.1 0.01 0zm-8.35 -0.81l8.76 0c0.22,0 0.4,0.18 0.4,0.4l0 1.92c0,0.22 -0.18,0.4 -0.4,0.4l-0.8 0 0 1.17c0,0.22 -0.18,0.41 -0.4,0.41l-1.65 0c-0.22,0 -0.4,-0.18 -0.4,-0.41l0 -1.17 -0.72 0 0 1.17c0,0.22 -0.18,0.41 -0.4,0.41l-1.63 0c-0.22,0 -0.41,-0.18 -0.41,-0.41l0 -1.17 -2.33 0c-0.55,1.42 -1.93,2.38 -3.48,2.38 -2.07,0 -3.74,-1.68 -3.74,-3.74 0,-2.07 1.68,-3.74 3.74,-3.74 1.54,0 2.92,0.96 3.48,2.38zm-3.49 0.28c-0.96,0 -1.45,1.17 -0.77,1.85 0.68,0.68 1.85,0.2 1.85,-0.77 0,-0.6 -0.48,-1.09 -1.09,-1.09zm-1.34 -0.26c0.74,-0.74 1.94,-0.74 2.69,0 0.74,0.74 0.74,1.94 0,2.69 -0.74,0.74 -1.94,0.74 -2.69,0 -0.74,-0.75 -0.74,-1.95 0,-2.69zm-3.49 7.16l2.51 0c0.22,0 0.4,0.18 0.4,0.4l0 0.28c0.43,-0.13 0.84,-0.38 1.2,-0.68 1.98,-1.65 2.67,-1.56 5.05,-1.25 0.5,0.06 1.08,0.14 1.78,0.21 0.66,0.06 1.07,0.37 1.25,0.75 0.19,0.39 0.12,0.84 -0.12,1.2 -0.3,0.44 -0.88,0.79 -1.67,0.77l-1.84 -0.04c1.27,0.54 3.64,0.83 4.74,0.43l3.36 -1.21c0.89,-0.37 2,-0.26 2.44,0.39 0.12,0.19 0.18,0.39 0.15,0.62 -0.04,0.34 -0.28,0.69 -0.78,0.98 -2.09,1.25 -5.93,3.76 -7.49,4.11 -0.04,0.01 -0.07,0.01 -0.11,0.01l-7.97 -0.46 0 0.34c0,0.22 -0.18,0.4 -0.4,0.4l-4.46 0c-0.27,0 -0.48,-0.26 -0.38,-0.56l1.95 -6.41c0.05,-0.19 0.21,-0.3 0.39,-0.3zm2.92 1.53l0 4.17 7.96 0.46c1.16,-0.29 3.96,-2.02 5.9,-3.22 0.48,-0.3 0.91,-0.56 1.29,-0.79 0.24,-0.15 0.45,-0.33 0.36,-0.46 -0.03,-0.05 -0.09,-0.09 -0.16,-0.13 -0.29,-0.15 -0.77,-0.18 -1.29,0.04l-0.02 0.01 -3.38 1.22c-1.32,0.47 -4.04,0.16 -5.47,-0.51 -0.61,-0.28 -1.08,-0.71 -0.89,-1.25 0.05,-0.17 0.21,-0.28 0.39,-0.28l2.81 0.07c0.79,0.02 1.19,-0.51 1.04,-0.8 -0.07,-0.14 -0.26,-0.26 -0.6,-0.29 -0.7,-0.07 -1.29,-0.15 -1.81,-0.21 -2.11,-0.27 -2.72,-0.35 -4.43,1.07 -0.5,0.43 -1.09,0.76 -1.71,0.9zm-0.82 -0.72l-1.8 0 -1.71 5.63 3.51 0 0 -5.63 -0.01 0z"/>
 </g>
</svg>
