<?xml version="1.0" encoding="UTF-8"?>
<!DOCTYPE svg PUBLIC "-//W3C//DTD SVG 1.1//EN" "http://www.w3.org/Graphics/SVG/1.1/DTD/svg11.dtd">
<!-- Creator: CorelDRAW -->
<svg xmlns="http://www.w3.org/2000/svg" xml:space="preserve" width="0.563024in" height="0.566492in" version="1.1" style="shape-rendering:geometricPrecision; text-rendering:geometricPrecision; image-rendering:optimizeQuality; fill-rule:evenodd; clip-rule:evenodd"
viewBox="0 0 11.58 11.65"
 xmlns:xlink="http://www.w3.org/1999/xlink"
 xmlns:xodm="http://www.corel.com/coreldraw/odm/2003">
 <defs>
  <style type="text/css">
   <![CDATA[
    .fil0 {fill:black;fill-rule:nonzero}
   ]]>
  </style>
 </defs>
 <g id="Layer_x0020_1">
  <metadata id="CorelCorpID_0Corel-Layer"/>
  <g id="_2876148541888">
   <path class="fil0" d="M8.3 5.42l0 -0.2c0,-0.21 -0.19,-0.39 -0.4,-0.37 -0.8,0.06 -1.53,0.41 -2.11,0.97 -0.58,-0.56 -1.32,-0.91 -2.11,-0.97 -0.21,-0.02 -0.4,0.16 -0.4,0.37l0 0.2c-0.32,0 -0.58,0.26 -0.58,0.58l0 2.34c0,0.32 0.26,0.58 0.58,0.58l2.24 0c0.23,0.26 0.31,0.26 0.54,0l2.24 0c0.32,0 0.58,-0.26 0.58,-0.58l0 -2.34c0,-0.32 -0.26,-0.58 -0.58,-0.58l0 0zm-5.02 3.12c-0.11,0 -0.19,-0.09 -0.19,-0.19l0 -2.34c0,-0.11 0.09,-0.19 0.19,-0.19l0 1.89c0,0.19 0.15,0.36 0.35,0.37 0.5,0.03 0.98,0.2 1.41,0.47l-1.75 0 0 0zm2.32 -0.06c-0.55,-0.46 -1.22,-0.75 -1.93,-0.8l0 -2.44c0.74,0.06 1.41,0.39 1.93,0.94l0 2.3zm0.39 0l0 -2.3c0.52,-0.54 1.2,-0.88 1.93,-0.94l0 2.44c-0.71,0.05 -1.38,0.33 -1.93,0.8zm2.51 -0.13c0,0.11 -0.09,0.19 -0.19,0.19l-1.75 0c0.42,-0.28 0.9,-0.44 1.41,-0.47 0.19,-0.01 0.35,-0.18 0.35,-0.37l0 -1.89c0.11,0 0.19,0.09 0.19,0.19l0 2.34 0 0z"/>
   <path class="fil0" d="M11.01 10.48l-0.04 0c0.05,-0.1 0.03,-0.27 0.04,-0.39 0,-0.32 -0.26,-0.58 -0.58,-0.58l0 -5.25 0.68 0c0.27,0.01 0.4,-0.37 0.18,-0.52 0,0 -4.44,-3.39 -4.44,-3.39 -0.62,-0.47 -1.48,-0.47 -2.1,0l-4.44 3.39c-0.22,0.16 -0.09,0.53 0.18,0.52 0,0 0.68,0 0.68,0l0 5.25c-0.32,0 -0.58,0.26 -0.58,0.58 0,0.11 -0.01,0.28 0.04,0.39 -0.79,-0.02 -0.83,1.14 -0.04,1.17 0,0 10.43,0 10.43,0 0.76,-0.02 0.77,-1.15 0,-1.17l0 0zm-10.24 -6.61l4.21 -3.21c0.48,-0.37 1.15,-0.37 1.64,0l4.21 3.21 -0.42 0c-0.09,-0.33 -0.41,-0.58 -0.8,-0.58l-7.62 0c-0.38,0 -0.71,0.25 -0.8,0.58l-0.42 0 0 0zm8.34 0l-6.62 0c-0.41,0 -0.75,0.32 -0.75,0.72l0 4.91 -0.19 0 0 -5.44c0,-0.21 0.2,-0.39 0.44,-0.39l7.62 0c0.24,0 0.44,0.17 0.44,0.39l0 5.44 -0.19 0 0 -4.91c0,-0.4 -0.33,-0.72 -0.75,-0.72l0 0zm0.36 0.72l0 4.91 -7.34 0 0 -4.91c0,-0.18 0.16,-0.33 0.36,-0.33l6.62 0c0.2,0 0.36,0.15 0.36,0.33l0 0zm-8.5 5.5c0,-0.11 0.09,-0.19 0.19,-0.19l9.27 0c0.11,0 0.19,0.09 0.19,0.19l0 0.19c0,0.11 -0.09,0.19 -0.19,0.19l-9.27 0c-0.11,0 -0.19,-0.09 -0.19,-0.19l0 -0.19 0 0zm10.04 1.17l-10.43 0c-0.25,-0 -0.26,-0.38 0,-0.39 0,0 10.43,0 10.43,0 0.25,0 0.26,0.38 0,0.39z"/>
   <path class="fil0" d="M5.79 2.91c0.53,0 0.97,-0.44 0.97,-0.97 -0.05,-1.29 -1.89,-1.29 -1.93,0 0,0.54 0.43,0.97 0.97,0.97zm0 -1.55c0.76,0.02 0.76,1.15 0,1.17 -0.76,-0.02 -0.76,-1.15 0,-1.17z"/>
  </g>
 </g>
</svg>
