<?xml version="1.0" encoding="UTF-8"?>
<!DOCTYPE svg PUBLIC "-//W3C//DTD SVG 1.1//EN" "http://www.w3.org/Graphics/SVG/1.1/DTD/svg11.dtd">
<!-- Creator: CorelDRAW -->
<svg xmlns="http://www.w3.org/2000/svg" xml:space="preserve" width="0.200894in" height="0.25in" version="1.1" style="shape-rendering:geometricPrecision; text-rendering:geometricPrecision; image-rendering:optimizeQuality; fill-rule:evenodd; clip-rule:evenodd"
viewBox="0 0 1.22 1.52"
 xmlns:xlink="http://www.w3.org/1999/xlink"
 xmlns:xodm="http://www.corel.com/coreldraw/odm/2003">
 <defs>
  <style type="text/css">
   <![CDATA[
    .fil0 {fill:black;fill-rule:nonzero}
   ]]>
  </style>
 </defs>
 <g id="Layer_x0020_1">
  <metadata id="CorelCorpID_0Corel-Layer"/>
  <g id="_2087210376016">
   <path class="fil0" d="M0.57 0.22c0.03,-0.02 0.05,-0.06 0.05,-0.09 0,-0.07 -0.08,-0.13 -0.17,-0.13 -0.09,0 -0.17,0.06 -0.17,0.13 0,0.07 0.08,0.13 0.17,0.13 0.01,0 0.02,-0 0.03,-0 0.05,0.04 0.17,0.04 0.17,0.04 -0.05,-0.02 -0.07,-0.05 -0.09,-0.07zm-0.18 -0.08c0,0.01 -0.01,0.01 -0.01,0.01 -0.01,0 -0.01,-0.01 -0.01,-0.01l0 -0.03c0,-0.01 0.01,-0.01 0.01,-0.01 0.01,0 0.01,0.01 0.01,0.01l0 0.03zm0.07 0c0,0.01 -0.01,0.01 -0.01,0.01 -0.01,0 -0.01,-0.01 -0.01,-0.01l0 -0.03c0,-0.01 0.01,-0.01 0.01,-0.01 0.01,0 0.01,0.01 0.01,0.01l0 0.03zm0.07 0c0,0.01 -0.01,0.01 -0.01,0.01 -0.01,0 -0.01,-0.01 -0.01,-0.01l0 -0.03c0,-0.01 0.01,-0.01 0.01,-0.01 0.01,0 0.01,0.01 0.01,0.01l0 0.03z"/>
   <path class="fil0" d="M0.2 1.26l-0.18 0c-0.01,0 -0.01,0.01 -0.01,0.01l0 0.23c0,0.01 0.01,0.01 0.01,0.01l0.18 0c0.01,0 0.01,-0.01 0.01,-0.01l0 -0.23c0,-0.01 -0.01,-0.01 -0.01,-0.01zm-0.01 0.23l-0.16 0 0 -0.2 0.16 0 0 0.2z"/>
   <path class="fil0" d="M0.53 1.14l-0.18 0c-0.01,0 -0.01,0.01 -0.01,0.01l0 0.35c0,0.01 0.01,0.01 0.01,0.01l0.18 0c0.01,0 0.01,-0.01 0.01,-0.01l0 -0.35c0,-0.01 -0.01,-0.01 -0.01,-0.01zm-0.01 0.35l-0.16 0 0 -0.33 0.16 0 0 0.33z"/>
   <path class="fil0" d="M0.87 0.92l-0.18 0c-0.01,0 -0.01,0.01 -0.01,0.01l0 0.57c0,0.01 0.01,0.01 0.01,0.01l0.18 0c0.01,0 0.01,-0.01 0.01,-0.01l0 -0.57c0,-0.01 -0.01,-0.01 -0.01,-0.01zm-0.01 0.57l-0.16 0 0 -0.55 0.16 0 0 0.55z"/>
   <path class="fil0" d="M1.21 0.88l-0.18 0c-0.01,0 -0.01,0.01 -0.01,0.01l0 0.62c0,0.01 0.01,0.01 0.01,0.01l0.18 0c0.01,0 0.01,-0.01 0.01,-0.01l0 -0.62c0,-0.01 -0.01,-0.01 -0.01,-0.01zm-0.01 0.62l-0.16 0 0 -0.59 0.16 0 0 0.59z"/>
   <path class="fil0" d="M0.52 0.53c0,0.02 -0.01,0.04 -0.02,0.05 -0.01,0.01 -0.03,0.02 -0.05,0.02 -0.02,0 -0.04,-0.01 -0.05,-0.02 -0.01,-0.01 -0.02,-0.03 -0.02,-0.05 0,-0.02 0.01,-0.04 0.02,-0.05 0.01,-0.01 0.03,-0.02 0.05,-0.02 0.02,0 0.04,0.01 0.05,0.02 0.01,0.01 0.02,0.03 0.02,0.05z"/>
   <path class="fil0" d="M0.67 0.64c-0.01,-0.02 -0.04,-0.02 -0.05,-0.01l-0.14 0.09 -0.08 -0.09c-0,-0 -0,-0 -0,-0 -0,-0 -0,-0 -0,-0 -0,-0 -0,-0 -0,-0 -0,-0 -0.01,-0.01 -0.01,-0.01 -0.03,-0.01 -0.06,0 -0.07,0.03l-0.1 0.24c-0,0 -0.08,0.21 -0.08,0.21l-0.08 0.11c-0.02,0.02 -0.01,0.06 0.01,0.07 0.01,0.01 0.02,0.01 0.03,0.01 0.02,0 0.03,-0.01 0.04,-0.02l0.08 -0.12c0,-0 0.01,-0.01 0.01,-0.01 0,0 0.06,-0.15 0.07,-0.18l0.09 0.01 0.01 0.14c0,0.03 0.02,0.05 0.05,0.05 0,0 0,-0 0,-0 0.03,-0 0.05,-0.03 0.05,-0.06l-0.01 -0.18c-0,-0.02 -0.02,-0.04 -0.04,-0.05l-0.11 -0.02 0.05 -0.13 0.05 0.06c0.01,0.01 0.02,0.01 0.03,0.01 0.01,0 0.01,-0 0.02,-0.01l0.17 -0.1c0.02,-0.01 0.02,-0.03 0.01,-0.05z"/>
   <path class="fil0" d="M0.78 0.33c0.04,0 0.08,-0.03 0.08,-0.08 0,-0.04 -0.03,-0.08 -0.08,-0.08 -0.04,0 -0.08,0.03 -0.08,0.08 0,0.04 0.03,0.08 0.08,0.08z"/>
   <path class="fil0" d="M1.14 0.82l-0.05 -0.16 -0.01 -0.14c0,0 -0,-0.01 -0.01,-0.02l-0.12 -0.18c-0.02,-0.02 -0.05,-0.03 -0.07,-0.02 -0,0 -0.02,0.01 -0.02,0.02l-0.08 0.19 -0.1 0.08c-0.02,0.01 -0.02,0.04 -0.01,0.05 0.01,0.01 0.02,0.01 0.03,0.01 0.01,0 0.02,-0 0.02,-0.01l0.11 -0.08c0.01,-0 0.01,-0.01 0.01,-0.02l0.05 -0.12 0.06 0.09 -0.14 0.12c-0.01,0.01 -0.01,0.02 -0.02,0.03l-0.05 0.2c-0.01,0.03 0.01,0.06 0.04,0.06 0,0 0.01,0 0.01,0 0.02,0 0.05,-0.02 0.05,-0.04l0.04 -0.18 0.08 -0.07 0 0.04c0,0 0,0.01 0,0.01l0.06 0.16c0.01,0.02 0.03,0.03 0.05,0.03 0.01,0 0.01,-0 0.02,-0 0.03,-0.01 0.04,-0.04 0.03,-0.07z"/>
  </g>
 </g>
</svg>
