<?xml version="1.0" encoding="UTF-8"?>
<!DOCTYPE svg PUBLIC "-//W3C//DTD SVG 1.1//EN" "http://www.w3.org/Graphics/SVG/1.1/DTD/svg11.dtd">
<!-- Creator: CorelDRAW -->
<svg xmlns="http://www.w3.org/2000/svg" xml:space="preserve" width="0.330898in" height="0.384953in" version="1.1" style="shape-rendering:geometricPrecision; text-rendering:geometricPrecision; image-rendering:optimizeQuality; fill-rule:evenodd; clip-rule:evenodd"
viewBox="0 0 4.96 5.77"
 xmlns:xlink="http://www.w3.org/1999/xlink"
 xmlns:xodm="http://www.corel.com/coreldraw/odm/2003">
 <defs>
  <style type="text/css">
   <![CDATA[
    .fil0 {fill:black;fill-rule:nonzero}
    .fil1 {fill:red;fill-rule:nonzero}
    .fil2 {fill:white;fill-rule:nonzero}
   ]]>
  </style>
 </defs>
 <g id="Layer_x0020_1">
  <metadata id="CorelCorpID_0Corel-Layer"/>
  <g id="_2876142731728">
   <path class="fil0" d="M2.38 5.77c0.44,0 0.8,-0.36 0.81,-0.8 0,-0 -0,-0 -0,-0l-1.61 0c-0,0 -0,0 -0,0 0,0.44 0.36,0.8 0.81,0.8z"/>
   <path class="fil0" d="M4.26 3.95c-0.09,-0.11 -0.14,-0.25 -0.14,-0.39l0 -1.16c-0.02,0 -0.04,0 -0.07,0 -0.64,0 -1.16,-0.51 -1.16,-1.15 0,-0.21 0.06,-0.42 0.16,-0.59 -0.12,-0.05 -0.24,-0.09 -0.37,-0.11 0,0 0,-0.23 0,-0.24 0,-0.17 -0.14,-0.31 -0.32,-0.31 -0.17,0 -0.32,0.14 -0.32,0.31 0,0 0,0.24 0,0.24 -0.81,0.15 -1.42,0.84 -1.43,1.68l-0 0 0 1.33c0,0.14 -0.05,0.28 -0.14,0.39l-0.47 0.6c-0.06,0.09 0,0.2 0.11,0.2l4.5 0c0.11,0 0.17,-0.12 0.11,-0.2l-0.47 -0.6z"/>
   <path class="fil1" d="M4.96 1.25c0,0.49 -0.4,0.89 -0.9,0.89 -0.5,0 -0.9,-0.4 -0.9,-0.89 0,-0.49 0.4,-0.89 0.9,-0.89 0.5,0 0.9,0.4 0.9,0.89z"/>
   <polygon class="fil2" points="4.05,0.81 3.85,0.92 3.88,1.05 4.02,0.97 4.02,1.69 4.18,1.69 4.18,0.81 "/>
  </g>
 </g>
</svg>
