<?xml version="1.0" encoding="UTF-8"?>
<!DOCTYPE svg PUBLIC "-//W3C//DTD SVG 1.1//EN" "http://www.w3.org/Graphics/SVG/1.1/DTD/svg11.dtd">
<!-- Creator: CorelDRAW -->
<svg xmlns="http://www.w3.org/2000/svg" xml:space="preserve" width="0.669661in" height="0.66965in" version="1.1" style="shape-rendering:geometricPrecision; text-rendering:geometricPrecision; image-rendering:optimizeQuality; fill-rule:evenodd; clip-rule:evenodd"
viewBox="0 0 11.55 11.55"
 xmlns:xlink="http://www.w3.org/1999/xlink"
 xmlns:xodm="http://www.corel.com/coreldraw/odm/2003">
 <defs>
  <style type="text/css">
   <![CDATA[
    .fil0 {fill:white;fill-rule:nonzero}
   ]]>
  </style>
 </defs>
 <g id="Layer_x0020_1">
  <metadata id="CorelCorpID_0Corel-Layer"/>
  <path class="fil0" d="M1.09 8.5c0.05,0.09 0.02,0.2 -0.07,0.25 -0.03,0.02 -0.06,0.02 -0.09,0.02 -0.06,0 -0.12,-0.03 -0.16,-0.09 -0.62,-1.06 -0.88,-2.28 -0.75,-3.51 0.16,-1.53 0.91,-2.91 2.11,-3.88 1.2,-0.97 2.7,-1.42 4.24,-1.25 1.03,0.11 2,0.48 2.82,1.09l-0.13 -0.44c-0.03,-0.1 0.03,-0.2 0.12,-0.22 0.1,-0.03 0.2,0.03 0.22,0.12l0.28 0.99c0.02,0.05 0.01,0.11 -0.03,0.16 -0.03,0.04 -0.08,0.07 -0.14,0.07l-1.03 0.04c-0,0 -0,0 -0.01,0 -0.1,0 -0.18,-0.08 -0.18,-0.17 -0,-0.1 0.07,-0.18 0.17,-0.19l0.56 -0.02c-0.79,-0.6 -1.72,-0.97 -2.71,-1.07 -1.44,-0.15 -2.85,0.27 -3.97,1.18 -1.12,0.91 -1.83,2.2 -1.98,3.64 -0.12,1.15 0.12,2.29 0.7,3.29zm4.72 3.06l-0.06 0c-0.19,-0 -0.38,-0.01 -0.58,-0.03 -1.03,-0.11 -2,-0.48 -2.82,-1.09l0.13 0.44c0.03,0.1 -0.03,0.2 -0.12,0.22 -0.02,0 -0.03,0.01 -0.05,0.01 -0.08,0 -0.15,-0.05 -0.17,-0.13l-0.28 -0.99c-0.02,-0.05 -0.01,-0.11 0.03,-0.16 0.03,-0.04 0.08,-0.07 0.14,-0.07l1.03 -0.04c0.1,-0 0.18,0.07 0.19,0.17 0,0.1 -0.07,0.18 -0.17,0.19l-0.56 0.02c0.79,0.6 1.72,0.97 2.71,1.07 2.97,0.31 5.64,-1.85 5.95,-4.82 0.12,-1.15 -0.12,-2.29 -0.7,-3.29 -0.05,-0.09 -0.02,-0.2 0.07,-0.25 0.09,-0.05 0.2,-0.02 0.25,0.07 0.62,1.06 0.88,2.28 0.75,3.51 -0.16,1.53 -0.91,2.91 -2.11,3.88 -1.03,0.83 -2.29,1.28 -3.6,1.29zm-3.27 -5.46c-0.09,-0.04 -1.07,-0.48 -1.08,-0.48 -0.09,-0.04 -0.14,-0.15 -0.1,-0.24l1.11 -2.36c0.04,-0.09 0.15,-0.13 0.24,-0.09l1.06 0.49c0,0 0.01,0 0.01,0.01 0.21,0.12 0.42,0.07 0.7,0 0.36,-0.09 0.81,-0.19 1.34,0.11 0.72,-0.44 1.28,-0.22 1.69,-0.05 0.3,0.12 0.48,0.19 0.66,0.1 0,0 0.81,-0.43 0.81,-0.43 0.09,-0.05 0.22,-0 0.25,0.09l0.96 2.48c0.04,0.09 -0.01,0.19 -0.1,0.23l-1 0.43c0.02,0.13 -0,0.27 -0.07,0.4 -0.08,0.15 -0.22,0.26 -0.39,0.31 -0.05,0.01 -0.1,0.02 -0.14,0.02 0.02,0.13 -0.01,0.27 -0.07,0.39 -0.12,0.21 -0.34,0.33 -0.56,0.33 -0.02,0 -0.04,-0 -0.07,-0 0.01,0.11 -0.02,0.23 -0.08,0.34 -0.11,0.19 -0.3,0.31 -0.51,0.33 0.02,0.14 -0,0.28 -0.07,0.41 -0.12,0.21 -0.34,0.33 -0.56,0.33 -0.1,0 -0.21,-0.03 -0.31,-0.08l-0.2 -0.11c-0.12,0.16 -0.32,0.26 -0.52,0.26 -0.1,0 -0.21,-0.02 -0.3,-0.08 -0.14,-0.08 -0.24,-0.2 -0.3,-0.34 -0.02,0.01 -0.05,0.02 -0.07,0.03 -0.18,0.06 -0.39,0.02 -0.55,-0.08 -0.1,-0.06 -0.17,-0.16 -0.22,-0.26 0.01,0.02 -0.22,0.07 -0.24,0.07 -0.13,0.01 -0.26,-0.01 -0.37,-0.07 -0.15,-0.08 -0.26,-0.22 -0.31,-0.38 -0.03,-0.09 -0.04,-0.19 -0.02,-0.29 -0.01,0 -0.01,0 -0.02,0 -0.1,0 -0.21,-0.02 -0.3,-0.08 -0.31,-0.17 -0.43,-0.56 -0.26,-0.87l0.15 -0.29c-0.04,-0.09 -0.06,-0.19 -0.08,-0.29 -0.03,-0.18 -0.05,-0.26 -0.12,-0.29zm0.86 1.3c0,0 0.29,-0.55 0.29,-0.55 0.07,-0.13 0.02,-0.31 -0.12,-0.38 -0.14,-0.07 -0.31,-0.02 -0.38,0.12l-0.29 0.55c-0.07,0.14 -0.02,0.31 0.12,0.38 0.14,0.07 0.31,0.02 0.38,-0.11zm0.65 0.74c0,0 0.4,-0.74 0.4,-0.74 0.07,-0.13 0.02,-0.31 -0.12,-0.38 -0.13,-0.07 -0.31,-0.02 -0.38,0.11l-0.4 0.74c-0.07,0.14 -0.02,0.31 0.12,0.38 0.07,0.04 0.14,0.04 0.21,0.02 0.07,-0.02 0.13,-0.07 0.17,-0.14zm0.89 0.29c0,0 0.32,-0.6 0.32,-0.6 0.07,-0.13 0.02,-0.31 -0.12,-0.38 -0.14,-0.07 -0.31,-0.02 -0.38,0.12l-0.32 0.6c-0.07,0.14 -0.02,0.31 0.12,0.38 0.13,0.07 0.31,0.02 0.38,-0.12zm0.86 0.36c0,0 0.28,-0.53 0.28,-0.53 0.07,-0.13 0.02,-0.31 -0.12,-0.38 -0.13,-0.07 -0.31,-0.02 -0.38,0.12l-0.28 0.53c-0.07,0.14 -0.02,0.31 0.12,0.38 0.14,0.07 0.31,0.02 0.38,-0.12zm0.92 -0.45l-0 -0 -0.24 -0.13c-0.01,0.08 -0.03,0.15 -0.07,0.22l-0.16 0.29 0.2 0.11c0.14,0.07 0.31,0.03 0.38,-0.11 0.07,-0.14 0.02,-0.31 -0.11,-0.38zm-0.79 -4.45c-0.13,0.09 -0.26,0.2 -0.39,0.33 -0.29,0.3 -0.65,0.58 -1.08,0.83 0.43,0.45 0.89,0.26 1.42,0.05 0.29,-0.12 0.58,-0.24 0.87,-0.24 0.15,0 0.3,0.03 0.44,0.11l1.6 0.91c0.07,0.04 0.13,0.09 0.17,0.14l0.85 -0.36 -0.83 -2.13 -0.63 0.34c-0.34,0.18 -0.66,0.05 -0.97,-0.08 -0.41,-0.17 -0.84,-0.34 -1.46,0.08zm-4.12 1.47c0.27,0.12 0.78,0.35 0.87,0.39 0.23,0.09 0.3,0.3 0.33,0.49 0.2,-0.18 0.49,-0.23 0.74,-0.1 0.15,0.08 0.26,0.22 0.31,0.38 0.01,0.03 0.02,0.07 0.02,0.1 0.14,-0.03 0.29,-0.01 0.42,0.06 0.15,0.08 0.26,0.22 0.31,0.38 0,0 0,0.01 0,0.01 0,-0 0.01,-0 0.01,-0 0.16,-0.05 0.34,-0.03 0.49,0.05 0.15,0.08 0.26,0.22 0.31,0.38 0,0 0,0.01 0,0.01 0,-0 0.01,-0 0.01,-0 0.16,-0.05 0.34,-0.03 0.49,0.05 0.07,0.04 0.14,0.09 0.19,0.15l0.7 0.39c0.14,0.07 0.31,0.02 0.38,-0.11 0.07,-0.13 0.02,-0.31 -0.11,-0.38l-0.99 -0.56c-0.09,-0.05 -0.12,-0.16 -0.07,-0.25 0.05,-0.09 0.16,-0.12 0.25,-0.07l1.25 0.7c0.14,0.07 0.31,0.03 0.38,-0.11 0.07,-0.13 0.02,-0.31 -0.11,-0.38 -0,-0 -0.99,-0.56 -0.99,-0.56 -0.09,-0.05 -0.12,-0.16 -0.07,-0.25 0.05,-0.09 0.16,-0.12 0.25,-0.07l1.15 0.65c0.06,0.04 0.14,0.04 0.21,0.02 0.07,-0.02 0.13,-0.07 0.17,-0.14 0.07,-0.13 0.02,-0.31 -0.11,-0.38l-1.6 -0.91c-0.27,-0.15 -0.6,-0.02 -0.99,0.14 -0.3,0.12 -0.63,0.25 -0.96,0.25 -0.34,0 -0.69,-0.14 -1.01,-0.58 -0.03,-0.04 -0.04,-0.09 -0.03,-0.14 0.01,-0.05 0.04,-0.09 0.09,-0.12 0.47,-0.27 0.87,-0.57 1.18,-0.88 0.07,-0.07 0.15,-0.14 0.22,-0.21 -0.34,-0.14 -0.63,-0.07 -0.93,-0 -0.31,0.07 -0.63,0.15 -0.95,-0.03l-0.89 -0.41 -0.95 2.03c0.01,0.01 0.02,0.01 0.04,0.02z"/>
 </g>
</svg>
