<?xml version="1.0" encoding="UTF-8"?>
<!DOCTYPE svg PUBLIC "-//W3C//DTD SVG 1.1//EN" "http://www.w3.org/Graphics/SVG/1.1/DTD/svg11.dtd">
<!-- Creator: CorelDRAW -->
<svg xmlns="http://www.w3.org/2000/svg" xml:space="preserve" width="0.869335in" height="0.663008in" version="1.1" style="shape-rendering:geometricPrecision; text-rendering:geometricPrecision; image-rendering:optimizeQuality; fill-rule:evenodd; clip-rule:evenodd"
viewBox="0 0 20.59 15.71"
 xmlns:xlink="http://www.w3.org/1999/xlink"
 xmlns:xodm="http://www.corel.com/coreldraw/odm/2003">
 <defs>
  <style type="text/css">
   <![CDATA[
    .fil0 {fill:black;fill-rule:nonzero}
   ]]>
  </style>
 </defs>
 <g id="Layer_x0020_1">
  <metadata id="CorelCorpID_0Corel-Layer"/>
  <g id="_2876250600288">
   <path class="fil0" d="M11.35 6c-0.05,-0.43 -0.44,-0.74 -0.87,-0.69l-1.32 0.16 -1.01 -0.92c-0.17,-0.15 -0.36,-0.27 -0.57,-0.34l-1.19 -0.42c-0.36,-0.13 -0.75,-0.13 -1.1,-0l-1.79 0.62c-0.16,0.06 -0.3,0.16 -0.4,0.3l-1.05 1.56c-0.24,0.36 -0.15,0.85 0.21,1.09 0.13,0.09 0.29,0.13 0.44,0.13 0.25,0 0.5,-0.12 0.65,-0.35l0.9 -1.35 0.46 -0.16c-0.16,0.52 -0.33,1.26 -0.53,2.32 -0.11,0.57 -0.02,1.15 0.23,1.65l-1.13 1.14 -2.35 -0.1c-0.5,-0.02 -0.91,0.36 -0.93,0.85 -0.02,0.49 0.36,0.91 0.86,0.93l2.74 0.12c0.01,0 0.03,0 0.04,0 0.24,0 0.47,-0.1 0.64,-0.26l1.23 -1.24 0.59 1.02 0.42 2.87c0.07,0.45 0.45,0.77 0.88,0.77 0.04,0 0.09,-0 0.13,-0.01 0.49,-0.07 0.83,-0.53 0.76,-1.01l-0.44 -3.04c-0.02,-0.11 -0.05,-0.22 -0.11,-0.32l-1.07 -1.83 1.1 -3.16 0.6 0.55c0.17,0.15 0.4,0.23 0.62,0.2l1.68 -0.2c0.43,-0.05 0.74,-0.44 0.69,-0.87z"/>
   <path class="fil0" d="M7.61 3.61c1,0.1 1.88,-0.63 1.98,-1.63 0.1,-0.99 -0.64,-1.88 -1.63,-1.97 -1,-0.1 -1.88,0.63 -1.98,1.63 -0.1,0.99 0.64,1.88 1.63,1.97z"/>
   <path class="fil0" d="M20.46 6.27l-1.05 -1.56c-0.1,-0.14 -0.23,-0.25 -0.4,-0.3l-1.79 -0.62c-0.36,-0.12 -0.75,-0.12 -1.1,0l-1.02 0.36c-0.41,0.15 -0.75,0.44 -0.94,0.83l-0.84 1.69 -1.13 0.91c-0.34,0.27 -0.39,0.77 -0.12,1.1 0.16,0.19 0.38,0.29 0.61,0.29 0.17,0 0.35,-0.06 0.49,-0.18l1.27 -1.02c0.09,-0.07 0.16,-0.16 0.21,-0.26l0.3 -0.6 0.89 2.56 -1.07 1.83c-0.06,0.1 -0.1,0.21 -0.11,0.32l-0.44 3.04c-0.07,0.49 0.27,0.94 0.76,1.01 0.04,0.01 0.09,0.01 0.13,0.01 0.44,0 0.82,-0.32 0.88,-0.77l0.42 -2.86 0.22 -0.37 0.18 0.61c0.02,0.06 0.05,0.13 0.08,0.18l1.54 2.76c0.16,0.29 0.47,0.46 0.78,0.46 0.15,0 0.3,-0.04 0.44,-0.11 0.43,-0.24 0.59,-0.78 0.34,-1.22l-1.5 -2.67 -0.55 -1.85c0.36,-0.54 0.5,-1.22 0.37,-1.88 -0.21,-1.07 -0.38,-1.8 -0.53,-2.32l0.46 0.16 0.9 1.35c0.24,0.36 0.73,0.46 1.09,0.21 0.36,-0.24 0.46,-0.73 0.21,-1.09z"/>
   <path class="fil0" d="M14.9 3.61c1,-0.1 1.73,-0.98 1.63,-1.97 -0.1,-0.99 -0.98,-1.73 -1.98,-1.63 -1,0.1 -1.73,0.98 -1.63,1.97 0.09,1 0.98,1.73 1.98,1.63z"/>
   <path class="fil0" d="M11.24 12.65c-0.85,0 -1.53,0.68 -1.53,1.53 0,0.84 0.69,1.53 1.53,1.53 0.85,0 1.53,-0.68 1.53,-1.53 0,-0.85 -0.69,-1.53 -1.53,-1.53z"/>
  </g>
 </g>
</svg>
