<?xml version="1.0" encoding="UTF-8"?>
<!DOCTYPE svg PUBLIC "-//W3C//DTD SVG 1.1//EN" "http://www.w3.org/Graphics/SVG/1.1/DTD/svg11.dtd">
<!-- Creator: CorelDRAW -->
<svg xmlns="http://www.w3.org/2000/svg" xml:space="preserve" width="0.890638in" height="0.896362in" version="1.1" style="shape-rendering:geometricPrecision; text-rendering:geometricPrecision; image-rendering:optimizeQuality; fill-rule:evenodd; clip-rule:evenodd"
viewBox="0 0 20.34 20.47"
 xmlns:xlink="http://www.w3.org/1999/xlink"
 xmlns:xodm="http://www.corel.com/coreldraw/odm/2003">
 <defs>
  <style type="text/css">
   <![CDATA[
    .fil0 {fill:white;fill-rule:nonzero}
   ]]>
  </style>
 </defs>
 <g id="Layer_x0020_1">
  <metadata id="CorelCorpID_0Corel-Layer"/>
  <g id="_2417561027696">
   <path class="fil0" d="M20.24 9.61c0.03,-0.03 0.05,-0.07 0.07,-0.11 0.02,-0.04 0.03,-0.08 0.03,-0.13 0,-0.04 -0.01,-0.09 -0.03,-0.13 -0.02,-0.04 -0.04,-0.08 -0.07,-0.11l-0.75 -0.75c-0.06,-0.06 -0.13,-0.09 -0.22,-0.1 -0.09,-0 -0.16,0.02 -0.23,0.08l-2.15 1.79 -0.58 0c0.07,-0.05 0.13,-0.12 0.18,-0.18 0.06,-0.07 0.1,-0.14 0.14,-0.22 0.04,-0.08 0.07,-0.16 0.1,-0.24 0.02,-0.08 0.04,-0.17 0.05,-0.26 0.01,-0.09 0,-0.17 -0.01,-0.26 -0.01,-0.09 -0.03,-0.17 -0.06,-0.25 -0.03,-0.08 -0.07,-0.16 -0.11,-0.23 -0.05,-0.07 -0.1,-0.14 -0.16,-0.21 -0.06,-0.06 -0.12,-0.12 -0.2,-0.17 -0.07,-0.05 -0.15,-0.09 -0.23,-0.13 -0.08,-0.03 -0.16,-0.06 -0.25,-0.08 -0.09,-0.02 -0.17,-0.03 -0.26,-0.03 -0.09,0 -0.17,0.01 -0.26,0.03 -0.09,0.02 -0.17,0.04 -0.25,0.08 -0.08,0.03 -0.15,0.08 -0.23,0.13 -0.07,0.05 -0.14,0.11 -0.2,0.17 -0.06,0.06 -0.11,0.13 -0.16,0.21 -0.05,0.07 -0.08,0.15 -0.11,0.23 -0.03,0.08 -0.05,0.17 -0.06,0.25 -0.01,0.09 -0.01,0.17 -0.01,0.26 0.01,0.09 0.02,0.17 0.05,0.26 0.02,0.08 0.06,0.16 0.1,0.24 0.04,0.08 0.09,0.15 0.14,0.22 0.06,0.07 0.12,0.13 0.18,0.18l-0.58 0 -2.15 -1.79c-0.07,-0.05 -0.14,-0.08 -0.23,-0.08 -0.09,0 -0.16,0.04 -0.22,0.1l-0.75 0.75c-0.03,0.03 -0.05,0.07 -0.07,0.11 -0.02,0.04 -0.03,0.08 -0.03,0.13 0,0.04 0.01,0.09 0.03,0.13 0.02,0.04 0.04,0.08 0.07,0.11l2.9 2.9 0 2.45 -0.37 4.49c-0,0.05 0,0.09 0.02,0.13 0.02,0.04 0.04,0.08 0.07,0.12 0.03,0.03 0.07,0.06 0.11,0.08 0.04,0.02 0.09,0.03 0.13,0.03l-1.76 0 0 0.66 7.26 0 0 -0.66 -1.76 0c0.05,0 0.09,-0.01 0.13,-0.03 0.04,-0.02 0.08,-0.04 0.11,-0.08 0.03,-0.03 0.05,-0.07 0.07,-0.12 0.02,-0.04 0.02,-0.09 0.02,-0.13l-0.37 -4.46 0 -2.48 2.9 -2.9zm-4.72 -1.03c0.08,-0 0.16,0.02 0.23,0.05 0.07,0.03 0.14,0.07 0.2,0.13 0.06,0.06 0.1,0.12 0.13,0.2 0.03,0.07 0.05,0.15 0.05,0.23 0,0.08 -0.02,0.16 -0.05,0.23 -0.03,0.07 -0.07,0.14 -0.13,0.2 -0.06,0.06 -0.12,0.1 -0.2,0.13 -0.07,0.03 -0.15,0.05 -0.23,0.05 -0.08,-0 -0.16,-0.02 -0.23,-0.05 -0.07,-0.03 -0.14,-0.07 -0.2,-0.13 -0.06,-0.06 -0.1,-0.12 -0.13,-0.2 -0.03,-0.07 -0.05,-0.15 -0.05,-0.23 0,-0.08 0.02,-0.16 0.05,-0.23 0.03,-0.07 0.07,-0.14 0.13,-0.2 0.06,-0.06 0.12,-0.1 0.2,-0.13 0.07,-0.03 0.15,-0.05 0.23,-0.05zm-0.75 11.22c0.08,0 0.15,-0.03 0.21,-0.08 0.06,-0.05 0.1,-0.12 0.11,-0.19l0.42 -2.33 0.42 2.33c0.01,0.08 0.05,0.14 0.11,0.19 0.06,0.05 0.13,0.08 0.21,0.08l-1.5 0zm1.91 -4.79l0.35 4.13 -0.49 0 -0.7 -3.84c-0.01,-0.08 -0.05,-0.14 -0.11,-0.19 -0.06,-0.05 -0.13,-0.08 -0.21,-0.08 -0.08,0 -0.15,0.03 -0.21,0.08 -0.06,0.05 -0.1,0.12 -0.11,0.19l-0.7 3.84 -0.49 0 0.35 -4.16 0 -2.62c0,-0.09 -0.03,-0.17 -0.1,-0.23l-2.76 -2.76 0.3 -0.3 2.01 1.68c0.06,0.05 0.13,0.08 0.21,0.08l2.99 0c0.08,0 0.15,-0.03 0.21,-0.08l2.01 -1.68 0.3 0.3 -2.76 2.76c-0.06,0.06 -0.1,0.14 -0.1,0.23l-0 2.65z"/>
   <path class="fil0" d="M5.78 16.07c0.12,-0.05 0.23,-0.11 0.34,-0.2 0.1,-0.08 0.19,-0.18 0.26,-0.29 0.07,-0.11 0.13,-0.23 0.17,-0.35 0.04,-0.13 0.06,-0.25 0.06,-0.39l0 -2.48c-0,-0.15 -0.03,-0.29 -0.07,-0.43 -0.05,-0.14 -0.12,-0.27 -0.21,-0.39 -0.09,-0.12 -0.2,-0.21 -0.33,-0.29 -0.13,-0.08 -0.26,-0.14 -0.41,-0.17 -0.03,-0.19 -0.1,-0.37 -0.2,-0.54 -0.1,-0.17 -0.22,-0.31 -0.37,-0.44 -0.15,-0.12 -0.31,-0.22 -0.49,-0.29 -0.18,-0.07 -0.37,-0.1 -0.56,-0.1 -0.19,0 -0.38,0.03 -0.56,0.1 -0.18,0.07 -0.35,0.16 -0.49,0.29 -0.15,0.12 -0.27,0.27 -0.37,0.44 -0.1,0.17 -0.16,0.35 -0.2,0.54 -0.14,0.03 -0.28,0.09 -0.41,0.17 -0.13,0.08 -0.23,0.18 -0.33,0.29 -0.09,0.12 -0.16,0.24 -0.21,0.39 -0.05,0.14 -0.07,0.28 -0.07,0.43l0 2.48c-0,0.13 0.02,0.26 0.06,0.39 0.04,0.13 0.09,0.24 0.17,0.35 0.07,0.11 0.16,0.2 0.26,0.29 0.1,0.08 0.21,0.15 0.34,0.2l0 0.1 -2.15 0 0 0.66 2.15 0 0 0.58c-0,0.22 0.06,0.41 0.18,0.59 0.12,0.18 0.28,0.31 0.47,0.4 0.2,0.08 0.4,0.11 0.61,0.07 0.21,-0.04 0.39,-0.13 0.55,-0.28 0.15,0.15 0.34,0.24 0.55,0.28 0.21,0.04 0.42,0.02 0.61,-0.07 0.2,-0.08 0.36,-0.22 0.47,-0.4 0.12,-0.18 0.18,-0.38 0.18,-0.59l0 -0.58 2.15 0 0 -0.66 -2.15 0 0 -0.1zm-1.82 -5.68c0.13,0 0.26,0.03 0.38,0.08 0.12,0.05 0.23,0.12 0.32,0.21 0.09,0.09 0.16,0.2 0.21,0.32 0.05,0.12 0.08,0.25 0.08,0.38 0,0.13 -0.03,0.26 -0.08,0.38 -0.05,0.12 -0.12,0.23 -0.21,0.32 -0.09,0.09 -0.2,0.16 -0.32,0.21 -0.12,0.05 -0.25,0.08 -0.38,0.08 -0.13,0 -0.26,-0.03 -0.38,-0.08 -0.12,-0.05 -0.23,-0.12 -0.32,-0.21 -0.09,-0.09 -0.16,-0.2 -0.21,-0.32 -0.05,-0.12 -0.08,-0.25 -0.08,-0.38 0,-0.13 0.03,-0.26 0.08,-0.38 0.05,-0.12 0.12,-0.23 0.21,-0.32 0.09,-0.09 0.2,-0.16 0.32,-0.21 0.12,-0.05 0.25,-0.08 0.38,-0.08zm-0.33 7.02c0,0.05 -0.01,0.11 -0.03,0.16 -0.02,0.05 -0.05,0.1 -0.09,0.13 -0.04,0.04 -0.08,0.07 -0.13,0.09 -0.05,0.02 -0.1,0.03 -0.16,0.03 -0.05,0 -0.11,-0.01 -0.16,-0.03 -0.05,-0.02 -0.1,-0.05 -0.13,-0.09 -0.04,-0.04 -0.07,-0.08 -0.09,-0.13 -0.02,-0.05 -0.03,-0.1 -0.03,-0.16l0 -2.15c0,-0.05 0.01,-0.11 0.03,-0.16 0.02,-0.05 0.05,-0.1 0.09,-0.13 0.04,-0.04 0.08,-0.07 0.13,-0.09 0.05,-0.02 0.1,-0.03 0.16,-0.03 0.05,0 0.11,0.01 0.16,0.03 0.05,0.02 0.1,0.05 0.13,0.09 0.04,0.04 0.07,0.08 0.09,0.13 0.02,0.05 0.03,0.1 0.03,0.16l0 2.15zm1.49 0c0,0.05 -0.01,0.11 -0.03,0.16 -0.02,0.05 -0.05,0.1 -0.09,0.13 -0.04,0.04 -0.08,0.07 -0.13,0.09 -0.05,0.02 -0.1,0.03 -0.16,0.03 -0.05,0 -0.11,-0.01 -0.16,-0.03 -0.05,-0.02 -0.1,-0.05 -0.13,-0.09 -0.04,-0.04 -0.07,-0.08 -0.09,-0.13 -0.02,-0.05 -0.03,-0.1 -0.03,-0.16l0 -2.15c0,-0.05 0.01,-0.11 0.03,-0.16 0.02,-0.05 0.05,-0.1 0.09,-0.13 0.04,-0.04 0.08,-0.07 0.13,-0.09 0.05,-0.02 0.1,-0.03 0.16,-0.03 0.05,0 0.11,0.01 0.16,0.03 0.05,0.02 0.1,0.05 0.13,0.09 0.04,0.04 0.07,0.08 0.09,0.13 0.02,0.05 0.03,0.1 0.03,0.16l0 2.15zm0.17 -3.05l0 -1.16 -0.66 0 0 1c-0.26,0.02 -0.48,0.12 -0.66,0.29 -0.18,-0.18 -0.4,-0.27 -0.66,-0.29l0 -1 -0.66 0 0 1.16c-0.15,0.1 -0.27,0.23 -0.36,0.39 -0.09,0.16 -0.13,0.33 -0.13,0.51l0 0.02c-0.11,-0.12 -0.17,-0.27 -0.17,-0.44l0 -2.48c0,-0.13 0.04,-0.25 0.1,-0.35 0.07,-0.11 0.16,-0.19 0.28,-0.24 0.04,0.18 0.11,0.35 0.21,0.5 0.1,0.16 0.22,0.29 0.37,0.4 0.14,0.11 0.3,0.2 0.48,0.26 0.17,0.06 0.35,0.09 0.54,0.09 0.18,0 0.36,-0.03 0.54,-0.09 0.17,-0.06 0.33,-0.15 0.48,-0.26 0.14,-0.11 0.27,-0.25 0.37,-0.4 0.1,-0.16 0.17,-0.32 0.21,-0.5 0.12,0.05 0.21,0.13 0.28,0.24 0.07,0.11 0.1,0.23 0.1,0.35l0 2.48c0,0.17 -0.05,0.31 -0.17,0.44l0 -0.02c-0,-0.18 -0.04,-0.35 -0.13,-0.51 -0.09,-0.16 -0.21,-0.29 -0.36,-0.39z"/>
   <polygon class="fil0" points="15.19,5.61 15.85,5.61 15.85,6.93 15.19,6.93 "/>
   <polygon class="fil0" points="16.91,7.11 17.5,5.93 18.09,6.23 17.5,7.41 "/>
   <polygon class="fil0" points="12.94,6.23 13.53,5.93 14.13,7.11 13.53,7.41 "/>
   <path class="fil0" d="M6.5 0.89c1.44,-0.64 3.4,0.04 5.81,2.02l-0.46 0.45c-0.09,0.09 -0.12,0.2 -0.08,0.32 0.03,0.12 0.11,0.2 0.24,0.23l1.87 0.47c0.06,0.01 0.11,0.01 0.17,-0 0.06,-0.02 0.1,-0.04 0.15,-0.08 0.04,-0.04 0.07,-0.09 0.08,-0.15 0.02,-0.06 0.02,-0.11 0,-0.17l-0.47 -1.87c-0.03,-0.12 -0.11,-0.2 -0.23,-0.24 -0.12,-0.03 -0.23,-0.01 -0.32,0.08l-0.48 0.48c-2.65,-2.18 -4.85,-2.91 -6.55,-2.15 -3.07,1.37 -3.25,7.03 -3.26,7.27l0.66 0.02c0,-0.05 0.18,-5.49 2.87,-6.69zm6.81 1.95l0.19 0.77 -0.77 -0.19 0.58 -0.58z"/>
  </g>
 </g>
</svg>
