<?xml version="1.0" encoding="UTF-8"?>
<!DOCTYPE svg PUBLIC "-//W3C//DTD SVG 1.1//EN" "http://www.w3.org/Graphics/SVG/1.1/DTD/svg11.dtd">
<!-- Creator: CorelDRAW -->
<svg xmlns="http://www.w3.org/2000/svg" xml:space="preserve" width="0.835476in" height="0.58248in" version="1.1" style="shape-rendering:geometricPrecision; text-rendering:geometricPrecision; image-rendering:optimizeQuality; fill-rule:evenodd; clip-rule:evenodd"
viewBox="0 0 21.89 15.26"
 xmlns:xlink="http://www.w3.org/1999/xlink"
 xmlns:xodm="http://www.corel.com/coreldraw/odm/2003">
 <defs>
  <style type="text/css">
   <![CDATA[
    .fil1 {fill:#010101}
    .fil0 {fill:#020202}
   ]]>
  </style>
 </defs>
 <g id="Layer_x0020_1">
  <metadata id="CorelCorpID_0Corel-Layer"/>
  <g id="_2876011225536">
   <path class="fil0" d="M14.77 12.86c0,0.51 0.02,1.01 -0,1.52 -0.02,0.53 -0.33,0.85 -0.82,0.89l-0.19 0c-0.46,-0.04 -0.81,-0.34 -0.82,-0.83 -0.03,-1.48 -0.03,-2.96 -0,-4.44 0.01,-0.5 0.42,-0.82 0.96,-0.84 0.67,-0.02 1.34,-0.02 2.01,-0 0.32,0.01 0.46,-0.04 0.49,-0.43 0.07,-0.93 0.23,-1.86 0.51,-2.75 0.34,-1.09 1.3,-1.79 2.44,-1.78 0.8,0.01 1.14,0.45 0.93,1.25 -0.32,1.2 -0.65,2.39 -0.98,3.59 -0.53,1.92 -0.53,1.92 -2.56,1.92 -0.47,0 -0.95,0.03 -1.41,-0.01 -0.41,-0.03 -0.59,0.07 -0.55,0.52 0.04,0.47 0.01,0.94 0.01,1.41 -0,0 -0,0 -0,0z"/>
   <path class="fil1" d="M8.97 12.21c0,0.69 0.01,1.37 -0,2.06 -0.01,0.59 -0.34,0.96 -0.86,0.99l-0.16 0c-0.52,-0.03 -0.84,-0.4 -0.84,-1 -0.01,-0.94 -0.02,-1.88 0.01,-2.82 0.01,-0.39 -0.07,-0.54 -0.5,-0.52 -0.81,0.04 -1.63,0.02 -2.45,0.01 -0.73,-0.01 -1.13,-0.31 -1.33,-1.03 -0.43,-1.52 -0.84,-3.05 -1.25,-4.58 -0.18,-0.69 0.18,-1.13 0.89,-1.15 1.19,-0.03 2.22,0.7 2.54,1.88 0.24,0.85 0.42,1.72 0.46,2.6 0.02,0.36 0.11,0.51 0.5,0.49 0.58,-0.03 1.16,-0.01 1.74,-0.01 0.93,0 1.24,0.31 1.24,1.22 0,0.61 -0,1.23 -0,1.84z"/>
   <path class="fil1" d="M11.01 3.21c0.56,0 1.12,-0.01 1.69,0 0.99,0.01 1.7,0.72 1.73,1.7 0,0.14 0,0.29 0,0.43 0,0.72 -0,0.7 -0.7,0.72 -0.36,0.01 -0.53,-0.07 -0.49,-0.47 0.02,-0.17 0.11,-0.49 -0.15,-0.5 -0.29,-0.01 -0.19,0.31 -0.17,0.47 0.06,0.43 -0.12,0.5 -0.51,0.49 -0.94,-0.03 -1.89,-0.03 -2.83,0 -0.39,0.01 -0.53,-0.11 -0.47,-0.48 0.01,-0.09 0,-0.18 -0,-0.27 -0.01,-0.11 -0.03,-0.24 -0.17,-0.23 -0.12,0.01 -0.18,0.11 -0.17,0.23 0,0.02 0,0.04 0,0.05 -0.03,0.22 0.12,0.57 -0.09,0.65 -0.29,0.11 -0.64,0.03 -0.97,0.04 -0.11,0 -0.16,-0.06 -0.16,-0.17 0.02,-0.55 -0.11,-1.13 0.13,-1.66 0.3,-0.63 0.81,-1 1.53,-1.02 0.6,-0.01 1.2,-0 1.79,-0z"/>
   <path class="fil1" d="M11.04 7.77c-1.49,0 -2.98,-0.02 -4.47,0.01 -0.45,0.01 -0.46,-0.2 -0.42,-0.52 0.03,-0.28 -0.16,-0.64 0.42,-0.64 2.96,0.03 5.92,0.02 8.88,-0 0.51,-0 0.4,0.29 0.38,0.55 -0.01,0.26 0.18,0.62 -0.38,0.6 -1.47,-0.03 -2.94,-0.01 -4.41,-0.01z"/>
   <path class="fil0" d="M17.05 12.65c-0.31,0 -0.62,-0 -0.93,0 -0.32,0 -0.54,-0.15 -0.55,-0.47 -0.02,-0.35 0.23,-0.45 0.54,-0.45 0.51,0 1.02,0 1.52,-0 1.15,-0.01 1.83,-0.51 2.13,-1.62 0.4,-1.44 0.79,-2.88 1.17,-4.32 0.09,-0.33 0.23,-0.62 0.62,-0.5 0.37,0.11 0.37,0.42 0.28,0.75 -0.39,1.44 -0.75,2.89 -1.15,4.33 -0.41,1.46 -1.51,2.27 -3.04,2.27 -0.2,0 -0.4,0 -0.6,0z"/>
   <path class="fil0" d="M4.79 12.65c-0.37,-0.03 -0.8,0.02 -1.24,-0.07 -1.21,-0.24 -1.97,-0.95 -2.31,-2.1 -0.43,-1.47 -0.8,-2.95 -1.19,-4.43 -0.08,-0.31 -0.11,-0.66 0.28,-0.76 0.39,-0.11 0.53,0.17 0.62,0.51 0.38,1.42 0.77,2.85 1.16,4.27 0.3,1.12 1,1.66 2.15,1.66 0.51,0 1.02,0 1.52,0 0.31,-0 0.57,0.12 0.55,0.45 -0.02,0.3 -0.24,0.47 -0.56,0.47 -0.31,-0 -0.62,-0 -0.99,-0z"/>
   <path class="fil0" d="M20.2 2.18c-0,0.82 -0.66,1.47 -1.48,1.47 -0.82,-0 -1.48,-0.66 -1.47,-1.48 0,-0.82 0.66,-1.47 1.49,-1.46 0.83,0 1.47,0.65 1.47,1.47z"/>
   <path class="fil0" d="M4.64 2.14c0.01,0.83 -0.63,1.49 -1.45,1.51 -0.8,0.02 -1.5,-0.66 -1.52,-1.46 -0.02,-0.82 0.67,-1.49 1.53,-1.49 0.81,0 1.44,0.63 1.44,1.44z"/>
   <path class="fil0" d="M12.37 1.36c0,0.78 -0.59,1.36 -1.37,1.35 -0.76,-0.01 -1.38,-0.63 -1.37,-1.37 0.01,-0.72 0.63,-1.33 1.36,-1.34 0.76,-0.01 1.38,0.59 1.38,1.36z"/>
  </g>
 </g>
</svg>
