<?xml version="1.0" encoding="UTF-8"?>
<!DOCTYPE svg PUBLIC "-//W3C//DTD SVG 1.1//EN" "http://www.w3.org/Graphics/SVG/1.1/DTD/svg11.dtd">
<!-- Creator: CorelDRAW -->
<svg xmlns="http://www.w3.org/2000/svg" xml:space="preserve" width="0.518343in" height="0.364598in" version="1.1" style="shape-rendering:geometricPrecision; text-rendering:geometricPrecision; image-rendering:optimizeQuality; fill-rule:evenodd; clip-rule:evenodd"
viewBox="0 0 19.96 14.04"
 xmlns:xlink="http://www.w3.org/1999/xlink"
 xmlns:xodm="http://www.corel.com/coreldraw/odm/2003">
 <defs>
  <style type="text/css">
   <![CDATA[
    .fil0 {fill:white;fill-rule:nonzero}
   ]]>
  </style>
 </defs>
 <g id="Layer_x0020_1">
  <metadata id="CorelCorpID_0Corel-Layer"/>
  <g id="_2876142743632">
   <path class="fil0" d="M18.17 4.94c0,0.14 -0.01,0.28 -0.04,0.42 -0.03,0.14 -0.07,0.27 -0.12,0.4 -0.05,0.13 -0.12,0.25 -0.2,0.37 -0.08,0.12 -0.17,0.22 -0.26,0.32 -0.1,0.1 -0.21,0.19 -0.32,0.27 -0.12,0.08 -0.24,0.14 -0.37,0.2 -0.13,0.05 -0.26,0.09 -0.4,0.12 -0.14,0.03 -0.28,0.04 -0.42,0.04 -0.14,0 -0.28,-0.01 -0.42,-0.04 -0.14,-0.03 -0.27,-0.07 -0.4,-0.12 -0.13,-0.05 -0.25,-0.12 -0.37,-0.2 -0.12,-0.08 -0.22,-0.17 -0.32,-0.27 -0.1,-0.1 -0.19,-0.21 -0.27,-0.32 -0.08,-0.12 -0.14,-0.24 -0.2,-0.37 -0.05,-0.13 -0.09,-0.26 -0.12,-0.4 -0.03,-0.14 -0.04,-0.28 -0.04,-0.42 -0,-0.14 0.01,-0.28 0.04,-0.42 0.03,-0.14 0.07,-0.27 0.12,-0.4 0.05,-0.13 0.12,-0.25 0.2,-0.37 0.08,-0.12 0.17,-0.22 0.27,-0.32 0.1,-0.1 0.21,-0.19 0.32,-0.27 0.12,-0.08 0.24,-0.14 0.37,-0.2 0.13,-0.05 0.26,-0.09 0.4,-0.12 0.14,-0.03 0.28,-0.04 0.42,-0.04 0.14,0 0.28,0.01 0.42,0.04 0.14,0.03 0.27,0.07 0.4,0.12 0.13,0.05 0.25,0.12 0.37,0.2 0.12,0.08 0.22,0.17 0.32,0.26 0.1,0.1 0.19,0.21 0.27,0.32 0.08,0.12 0.14,0.24 0.2,0.37 0.05,0.13 0.09,0.26 0.12,0.4 0.03,0.14 0.04,0.28 0.04,0.42z"/>
   <path class="fil0" d="M1.79 4.94c-0,0.14 0.01,0.28 0.04,0.42 0.03,0.14 0.07,0.27 0.12,0.4 0.05,0.13 0.12,0.25 0.2,0.37 0.08,0.12 0.17,0.22 0.26,0.32 0.1,0.1 0.21,0.19 0.32,0.27 0.12,0.08 0.24,0.14 0.37,0.2 0.13,0.05 0.26,0.09 0.4,0.12 0.14,0.03 0.28,0.04 0.42,0.04 0.14,0 0.28,-0.01 0.42,-0.04 0.14,-0.03 0.27,-0.07 0.4,-0.12 0.13,-0.05 0.25,-0.12 0.37,-0.2 0.12,-0.08 0.22,-0.17 0.32,-0.27 0.1,-0.1 0.19,-0.21 0.27,-0.32 0.08,-0.12 0.14,-0.24 0.2,-0.37 0.05,-0.13 0.09,-0.26 0.12,-0.4 0.03,-0.14 0.04,-0.28 0.04,-0.42 0,-0.14 -0.01,-0.28 -0.04,-0.42 -0.03,-0.14 -0.07,-0.27 -0.12,-0.4 -0.05,-0.13 -0.12,-0.25 -0.2,-0.37 -0.08,-0.12 -0.17,-0.22 -0.27,-0.32 -0.1,-0.1 -0.21,-0.19 -0.32,-0.27 -0.12,-0.08 -0.24,-0.14 -0.37,-0.2 -0.13,-0.05 -0.26,-0.09 -0.4,-0.12 -0.14,-0.03 -0.28,-0.04 -0.42,-0.04 -0.14,0 -0.28,0.01 -0.42,0.04 -0.14,0.03 -0.27,0.07 -0.4,0.12 -0.13,0.05 -0.25,0.12 -0.37,0.2 -0.12,0.08 -0.22,0.17 -0.32,0.26 -0.1,0.1 -0.19,0.21 -0.27,0.32 -0.08,0.12 -0.14,0.24 -0.2,0.37 -0.05,0.13 -0.09,0.26 -0.12,0.4 -0.03,0.14 -0.04,0.28 -0.04,0.42z"/>
   <path class="fil0" d="M5.45 2.13c-0,0.14 0.01,0.28 0.04,0.42 0.03,0.14 0.07,0.27 0.12,0.4 0.05,0.13 0.12,0.25 0.2,0.37 0.08,0.12 0.17,0.22 0.26,0.32 0.1,0.1 0.21,0.19 0.32,0.27 0.12,0.08 0.24,0.14 0.37,0.2 0.13,0.05 0.26,0.09 0.4,0.12 0.14,0.03 0.28,0.04 0.42,0.04 0.14,0 0.28,-0.01 0.42,-0.04 0.14,-0.03 0.27,-0.07 0.4,-0.12 0.13,-0.05 0.25,-0.12 0.37,-0.2 0.12,-0.08 0.22,-0.17 0.32,-0.27 0.1,-0.1 0.19,-0.21 0.27,-0.32 0.08,-0.12 0.14,-0.24 0.2,-0.37 0.05,-0.13 0.09,-0.26 0.12,-0.4 0.03,-0.14 0.04,-0.28 0.04,-0.42 0,-0.14 -0.01,-0.28 -0.04,-0.42 -0.03,-0.14 -0.07,-0.27 -0.12,-0.4 -0.05,-0.13 -0.12,-0.25 -0.2,-0.37 -0.08,-0.12 -0.17,-0.22 -0.27,-0.32 -0.1,-0.1 -0.21,-0.19 -0.32,-0.27 -0.12,-0.08 -0.24,-0.14 -0.37,-0.2 -0.13,-0.05 -0.26,-0.09 -0.4,-0.12 -0.1,-0.02 -0.2,-0.03 -0.3,-0.04l-0.23 0c-0.1,0.01 -0.2,0.02 -0.3,0.04 -0.14,0.03 -0.27,0.07 -0.4,0.12 -0.13,0.05 -0.25,0.12 -0.37,0.2 -0.12,0.08 -0.22,0.17 -0.32,0.26 -0.1,0.1 -0.19,0.21 -0.27,0.32 -0.08,0.12 -0.14,0.24 -0.2,0.37 -0.05,0.13 -0.09,0.26 -0.12,0.4 -0.03,0.14 -0.04,0.28 -0.04,0.42z"/>
   <path class="fil0" d="M14.51 2.13c0,0.14 -0.01,0.28 -0.04,0.42 -0.03,0.14 -0.07,0.27 -0.12,0.4 -0.05,0.13 -0.12,0.25 -0.2,0.37 -0.08,0.12 -0.17,0.22 -0.26,0.32 -0.1,0.1 -0.21,0.19 -0.32,0.27 -0.12,0.08 -0.24,0.14 -0.37,0.2 -0.13,0.05 -0.26,0.09 -0.4,0.12 -0.14,0.03 -0.28,0.04 -0.42,0.04 -0.14,0 -0.28,-0.01 -0.42,-0.04 -0.14,-0.03 -0.27,-0.07 -0.4,-0.12 -0.13,-0.05 -0.25,-0.12 -0.37,-0.2 -0.12,-0.08 -0.22,-0.17 -0.32,-0.27 -0.1,-0.1 -0.19,-0.21 -0.27,-0.32 -0.08,-0.12 -0.14,-0.24 -0.2,-0.37 -0.05,-0.13 -0.09,-0.26 -0.12,-0.4 -0.03,-0.14 -0.04,-0.28 -0.04,-0.42 0,-0.14 0.01,-0.28 0.04,-0.42 0.03,-0.14 0.07,-0.27 0.12,-0.4 0.05,-0.13 0.12,-0.25 0.2,-0.37 0.08,-0.12 0.17,-0.22 0.27,-0.32 0.1,-0.1 0.21,-0.19 0.32,-0.27 0.12,-0.08 0.24,-0.14 0.37,-0.2 0.13,-0.05 0.26,-0.09 0.4,-0.12 0.1,-0.02 0.2,-0.03 0.3,-0.04l0.23 0c0.1,0.01 0.2,0.02 0.3,0.04 0.14,0.03 0.27,0.07 0.4,0.12 0.13,0.05 0.25,0.12 0.37,0.2 0.12,0.08 0.22,0.17 0.32,0.26 0.1,0.1 0.19,0.21 0.27,0.32 0.08,0.12 0.14,0.24 0.2,0.37 0.05,0.13 0.09,0.26 0.12,0.4 0.03,0.14 0.04,0.28 0.04,0.42z"/>
   <path class="fil0" d="M12.11 6.75c0,0.14 -0.01,0.28 -0.04,0.42 -0.03,0.14 -0.07,0.27 -0.12,0.4 -0.05,0.13 -0.12,0.25 -0.2,0.37 -0.08,0.12 -0.17,0.22 -0.27,0.32 -0.1,0.1 -0.21,0.19 -0.32,0.27 -0.12,0.08 -0.24,0.14 -0.37,0.2 -0.13,0.05 -0.26,0.09 -0.4,0.12 -0.14,0.03 -0.28,0.04 -0.42,0.04 -0.14,0 -0.28,-0.01 -0.42,-0.04 -0.14,-0.03 -0.27,-0.07 -0.4,-0.12 -0.13,-0.05 -0.25,-0.12 -0.37,-0.2 -0.12,-0.08 -0.22,-0.17 -0.32,-0.27 -0.1,-0.1 -0.19,-0.21 -0.27,-0.32 -0.08,-0.12 -0.14,-0.24 -0.2,-0.37 -0.05,-0.13 -0.09,-0.26 -0.12,-0.4 -0.03,-0.14 -0.04,-0.28 -0.04,-0.42 0,-0.14 0.01,-0.28 0.04,-0.42 0.03,-0.14 0.07,-0.27 0.12,-0.4 0.05,-0.13 0.12,-0.25 0.2,-0.37 0.08,-0.12 0.17,-0.22 0.27,-0.32 0.1,-0.1 0.21,-0.19 0.32,-0.27 0.12,-0.08 0.24,-0.14 0.37,-0.2 0.13,-0.05 0.26,-0.09 0.4,-0.12 0.14,-0.03 0.28,-0.04 0.42,-0.04 0.14,-0 0.28,0.01 0.42,0.04 0.14,0.03 0.27,0.07 0.4,0.12 0.13,0.05 0.25,0.12 0.37,0.2 0.12,0.08 0.22,0.17 0.32,0.27 0.1,0.1 0.19,0.21 0.27,0.32 0.08,0.12 0.14,0.24 0.2,0.37 0.05,0.13 0.09,0.26 0.12,0.4 0.03,0.14 0.04,0.28 0.04,0.42z"/>
   <path class="fil0" d="M5.38 12.06c0,-1.66 0.77,-2.99 2.05,-3.62 -0.18,-0.34 -0.42,-0.63 -0.72,-0.88 -0.3,-0.24 -0.64,-0.41 -1.01,-0.51l-0.06 0c-0.04,0 -0.09,0.01 -0.12,0.04 -0.09,0.06 -0.17,0.12 -0.26,0.19 -0.25,0.19 -0.62,0.86 -1.58,0.86 -0.96,0 -1.01,-0.62 -1.16,-0.86 -0.05,-0.08 -0.11,-0.14 -0.18,-0.19 -0.04,-0.02 -0.08,-0.04 -0.12,-0.04l-0.06 0c-1.42,0.41 -2.15,1.72 -2.15,3.2l0 1.77c0,0.06 0.02,0.11 0.07,0.15 0.04,0.04 0.09,0.06 0.15,0.07l5.16 0 0 -0.17z"/>
   <path class="fil0" d="M17.8 7.05l-0.06 0c-0.04,0 -0.08,0.01 -0.12,0.04 -0.07,0.05 -0.13,0.11 -0.18,0.19 -0.14,0.24 -0.2,0.86 -1.16,0.86 -0.96,0 -1.33,-0.67 -1.58,-0.86 -0.08,-0.07 -0.17,-0.13 -0.26,-0.19 -0.04,-0.02 -0.08,-0.04 -0.12,-0.04l-0.06 0c-0.37,0.1 -0.71,0.27 -1.01,0.51 -0.3,0.24 -0.54,0.53 -0.72,0.88 1.28,0.62 2.05,1.95 2.05,3.62l0 0.17 5.16 0c0.06,-0 0.11,-0.02 0.15,-0.07 0.04,-0.04 0.06,-0.09 0.07,-0.15l0 -1.77c0,-1.48 -0.73,-2.79 -2.16,-3.19z"/>
   <path class="fil0" d="M6.24 14.04c-0.05,-0.01 -0.09,-0.03 -0.12,-0.06 -0.04,-0.04 -0.07,-0.1 -0.07,-0.16l0 -1.77c0,-1.48 0.73,-2.79 2.16,-3.19l0.06 0c0.04,0 0.09,0.01 0.12,0.04 0.09,0.06 0.17,0.12 0.26,0.19 0.25,0.2 0.62,0.86 1.58,0.86 0.96,0 1.02,-0.62 1.16,-0.86 0.04,-0.08 0.1,-0.15 0.17,-0.19 0.04,-0.02 0.08,-0.04 0.12,-0.04l0.06 0c1.43,0.4 2.16,1.71 2.16,3.19l0 1.77c0,0.06 -0.02,0.11 -0.07,0.16 -0.03,0.03 -0.07,0.05 -0.12,0.06l-7.48 0z"/>
  </g>
 </g>
</svg>
