<?xml version="1.0" encoding="UTF-8"?>
<!DOCTYPE svg PUBLIC "-//W3C//DTD SVG 1.1//EN" "http://www.w3.org/Graphics/SVG/1.1/DTD/svg11.dtd">
<!-- Creator: CorelDRAW -->
<svg xmlns="http://www.w3.org/2000/svg" xml:space="preserve" width="0.187469in" height="0.218496in" version="1.1" style="shape-rendering:geometricPrecision; text-rendering:geometricPrecision; image-rendering:optimizeQuality; fill-rule:evenodd; clip-rule:evenodd"
viewBox="0 0 1.03 1.2"
 xmlns:xlink="http://www.w3.org/1999/xlink"
 xmlns:xodm="http://www.corel.com/coreldraw/odm/2003">
 <defs>
  <style type="text/css">
   <![CDATA[
    .fil0 {fill:black;fill-rule:nonzero}
   ]]>
  </style>
 </defs>
 <g id="Layer_x0020_1">
  <metadata id="CorelCorpID_0Corel-Layer"/>
  <path class="fil0" d="M0.96 0.66l0 -0.18 -0.04 0.01 -0.07 -0.07 -0.06 0.04c-0.03,-0.04 -0.08,-0.07 -0.13,-0.09 0.04,-0.04 0.07,-0.09 0.07,-0.16 0,-0.12 -0.1,-0.21 -0.21,-0.21 -0.12,0 -0.21,0.1 -0.21,0.21 0,0.06 0.03,0.12 0.07,0.16 -0.06,0.02 -0.1,0.05 -0.13,0.09l-0.06 -0.04 -0.07 0.07 -0.04 -0.01 0 0.18c-0.04,0.01 -0.07,0.05 -0.07,0.1 0,0.05 0.03,0.09 0.07,0.1l0 0.17 0.45 0.17 0.45 -0.17 0 -0.17c0.04,-0.01 0.07,-0.05 0.07,-0.1 -0,-0.05 -0.03,-0.09 -0.07,-0.1zm-0.11 -0.18l0.03 0.03 -0.19 0.07 0.16 -0.11zm-0.51 -0.26c0,-0.1 0.08,-0.17 0.17,-0.17 0.1,0 0.17,0.08 0.17,0.17 0,0.1 -0.08,0.17 -0.17,0.17 -0.1,0 -0.17,-0.08 -0.17,-0.17zm-0.16 0.26l0.16 0.11 -0.19 -0.07 0.03 -0.03zm-0.14 0.28c0,-0.03 0.02,-0.06 0.05,-0.06 0.03,0 0.05,0.03 0.05,0.06 0,0.03 -0.02,0.06 -0.05,0.06 -0.03,0 -0.05,-0.03 -0.05,-0.06zm0.45 0.39l-0.38 -0.15 0 -0.14c0,-0 0,-0 0,-0 0.01,-0 0.02,-0.01 0.03,-0.01 0,-0 0,-0 0,-0 0,-0 0.01,-0.01 0.01,-0.01 0,-0 0,-0 0,-0 0,-0 0.01,-0.01 0.01,-0.01 0,-0 0,-0 0,-0 0,-0 0.01,-0.01 0.01,-0.01 0,-0 0,-0 0,-0 0,-0 0,-0.01 0.01,-0.01 0,-0 0,-0 0,-0 0,-0 0,-0.01 0,-0.01 0,-0 0,-0 0,-0 0,-0.01 0,-0.01 0,-0.02 0,-0.01 -0,-0.01 -0,-0.02 -0,-0 -0,-0 -0,-0 -0,-0 -0,-0.01 -0,-0.01 -0,-0 -0,-0 -0,-0 -0,-0 -0,-0.01 -0.01,-0.01 -0,-0 -0,-0 -0,-0 -0,-0 -0,-0.01 -0.01,-0.01 -0,-0 -0,-0 -0,-0 -0,-0 -0.01,-0.01 -0.01,-0.01 -0,-0 -0,-0 -0,-0 -0,-0 -0.01,-0.01 -0.01,-0.01 -0,-0 -0,-0 -0,-0 -0.01,-0.01 -0.02,-0.01 -0.02,-0.01 -0,-0 -0,-0 -0,-0l0 -0.12 0.38 0.15 0 0.46zm-0.22 -0.66c0.03,-0.04 0.08,-0.07 0.14,-0.08 0.03,0.02 0.07,0.03 0.1,0.03 0.04,0 0.07,-0.01 0.1,-0.03 0.06,0.02 0.11,0.05 0.14,0.08l-0.25 0.16 -0.25 -0.16zm0.65 0.52l-0.38 0.15 0 -0.46 0.38 -0.15 0 0.12c-0.04,0.01 -0.07,0.05 -0.07,0.1 0,0.05 0.03,0.09 0.07,0.1l0 0.14zm0.02 -0.18c-0.03,0 -0.05,-0.03 -0.05,-0.06 0,-0.03 0.02,-0.06 0.05,-0.06 0.03,0 0.05,0.03 0.05,0.06 -0,0.03 -0.02,0.06 -0.05,0.06z"/>
 </g>
</svg>
