<?xml version="1.0" encoding="UTF-8"?>
<!DOCTYPE svg PUBLIC "-//W3C//DTD SVG 1.1//EN" "http://www.w3.org/Graphics/SVG/1.1/DTD/svg11.dtd">
<!-- Creator: CorelDRAW -->
<svg xmlns="http://www.w3.org/2000/svg" xml:space="preserve" width="0.309984in" height="0.291646in" version="1.1" style="shape-rendering:geometricPrecision; text-rendering:geometricPrecision; image-rendering:optimizeQuality; fill-rule:evenodd; clip-rule:evenodd"
viewBox="0 0 3.01 2.83"
 xmlns:xlink="http://www.w3.org/1999/xlink"
 xmlns:xodm="http://www.corel.com/coreldraw/odm/2003">
 <defs>
  <style type="text/css">
   <![CDATA[
    .fil0 {fill:black;fill-rule:nonzero}
   ]]>
  </style>
 </defs>
 <g id="Layer_x0020_1">
  <metadata id="CorelCorpID_0Corel-Layer"/>
  <path class="fil0" d="M3 1.64c-0.01,-0.03 -0.04,-0.05 -0.07,-0.05l-0.3 -0.01 -0.11 -0.28c-0.01,-0.03 -0.04,-0.05 -0.07,-0.04 -0.03,0 -0.06,0.02 -0.07,0.05l-0.02 0.05c-0.14,-0.15 -0.32,-0.26 -0.52,-0.31 0.18,-0.09 0.3,-0.28 0.3,-0.49 0,-0.31 -0.25,-0.56 -0.56,-0.56 -0.31,0 -0.56,0.25 -0.56,0.56 0,0.21 0.12,0.4 0.3,0.49 -0.16,0.04 -0.31,0.12 -0.44,0.23 -0.02,-0 -0.03,-0 -0.03,-0.01 -0.02,-0.01 -0.03,-0.02 -0.07,-0.05 -0.01,-0.01 -0.02,-0.01 -0.03,-0.02 -0.06,-0.05 -0.15,-0.05 -0.21,0 -0.01,0.01 -0.02,0.02 -0.03,0.02 -0.04,0.03 -0.05,0.04 -0.07,0.05 -0.02,0.01 -0.04,0.01 -0.08,0.01 -0.01,0 -0.02,0 -0.04,0 -0.08,0 -0.14,0.06 -0.16,0.14 -0,0.01 -0.01,0.03 -0.01,0.04 -0.01,0.04 -0.01,0.06 -0.02,0.08 -0.01,0.01 -0.02,0.03 -0.06,0.06 -0.01,0.01 -0.02,0.02 -0.03,0.03 -0.06,0.05 -0.07,0.14 -0.04,0.21 0.01,0.01 0.01,0.02 0.02,0.03 0.02,0.04 0.03,0.06 0.03,0.08 0,0.02 0,0.04 -0.01,0.08 -0,0.01 -0,0.02 -0,0.04 -0.01,0.08 0.03,0.15 0.11,0.18 0.01,0.01 0.02,0.01 0.03,0.01 0,0 0,0 0,0l-0.16 0.35c-0.01,0.02 -0.01,0.04 0.01,0.05 0.01,0.01 0.03,0.02 0.05,0.02l0.18 -0.03 0.09 0.16c0.01,0.01 0.02,0.02 0.04,0.02l0.01 0c0.02,-0 0.03,-0.01 0.04,-0.03l0.16 -0.35c0.02,-0.01 0.04,-0.01 0.05,-0.01 0.02,0 0.04,0.01 0.08,0.02 0,0 0.01,0 0.01,0l0.12 0.27c0.01,0.02 0.02,0.03 0.04,0.03 0,0 0,0 0,0 0.02,0 0.03,-0.01 0.04,-0.02l0.09 -0.15 0.18 0.04c0.02,0 0.04,-0 0.05,-0.02 0.01,-0.01 0.01,-0.03 0.01,-0.05l-0.13 -0.31c0,-0 0,-0 0.01,-0 0.07,-0.03 0.12,-0.11 0.11,-0.18 -0,-0.01 -0,-0.03 -0,-0.04 -0,-0.01 -0,-0.01 -0,-0.01l0.92 0 -0.05 0.21c-0.01,0.03 0,0.06 0.03,0.08 0.01,0.01 0.03,0.01 0.04,0.01 0.01,0 0.03,-0 0.04,-0.01l0.25 -0.17 0.26 0.16c0.03,0.02 0.06,0.01 0.08,-0 0.02,-0.02 0.03,-0.05 0.02,-0.08l-0.09 -0.29 0.23 -0.19c0.02,-0.02 0.03,-0.05 0.02,-0.08zm-0.67 -0.17l-0.04 0.13 -0.3 0.02c-0.03,0 -0.05,0.02 -0.06,0.05 -0.01,0.03 0,0.06 0.03,0.08l0.22 0.17 -0.54 0 0.24 -0.27c0.01,-0.01 0.02,-0.03 0.01,-0.05l-0.15 -0.47c0.23,0.03 0.45,0.16 0.6,0.34zm-1.07 0.16c-0.01,-0.01 -0.02,-0.02 -0.03,-0.03 -0.03,-0.03 -0.05,-0.05 -0.06,-0.06 -0.01,-0.01 -0.01,-0.04 -0.02,-0.08 -0,-0.01 -0.01,-0.02 -0.01,-0.04 -0.01,-0.06 -0.06,-0.11 -0.11,-0.13 0.12,-0.09 0.27,-0.15 0.42,-0.17l-0.15 0.47c-0.01,0.02 -0,0.03 0.01,0.05l0.24 0.27 -0.29 0c0.01,-0.01 0.01,-0.03 0.02,-0.05 0.01,-0.01 0.01,-0.02 0.02,-0.03 0.04,-0.07 0.02,-0.16 -0.04,-0.21zm0.33 -0.51c0,0 0,0 0,0 0,0 0,0 0,0 0.01,0 0.02,0 0.04,0l0.15 0.49 -0.19 0.22 -0.19 -0.22 0.15 -0.49c0.01,-0 0.02,-0 0.04,-0zm-0.46 -0.56c0,-0.25 0.21,-0.46 0.46,-0.46 0.25,0 0.46,0.21 0.46,0.46 0,0.25 -0.21,0.46 -0.46,0.46 0,0 -0,0 -0,0 0,0 -0,0 -0,0 -0.25,-0 -0.46,-0.21 -0.46,-0.46zm-0.74 2.12l-0.06 -0.1c-0.01,-0.02 -0.03,-0.03 -0.05,-0.02l-0.12 0.02 0.12 -0.26c0.01,0.01 0.02,0.03 0.04,0.05 0.01,0.01 0.01,0.02 0.02,0.03 0.03,0.05 0.09,0.08 0.15,0.08l-0.09 0.2zm0.64 -0.19c-0.02,-0 -0.04,0 -0.05,0.02l-0.06 0.1 -0.06 -0.14c0.05,-0.01 0.09,-0.04 0.11,-0.08 0.01,-0.01 0.01,-0.02 0.02,-0.03 0.02,-0.04 0.04,-0.06 0.05,-0.07 0,-0 0.01,-0.01 0.01,-0.01l0.09 0.22 -0.12 -0.02zm0.12 -0.45c0,0.01 0,0.02 0,0.04 0,0.04 -0.01,0.07 -0.05,0.08 -0.01,0.01 -0.02,0.01 -0.03,0.01 -0.1,0.04 -0.11,0.05 -0.17,0.14 -0.01,0.01 -0.01,0.02 -0.02,0.03 -0.02,0.03 -0.06,0.04 -0.09,0.03 -0.01,-0 -0.03,-0.01 -0.04,-0.01 -0.1,-0.03 -0.11,-0.03 -0.22,0 -0.01,0 -0.02,0.01 -0.04,0.01 -0.03,0.01 -0.07,-0 -0.09,-0.03 -0.01,-0.01 -0.01,-0.02 -0.02,-0.03 -0.06,-0.09 -0.07,-0.1 -0.17,-0.14 -0.01,-0 -0.02,-0.01 -0.03,-0.01 -0.03,-0.01 -0.05,-0.05 -0.05,-0.08 0,-0.01 0,-0.03 0,-0.04 0.01,-0.11 0.01,-0.12 -0.04,-0.21 -0.01,-0.01 -0.01,-0.02 -0.02,-0.03 -0.02,-0.03 -0.01,-0.07 0.02,-0.09 0.01,-0.01 0.02,-0.02 0.03,-0.03 0.08,-0.07 0.08,-0.08 0.11,-0.19 0,-0.01 0.01,-0.02 0.01,-0.04 0.01,-0.04 0.04,-0.06 0.07,-0.06 0.01,-0 0.03,-0 0.04,-0 0.11,-0.01 0.12,-0.01 0.2,-0.07 0.01,-0.01 0.02,-0.01 0.03,-0.02 0.01,-0.01 0.03,-0.02 0.05,-0.02 0.02,0 0.03,0.01 0.05,0.02 0.01,0.01 0.02,0.02 0.03,0.02 0.09,0.07 0.1,0.07 0.2,0.07 0.01,0 0.02,0 0.04,0 0.04,0 0.07,0.03 0.07,0.06 0,0.01 0.01,0.03 0.01,0.04 0.02,0.11 0.03,0.11 0.11,0.19 0.01,0.01 0.02,0.02 0.03,0.03 0.03,0.03 0.03,0.06 0.02,0.09 -0.01,0.01 -0.01,0.02 -0.02,0.03 -0.05,0.1 -0.05,0.11 -0.04,0.21zm1.52 -0.19c-0.02,0.02 -0.03,0.05 -0.02,0.08l0.07 0.24 -0.21 -0.13c-0.02,-0.02 -0.06,-0.01 -0.08,0l-0.2 0.14 0.06 -0.24c0.01,-0.03 -0,-0.06 -0.03,-0.07l-0.2 -0.15 0.25 -0.02c0.03,-0 0.05,-0.02 0.06,-0.05l0.08 -0.24 0.1 0.23c0.01,0.03 0.04,0.04 0.06,0.04l0.25 0.01 -0.19 0.16zm-2.02 -0.46c-0.24,0 -0.44,0.2 -0.44,0.44 0,0.24 0.2,0.44 0.44,0.44 0.24,0 0.44,-0.2 0.44,-0.44 0,-0.24 -0.2,-0.44 -0.44,-0.44zm0 0.78c-0.19,0 -0.34,-0.15 -0.34,-0.34 0,-0.19 0.15,-0.34 0.34,-0.34 0.19,0 0.34,0.15 0.34,0.34 0,0.19 -0.15,0.34 -0.34,0.34zm0.18 -0.56c-0.03,0 -0.05,0.01 -0.07,0.03l-0.15 0.16 -0.05 -0.05c-0.02,-0.02 -0.05,-0.03 -0.07,-0.03 -0.03,0 -0.05,0.01 -0.07,0.03 -0.02,0.02 -0.03,0.05 -0.03,0.08 0,0.03 0.01,0.06 0.03,0.08l0.13 0.13c0.02,0.02 0.05,0.03 0.07,0.03 0.03,0 0.05,-0.01 0.07,-0.03 0.05,-0.05 0.1,-0.1 0.14,-0.15 0.03,-0.03 0.06,-0.06 0.08,-0.09 0.04,-0.04 0.04,-0.11 -0,-0.15 -0.02,-0.02 -0.05,-0.03 -0.07,-0.03 -0,0 -0,0 -0,0zm0.01 0.11c-0.03,0.03 -0.06,0.06 -0.08,0.09 -0.05,0.05 -0.1,0.1 -0.14,0.15 -0,0 -0,0 -0.01,0 -0,0 -0,-0 -0.01,-0l-0.13 -0.13c-0,-0 -0,-0 -0,-0.01 0,-0 0,-0 0,-0.01 0,-0 0,-0 0.01,-0 0,0 0,0 0.01,0l0.09 0.09c0.01,0.01 0.02,0.01 0.03,0.01 0,0 0,0 0,0 0.01,-0 0.03,-0.01 0.03,-0.01l0.19 -0.19c0,-0 0,-0 0.01,-0 0,-0 0,0 0.01,0 0,0 0,0.01 0,0.01z"/>
 </g>
</svg>
