<?xml version="1.0" encoding="UTF-8"?>
<!DOCTYPE svg PUBLIC "-//W3C//DTD SVG 1.1//EN" "http://www.w3.org/Graphics/SVG/1.1/DTD/svg11.dtd">
<!-- Creator: CorelDRAW -->
<svg xmlns="http://www.w3.org/2000/svg" xml:space="preserve" width="1.44627in" height="0.922134in" version="1.1" style="shape-rendering:geometricPrecision; text-rendering:geometricPrecision; image-rendering:optimizeQuality; fill-rule:evenodd; clip-rule:evenodd"
viewBox="0 0 128.85 82.15"
 xmlns:xlink="http://www.w3.org/1999/xlink"
 xmlns:xodm="http://www.corel.com/coreldraw/odm/2003">
 <defs>
  <style type="text/css">
   <![CDATA[
    .fil1 {fill:black}
    .fil0 {fill:white;fill-rule:nonzero}
    .fil2 {fill:black;fill-rule:nonzero;fill-opacity:0.000000}
   ]]>
  </style>
 </defs>
 <g id="Layer_x0020_1">
  <metadata id="CorelCorpID_0Corel-Layer"/>
  <g id="_1833712399952">
   <path class="fil0" d="M10.21 0l108.43 0c2.71,0 5.3,1.08 7.22,2.99 1.91,1.91 2.99,4.51 2.99,7.22l0 61.74c0,2.71 -1.08,5.3 -2.99,7.22 -1.91,1.91 -4.51,2.99 -7.22,2.99l-108.43 0c-2.71,0 -5.3,-1.08 -7.22,-2.99 -1.91,-1.91 -2.99,-4.51 -2.99,-7.22l0 -61.74c0,-2.71 1.08,-5.3 2.99,-7.22 1.91,-1.91 4.51,-2.99 7.22,-2.99z"/>
   <path class="fil1" d="M62.4 57.95c0.35,0.32 0.36,0.86 0.04,1.21l-0.78 0.81c-0.17,0.18 -0.4,0.27 -0.63,0.27 -0.21,0 -0.42,-0.07 -0.59,-0.23 -0.35,-0.32 -0.36,-0.86 -0.04,-1.2l0.78 -0.82c0.33,-0.34 0.87,-0.36 1.22,-0.04zm-3.78 5.57c-0.44,-0.19 -0.64,-0.69 -0.44,-1.12l0.4 -0.91c0.19,-0.43 0.7,-0.63 1.14,-0.44 0.44,0.19 0.64,0.69 0.44,1.12l-0.4 0.91c-0.14,0.32 -0.46,0.51 -0.79,0.51 -0.12,0 -0.23,-0.02 -0.34,-0.07zm-0.22 3.64c-0.48,0 -0.86,-0.38 -0.86,-0.86l0 -0.94c0,-0.47 0.39,-0.85 0.86,-0.85 0.48,0 0.86,0.38 0.86,0.85l0 0.94c0,0.48 -0.39,0.86 -0.86,0.86zm1.32 3.45c-0.11,0.05 -0.23,0.07 -0.34,0.07 -0.33,0 -0.65,-0.19 -0.79,-0.51l-0.4 -0.91c-0.19,-0.43 0.01,-0.94 0.44,-1.12 0.44,-0.19 0.94,0.01 1.14,0.44l0.4 0.91c0.19,0.43 -0.01,0.94 -0.44,1.12zm2.73 1.9c0.33,0.34 0.31,0.88 -0.04,1.2 -0.17,0.16 -0.38,0.23 -0.59,0.23 -0.23,0 -0.46,-0.09 -0.63,-0.27l-0.78 -0.81c-0.33,-0.35 -0.31,-0.89 0.04,-1.21 0.35,-0.32 0.89,-0.3 1.22,0.04l0.78 0.82zm3.86 3.79c-0.16,0.27 -0.45,0.41 -0.74,0.41 -0.15,0 -0.31,-0.04 -0.45,-0.13l-1.1 -0.66c-0.41,-0.24 -0.53,-0.77 -0.29,-1.17 0.25,-0.4 0.78,-0.53 1.19,-0.28l1.1 0.66c0.41,0.24 0.53,0.77 0.28,1.17zm4.88 1.92c-0.13,0.35 -0.46,0.57 -0.81,0.57 -0.1,0 -0.19,-0.01 -0.29,-0.05l-1.35 -0.47c-0.45,-0.16 -0.68,-0.64 -0.53,-1.09 0.16,-0.45 0.65,-0.68 1.1,-0.52l1.35 0.47c0.45,0.16 0.68,0.65 0.53,1.09zm5.56 1.11c-0.07,0.42 -0.44,0.71 -0.85,0.71 -0.05,0 -0.09,0 -0.14,-0.01l-1.5 -0.24c-0.47,-0.08 -0.79,-0.52 -0.71,-0.98 0.08,-0.47 0.52,-0.78 0.99,-0.71l1.5 0.25c0.47,0.08 0.79,0.52 0.71,0.98zm5.88 0.19c0.01,0.48 -0.37,0.86 -0.84,0.87 -0.27,0.01 -0.53,0.01 -0.79,0.01 -0.26,0 -0.52,0 -0.79,-0.01 -0.48,-0.01 -0.85,-0.4 -0.84,-0.87 0.01,-0.47 0.4,-0.84 0.88,-0.84 0.52,0.01 1,0.01 1.52,0 0.48,-0.01 0.87,0.37 0.88,0.84zm5.81 -0.71c0.08,0.46 -0.24,0.9 -0.71,0.98l-1.5 0.24c-0.05,0.01 -0.09,0.01 -0.14,0.01 -0.42,0 -0.78,-0.3 -0.85,-0.71 -0.08,-0.46 0.24,-0.9 0.71,-0.98l1.5 -0.24c0.47,-0.07 0.91,0.24 0.99,0.71zm5.33 -1.63c0.16,0.45 -0.08,0.93 -0.53,1.09l-1.35 0.47c-0.1,0.04 -0.19,0.05 -0.29,0.05 -0.35,0 -0.69,-0.22 -0.81,-0.57 -0.16,-0.44 0.08,-0.93 0.53,-1.09l1.35 -0.47c0.45,-0.16 0.94,0.07 1.1,0.52zm4.48 -2.44c0.25,0.4 0.12,0.93 -0.28,1.17l-1.1 0.66c-0.14,0.09 -0.3,0.13 -0.45,0.13 -0.29,0 -0.57,-0.14 -0.74,-0.41 -0.25,-0.4 -0.12,-0.93 0.28,-1.17l1.1 -0.66c0.41,-0.25 0.94,-0.12 1.19,0.28zm3.28 -3.09c0.35,0.32 0.36,0.86 0.04,1.21l-0.78 0.81c-0.17,0.18 -0.4,0.27 -0.63,0.27 -0.21,0 -0.42,-0.07 -0.59,-0.23 -0.35,-0.32 -0.36,-0.86 -0.04,-1.2l0.78 -0.82c0.33,-0.34 0.87,-0.35 1.22,-0.04zm2.27 -2.38l-0.4 0.91c-0.14,0.32 -0.46,0.51 -0.79,0.51 -0.12,0 -0.23,-0.02 -0.35,-0.07 -0.44,-0.19 -0.64,-0.69 -0.44,-1.12l0.4 -0.91c0.19,-0.43 0.7,-0.63 1.14,-0.44 0.44,0.19 0.64,0.69 0.44,1.12zm0.64 -3.91l0 0.94c0,0.48 -0.39,0.86 -0.86,0.86 -0.48,0 -0.86,-0.38 -0.86,-0.86l0 -0.94c0,-0.47 0.39,-0.85 0.86,-0.85 0.48,0 0.86,0.38 0.86,0.85zm-2.62 -3.18c-0.19,-0.43 0.01,-0.94 0.44,-1.12 0.44,-0.19 0.95,0.01 1.14,0.44l0.4 0.91c0.19,0.43 -0.01,0.94 -0.44,1.12 -0.11,0.05 -0.23,0.07 -0.35,0.07 -0.33,0 -0.65,-0.19 -0.79,-0.51l-0.4 -0.91zm-0.25 -3.37c0.33,0.34 0.31,0.88 -0.04,1.2 -0.17,0.16 -0.38,0.23 -0.59,0.23 -0.23,0 -0.46,-0.09 -0.63,-0.27l-0.78 -0.81c-0.33,-0.35 -0.31,-0.89 0.04,-1.21 0.35,-0.32 0.89,-0.3 1.22,0.04l0.78 0.82zm1.93 -17.02c0.12,-0.22 0.06,-0.49 -0.15,-0.63l-0.1 -0.06c-0.22,-0.14 -0.52,-0.09 -0.66,0.12 -1.07,1.53 -2.26,3 -3.54,4.37 -1.26,1.34 -2.77,2.94 -4.77,3.74 -0.4,0.2 -0.84,0.34 -1.3,0.39 -0.13,0.03 -0.27,0.05 -0.4,0.06 -0.44,0.06 -0.84,0.09 -1.21,0.09 -2.37,0 -3.51,-1.15 -5.02,-2.64l-3.58 -3.54c-0.09,-0.09 -0.21,-0.14 -0.34,-0.14 -0,0 -0,0 -0,0 -0.13,0 -0.25,0.05 -0.34,0.14l-0.07 0.07c-0.16,0.16 -0.19,0.39 -0.07,0.58 0.31,0.49 0.6,0.95 0.89,1.4 1.97,3.03 3.52,5.43 3.5,9.83 -0.02,3.4 -1.14,8.03 -2.13,12.11 -0.23,0.92 -0.44,1.8 -0.63,2.62 -0.03,0.12 0.05,0.25 0.18,0.28l0.18 0.05c0.11,0.03 0.22,-0.01 0.27,-0.12l5.04 -8.94c0.16,-0.27 0.45,-0.43 0.75,-0.43 0.09,0 0.19,0.01 0.28,0.04 0.39,0.14 0.64,0.53 0.57,0.94l-1.33 8.69c-0.02,0.14 0.04,0.23 0.07,0.27 0.04,0.05 0.12,0.12 0.26,0.14l0.2 0.01c0.17,0.01 0.3,-0.07 0.36,-0.22 2.17,-5.27 4.02,-10.75 5.66,-16.77 0.24,-0.86 0.57,-1.59 1.09,-2.32 2.23,-3.2 4.37,-6.61 6.35,-10.13zm-23.45 2.55c0.12,-0.19 0.1,-0.43 -0.07,-0.58l-0.07 -0.07c-0.09,-0.09 -0.21,-0.14 -0.34,-0.14 -0,0 -0,0 -0,0 -0.13,0 -0.25,0.05 -0.34,0.14l-3.58 3.54c-1.75,1.74 -3.01,2.99 -6.24,2.55 -0.14,-0.01 -0.27,-0.04 -0.4,-0.06 -0.46,-0.05 -0.9,-0.19 -1.3,-0.39 -2,-0.8 -3.51,-2.4 -4.77,-3.74 -1.28,-1.36 -2.47,-2.83 -3.54,-4.37 -0.09,-0.13 -0.24,-0.2 -0.4,-0.2 -0.09,0 -0.18,0.02 -0.27,0.08l-0.1 0.06c-0.21,0.14 -0.28,0.41 -0.15,0.63 1.98,3.52 4.12,6.93 6.35,10.13 0.52,0.74 0.85,1.46 1.09,2.32 1.63,6.02 3.48,11.51 5.66,16.77 0.06,0.15 0.19,0.23 0.36,0.22l0.2 -0.01c0.14,-0.01 0.22,-0.09 0.26,-0.14 0.04,-0.04 0.09,-0.14 0.07,-0.27l-1.33 -8.69c-0.06,-0.41 0.18,-0.8 0.57,-0.94 0.39,-0.13 0.83,0.03 1.03,0.39l5.04 8.94c0.06,0.1 0.16,0.14 0.27,0.12l0.18 -0.05c0.13,-0.03 0.2,-0.16 0.18,-0.28 -0.19,-0.82 -0.4,-1.7 -0.63,-2.62 -0.99,-4.09 -2.12,-8.71 -2.13,-12.11 -0.02,-4.4 1.53,-6.79 3.5,-9.83 0.29,-0.45 0.59,-0.91 0.89,-1.4zm-19.97 -5.04c1.56,0.14 2.88,0.08 4.05,-0.18 3.31,-0.75 4.09,-2.54 5.08,-4.8 0.15,-0.35 0.31,-0.71 0.49,-1.09l2.09 -4.48c0.22,0.43 0.44,0.86 0.66,1.31 -1.2,4.48 -2.02,8.17 -2.33,12.06 -0.21,-0.04 -0.43,-0.06 -0.65,-0.06 -2.11,0 -3.83,1.68 -3.87,3.76 -0.48,-0.46 -0.94,-0.94 -1.38,-1.41 -1.23,-1.3 -2.36,-2.7 -3.38,-4.16 -0.27,-0.39 -0.65,-0.66 -1.07,-0.81 0.01,-0.02 0.03,-0.04 0.04,-0.04 0.04,-0.04 0.14,-0.12 0.29,-0.1zm4.39 -6.54c-1.19,0 -2.15,0.96 -2.15,2.13 0,1.17 0.96,2.13 2.15,2.13 0.44,0 0.86,-0.14 1.2,-0.36 0,-0.01 0,-0.01 0,-0.01 0.01,-0.01 0.02,-0.01 0.04,-0.02 0.07,-0.05 0.13,-0.1 0.19,-0.15 0.44,-0.39 0.72,-0.96 0.72,-1.59 0,-1.17 -0.96,-2.13 -2.15,-2.13zm7.33 10.07c0.23,-3.41 0.86,-6.64 1.81,-10.4 1.12,2.36 2.1,4.74 2.5,6.79 0.26,1.34 0.44,2.85 0.55,4.58l-2.23 2.2c-0.51,0.51 -0.94,0.93 -1.36,1.27 0.17,-0.43 0.26,-0.9 0.26,-1.39 0,-1.25 -0.61,-2.36 -1.54,-3.06zm-3.36 4.93c-0.67,-0.36 -1.12,-1.06 -1.12,-1.87 0,-1.17 0.97,-2.13 2.15,-2.13 1.19,0 2.15,0.95 2.15,2.13 0,1.17 -0.96,2.13 -2.15,2.13 -0.06,0 -0.13,-0.01 -0.19,-0.01 -0.29,-0.06 -0.57,-0.14 -0.84,-0.25zm4.01 -21.83c0.02,-0.06 0.08,-0.16 0.22,-0.2l0.07 -0.02c0.17,-0.06 0.34,0.01 0.43,0.17 1.31,2.33 2.84,4.22 4.54,5.58 1.94,1.56 4.64,1.56 6.58,0 1.7,-1.36 3.22,-3.24 4.54,-5.58 0.07,-0.13 0.19,-0.19 0.34,-0.18 0.13,0.01 0.31,0.07 0.38,0.24 0.05,0.11 0.04,0.19 -0.01,0.3 -0.28,0.57 -0.57,1.15 -0.88,1.75 -1.79,3.54 -3.81,7.56 -4.48,10.93 -0.2,1.02 -0.36,2.13 -0.47,3.35 -0.38,-0.28 -0.83,-0.43 -1.31,-0.43 -0,0 -0,0 -0.01,0 -0.52,0.01 -1.01,0.19 -1.41,0.51 -0.4,-0.32 -0.89,-0.5 -1.41,-0.51 -0.48,0 -0.93,0.15 -1.31,0.43 -0.11,-1.22 -0.27,-2.33 -0.47,-3.35 -0.66,-3.37 -2.69,-7.39 -4.48,-10.93 -0.3,-0.6 -0.6,-1.18 -0.88,-1.75 -0.06,-0.13 -0.03,-0.24 -0.01,-0.3zm8.55 0.73c-1.19,0 -2.15,0.95 -2.15,2.13 0,1.1 0.85,2.01 1.93,2.12 0.15,0.01 0.3,0.01 0.44,0 1.08,-0.11 1.93,-1.02 1.93,-2.12 0,-1.17 -0.96,-2.13 -2.15,-2.13zm7.38 5.78c0.95,3.76 1.59,6.99 1.81,10.4 -0.94,0.7 -1.54,1.82 -1.54,3.06 0,0.49 0.09,0.96 0.26,1.39 -0.42,-0.34 -0.84,-0.76 -1.36,-1.27l-2.23 -2.2c0.11,-1.74 0.29,-3.24 0.55,-4.58 0.4,-2.05 1.39,-4.43 2.5,-6.79zm4.34 15.58c-0.06,0.01 -0.13,0.01 -0.19,0.01 -1.19,0 -2.15,-0.96 -2.15,-2.13 0,-1.17 0.96,-2.13 2.15,-2.13 1.19,0 2.15,0.95 2.15,2.13 0,0.81 -0.45,1.51 -1.12,1.87 -0.27,0.11 -0.55,0.19 -0.84,0.25zm0.07 -13.69c0.56,1.29 1.08,2.47 2.11,3.38 0.15,0.14 0.31,0.27 0.48,0.37 0.63,0.44 1.44,0.79 2.49,1.04 1.17,0.26 2.49,0.32 4.05,0.18 0.15,-0.01 0.24,0.06 0.29,0.1 0.01,0.01 0.02,0.02 0.04,0.04 -0.42,0.14 -0.8,0.42 -1.07,0.81 -1.02,1.46 -2.16,2.86 -3.38,4.16 -0.44,0.47 -0.9,0.95 -1.38,1.41 -0.04,-2.08 -1.76,-3.76 -3.87,-3.76 -0.22,0 -0.44,0.01 -0.65,0.06 -0.31,-3.89 -1.13,-7.57 -2.33,-12.06 0.22,-0.45 0.44,-0.89 0.66,-1.31l2.09 4.48c0.18,0.37 0.34,0.74 0.49,1.1zm4.74 -1.56c-1.19,0 -2.15,0.96 -2.15,2.13 0,0.65 0.3,1.23 0.77,1.62 0.01,0.01 0.02,0.02 0.03,0.03 0.37,0.3 0.84,0.48 1.35,0.48 1.19,0 2.15,-0.96 2.15,-2.13 -0,-1.17 -0.96,-2.13 -2.15,-2.13zm6.79 6.97l-0.1 -0.07c-0.06,-0.04 -0.12,-0.07 -0.18,-0.1 -0.02,-0.53 -0.25,-1.02 -0.63,-1.39 -0.44,-0.43 -1.04,-0.63 -1.65,-0.58 -0.55,0.05 -1.07,0.07 -1.56,0.06 0.74,-0.7 1.2,-1.68 1.2,-2.77 0,-2.12 -1.74,-3.84 -3.88,-3.84 -1.47,0 -2.75,0.81 -3.41,2.01 -0.08,-0.18 -0.16,-0.36 -0.25,-0.55l-2.68 -5.74c0.18,-0.49 0.17,-1.02 -0.04,-1.51 -0.31,-0.73 -1.05,-1.23 -1.88,-1.28 -0.81,-0.04 -1.55,0.36 -1.94,1.06 -0.75,1.33 -1.57,2.5 -2.45,3.49 -0.13,-2 -1.81,-3.58 -3.87,-3.58 -2.05,0 -3.74,1.59 -3.87,3.58 -0.88,-0.99 -1.7,-2.15 -2.45,-3.49 -0.49,-0.87 -1.5,-1.27 -2.46,-0.97l-0.07 0.02c-0.58,0.19 -1.05,0.61 -1.29,1.16 -0.21,0.48 -0.22,1.02 -0.04,1.51l-2.68 5.74c-0.09,0.19 -0.17,0.37 -0.25,0.55 -0.66,-1.2 -1.94,-2.01 -3.41,-2.01 -2.14,0 -3.88,1.72 -3.88,3.84 0,1.09 0.46,2.07 1.2,2.77 -0.49,0.01 -1,-0.01 -1.56,-0.06 -0.61,-0.06 -1.21,0.15 -1.65,0.58 -0.38,0.37 -0.61,0.86 -0.63,1.39 -0.06,0.03 -0.12,0.06 -0.18,0.1l-0.1 0.07c-0.95,0.63 -1.26,1.89 -0.71,2.88 2.01,3.57 4.17,7.02 6.44,10.26 0.4,0.58 0.66,1.12 0.84,1.8 1.65,6.09 3.52,11.64 5.72,16.98 0.32,0.78 1.09,1.28 1.93,1.28 0.05,0 0.1,0 0.15,-0.01l0.2 -0.01c0.58,-0.04 1.12,-0.32 1.49,-0.76 0.36,-0.45 0.52,-1.04 0.43,-1.61l-0.62 -4.03 2.73 4.83c0.44,0.79 1.33,1.17 2.21,0.94l0.18 -0.04c1.04,-0.27 1.66,-1.29 1.42,-2.32 -0.19,-0.84 -0.41,-1.71 -0.63,-2.64 -0.97,-3.99 -2.07,-8.52 -2.09,-11.72 -0.02,-3.89 1.34,-5.99 3.23,-8.9 0.12,-0.19 0.25,-0.39 0.38,-0.59 0.13,0.2 0.26,0.4 0.38,0.59 1.89,2.9 3.25,5.01 3.23,8.9 -0.01,3.2 -1.12,7.72 -2.09,11.72 -0.23,0.93 -0.44,1.81 -0.63,2.64 -0.24,1.03 0.39,2.05 1.42,2.32l0.18 0.04c0.88,0.23 1.77,-0.15 2.21,-0.94l2.73 -4.83 -0.62 4.03c-0.09,0.57 0.07,1.15 0.43,1.61 0.36,0.45 0.9,0.73 1.49,0.76l0.2 0.01c0.05,0.01 0.1,0.01 0.15,0.01 0.84,0 1.61,-0.5 1.93,-1.28 2.2,-5.34 4.07,-10.89 5.72,-16.98 0.18,-0.68 0.44,-1.22 0.84,-1.8 2.26,-3.24 4.43,-6.69 6.44,-10.26 0.56,-0.99 0.25,-2.26 -0.71,-2.88z"/>
   <polygon class="fil2" points="56.38,80.56 105.21,80.56 105.21,23.78 56.38,23.78 "/>
  </g>
 </g>
</svg>
